<svg width="147" height="71" viewBox="0 0 147 71" fill="none" xmlns="http://www.w3.org/2000/svg">
<path d="M19.9 24.0601C18.22 24.0601 17.37 24.89 17.37 26.54V44.01C17.37 45.67 18.21 46.4901 19.9 46.4901H26.11C27.8 46.4901 28.64 45.66 28.64 44.01V26.54C28.64 24.88 27.8 24.0601 26.11 24.0601H19.9Z" fill="#101820"/>
<path d="M53.37 24.0601C51.69 24.0601 50.84 24.89 50.84 26.54V44.01C50.84 45.67 51.68 46.4901 53.37 46.4901H59.58C61.27 46.4901 62.11 45.66 62.11 44.01V26.54C62.11 24.88 61.27 24.0601 59.58 24.0601H53.37Z" fill="#101820"/>
<path d="M93.04 24.0601H86.8301C85.1501 24.0601 84.3 24.89 84.3 26.54V44.01C84.3 45.67 85.1401 46.4901 86.8301 46.4901H93.04C94.73 46.4901 95.5701 45.66 95.5701 44.01V26.54C95.5701 24.89 94.73 24.0601 93.04 24.0601Z" fill="#101820"/>
<path d="M134.28 0H12.14C5.45001 0 0 5.44998 0 12.14V58.43C0 65.12 5.45001 70.57 12.14 70.57H134.28C140.97 70.57 146.42 65.12 146.42 58.43V12.14C146.42 5.43998 140.97 0 134.28 0ZM66.62 26.99V43.57C66.62 48.24 64.28 50.58 59.61 50.58H53.31C48.64 50.58 46.3 48.25 46.3 43.57V26.99C46.3 22.32 48.63 19.98 53.31 19.98H59.61C64.29 19.98 66.62 22.32 66.62 26.99ZM33.16 26.99V43.57C33.16 48.24 30.82 50.58 26.15 50.58H19.85C15.18 50.58 12.84 48.25 12.84 43.57V26.99C12.84 22.32 15.17 19.98 19.85 19.98H26.15C30.82 19.98 33.16 22.32 33.16 26.99ZM100.09 43.57C100.09 48.24 97.75 50.58 93.08 50.58H86.78C82.11 50.58 79.77 48.25 79.77 43.57V26.99C79.77 22.32 82.1 19.98 86.78 19.98H93.08C97.75 19.98 100.09 22.32 100.09 26.99V43.57ZM140.14 58.42C140.14 58.45 140.14 58.48 140.14 58.51C140.09 61.7 137.48 64.28 134.28 64.28H106.67V6.26999H134.28C137.48 6.26999 140.09 8.84998 140.14 12.04C140.14 12.07 140.14 12.1 140.14 12.13V58.42Z" fill="#101820"/>
<path d="M126.46 19.98H120.34C115.37 19.98 112.89 22.46 112.89 27.43V43.13C112.89 48.1 115.37 50.58 120.34 50.58H126.46C131.43 50.58 133.91 48.1 133.91 43.13V27.43C133.91 22.47 131.43 19.98 126.46 19.98ZM127.53 43.48C127.53 44.37 127.09 44.81 126.2 44.81H120.61C119.72 44.81 119.28 44.37 119.28 43.48V27.07C119.28 26.18 119.72 25.74 120.61 25.74H126.2C127.09 25.74 127.53 26.18 127.53 27.07V43.48Z" fill="#22C55E"/>
</svg>
