<svg width="91" height="91" viewBox="0 0 91 91" fill="none" xmlns="http://www.w3.org/2000/svg">
<path d="M89.2819 33.6774C86.1419 21.9574 78.6318 12.1674 68.1218 6.10742C57.6218 0.0374188 45.3819 -1.57259 33.6619 1.56741C9.48189 8.04741 -4.92816 32.9974 1.55184 57.1874C4.69184 68.9074 12.2019 78.6974 22.7119 84.7574C29.7119 88.7974 37.4719 90.8574 45.3419 90.8574C49.2819 90.8574 53.2519 90.3374 57.1719 89.2874C68.8919 86.1474 78.6818 78.6374 84.7418 68.1274C90.8118 57.6274 92.4219 45.3874 89.2819 33.6774ZM58.6419 69.7674V78.4874C58.6419 79.4274 57.8819 80.1874 56.9419 80.1874H33.9119C32.9719 80.1874 32.2119 79.4274 32.2119 78.4874V69.7674C32.2119 68.8274 32.9719 68.0674 33.9119 68.0674H56.9419C57.8719 68.0674 58.6419 68.8274 58.6419 69.7674ZM74.7019 73.2474C73.5019 74.5174 71.8018 75.2074 70.0518 75.2074C66.6818 75.2074 63.9119 72.6174 63.6119 69.3174H63.6019C63.3719 65.8274 60.4719 63.0574 56.9219 63.0574H33.8919C30.3419 63.0574 27.4419 65.8274 27.2119 69.3174H27.2019C26.9119 72.6174 24.1419 75.2074 20.7619 75.2074H20.7219C18.9719 75.2074 17.2919 74.5174 16.0819 73.2574C15.8519 73.0174 15.6319 72.7674 15.4119 72.5274V72.5374C14.9319 72.0074 14.4719 71.4774 14.0319 70.9274C13.9919 70.8774 13.9419 70.8174 13.9019 70.7674C13.5919 70.3874 13.2919 70.0074 13.0019 69.6174C12.9819 69.5874 12.9518 69.5474 12.9318 69.5174C12.0918 68.3774 11.3119 67.1974 10.5919 65.9774C10.4919 65.8074 10.3819 65.6274 10.2819 65.4574C10.1119 65.1574 9.95189 64.8574 9.79189 64.5574C9.66189 64.3174 9.54189 64.0774 9.41189 63.8374C9.27189 63.5574 9.13185 63.2874 9.00185 62.9974C8.86185 62.7074 8.73188 62.4074 8.59188 62.1174C8.48188 61.8674 8.37186 61.6274 8.26186 61.3774C8.04186 60.8574 7.82185 60.3274 7.62185 59.7974C7.57185 59.6674 7.52189 59.5274 7.47189 59.3874C7.30189 58.9274 7.14185 58.4774 6.99185 58.0074C6.92185 57.7974 6.86189 57.5874 6.79189 57.3674C6.67189 56.9874 6.56187 56.5974 6.45187 56.2074C6.42187 56.0974 6.38189 55.9874 6.35189 55.8674C6.32189 55.7574 6.30187 55.6374 6.27187 55.5274C6.16187 55.1074 6.06188 54.6774 5.96188 54.2574C5.92188 54.0674 5.87187 53.8774 5.83187 53.6874C5.58187 52.5174 5.3819 51.3374 5.2319 50.1274C4.3819 43.1974 5.39187 36.1174 8.14187 29.6974C11.7419 21.2974 17.7919 14.6074 25.3719 10.3074C25.4619 10.2574 25.5419 10.2074 25.6319 10.1574C26.1019 9.89741 26.5719 9.63743 27.0619 9.39743C27.2519 9.30743 27.4319 9.20743 27.6219 9.11743C28.0419 8.91743 28.4519 8.7174 28.8819 8.5274C29.1619 8.4074 29.4419 8.28742 29.7219 8.16742C30.0819 8.01742 30.4418 7.86741 30.8018 7.72741C31.2018 7.57741 31.6019 7.43742 32.0019 7.29742C32.2719 7.19742 32.5419 7.09741 32.8219 7.00741C33.5119 6.77741 34.2118 6.56741 34.9318 6.37741C35.6018 6.19741 36.2719 6.03743 36.9419 5.89743C37.0119 5.87743 37.0919 5.86742 37.1619 5.85742C37.7619 5.72742 38.3719 5.61742 38.9719 5.51742C38.9919 5.51742 39.0019 5.51741 39.0219 5.50741C48.1719 4.02741 57.4719 5.71742 65.6019 10.4174C73.6919 15.0874 79.7919 22.2574 83.0919 30.8574C83.1119 30.9174 83.1419 30.9774 83.1619 31.0374C83.3419 31.5174 83.5119 31.9974 83.6719 32.4874C83.7319 32.6574 83.7919 32.8274 83.8519 32.9974C83.9819 33.4074 84.1019 33.8274 84.2219 34.2374C84.2919 34.4774 84.3718 34.7174 84.4318 34.9574C84.4418 34.9874 84.4419 35.0174 84.4519 35.0474C84.6519 35.8074 84.8319 36.5774 84.9819 37.3374C85.0219 37.5574 85.0619 37.7774 85.1119 37.9974C85.2319 38.6374 85.3418 39.2874 85.4318 39.9374C85.4518 40.0874 85.4819 40.2474 85.5019 40.3974C86.6119 49.1074 84.8719 57.8874 80.4019 65.6274C78.9619 68.1274 77.2719 70.4274 75.3919 72.5174V72.4474C75.1719 72.7174 74.9519 72.9874 74.7019 73.2474Z" fill="white"/>
<path d="M28.4532 57.6923L42.7923 47.9272C43.6138 48.3742 44.518 48.6365 45.4259 48.6985C47.082 48.8117 48.7918 48.287 50.1454 47.1066C51.8295 45.638 52.5774 43.494 52.3274 41.4321L54.7668 39.7646C55.9435 38.973 56.1558 37.3336 55.2263 36.2678L53.0141 33.731C52.0846 32.6652 50.4316 32.6525 49.4872 33.7105L47.5033 35.9004C47.1097 35.7933 46.7027 35.7354 46.3037 35.7081C44.6475 35.595 42.9377 36.1196 41.5841 37.3001C39.4844 39.1312 38.8563 42.0151 39.7708 44.4731L28.1458 57.3505C27.9719 57.5491 28.2321 57.8475 28.4532 57.6923ZM47.7563 40.5585C48.1932 41.0594 48.4096 41.7057 48.3639 42.3741C48.3182 43.0425 48.0159 43.6534 47.515 44.0902C47.014 44.5271 46.3677 44.7435 45.6993 44.6978C45.0308 44.6522 44.4201 44.3498 43.9832 43.8489C43.5464 43.3479 43.3299 42.7016 43.3755 42.0332C43.4212 41.3648 43.7236 40.754 44.2246 40.3171C44.7255 39.8802 45.3717 39.6638 46.0402 39.7095C46.7093 39.7452 47.3201 40.0475 47.7563 40.5585Z" fill="#22C55E"/>
<path d="M45.4219 17.5874C46.5219 17.5874 47.4219 16.6874 47.4219 15.5874V10.3074C47.4219 9.20737 46.5219 8.30737 45.4219 8.30737C44.3219 8.30737 43.4219 9.20737 43.4219 10.3074V15.5874C43.4219 16.6974 44.3219 17.5874 45.4219 17.5874Z" fill="white"/>
<path d="M29.5918 14.0174C29.0418 13.0574 27.8118 12.7274 26.8618 13.2874C25.9018 13.8374 25.5818 15.0674 26.1318 16.0174L28.7718 20.5974C29.1418 21.2374 29.8118 21.5974 30.5018 21.5974C30.8418 21.5974 31.1818 21.5074 31.5018 21.3274C32.4618 20.7774 32.7818 19.5474 32.2318 18.5974L29.5918 14.0174Z" fill="white"/>
<path d="M14.0118 29.5974L18.5918 32.2375C18.9118 32.4175 19.2518 32.5074 19.5918 32.5074C20.2818 32.5074 20.9518 32.1474 21.3218 31.5074C21.8718 30.5474 21.5418 29.3274 20.5918 28.7774L16.0118 26.1374C15.0518 25.5874 13.8318 25.9175 13.2818 26.8675C12.7218 27.8275 13.0518 29.0474 14.0118 29.5974Z" fill="white"/>
<path d="M17.5818 45.4275C17.5818 44.3275 16.6818 43.4275 15.5818 43.4275H10.3018C9.20176 43.4275 8.30176 44.3275 8.30176 45.4275C8.30176 46.5275 9.20176 47.4275 10.3018 47.4275H15.5818C16.6918 47.4275 17.5818 46.5375 17.5818 45.4275Z" fill="white"/>
<path d="M20.582 62.0775C21.542 61.5275 21.8619 60.2974 21.3119 59.3474C20.7619 58.3874 19.532 58.0575 18.582 58.6175L14.0019 61.2575C13.0419 61.8075 12.722 63.0375 13.272 63.9875C13.642 64.6275 14.3119 64.9875 15.0019 64.9875C15.3419 64.9875 15.6819 64.8974 16.0019 64.7174L20.582 62.0775Z" fill="white"/>
<path d="M76.842 61.2574L72.262 58.6174C71.302 58.0674 70.082 58.3974 69.532 59.3474C68.982 60.3074 69.312 61.5274 70.262 62.0774L74.842 64.7174C75.162 64.8974 75.502 64.9874 75.842 64.9874C76.532 64.9874 77.202 64.6274 77.572 63.9874C78.122 63.0374 77.802 61.8074 76.842 61.2574Z" fill="white"/>
<path d="M80.5417 43.4275H75.2617C74.1617 43.4275 73.2617 44.3275 73.2617 45.4275C73.2617 46.5275 74.1617 47.4275 75.2617 47.4275H80.5417C81.6417 47.4275 82.5417 46.5275 82.5417 45.4275C82.5417 44.3275 81.6517 43.4275 80.5417 43.4275Z" fill="white"/>
<path d="M71.272 32.5075C71.612 32.5075 71.952 32.4175 72.272 32.2375L76.852 29.5975C77.812 29.0475 78.132 27.8175 77.582 26.8675C77.032 25.9075 75.802 25.5775 74.852 26.1375L70.272 28.7775C69.312 29.3275 68.992 30.5575 69.542 31.5075C69.902 32.1475 70.572 32.5075 71.272 32.5075Z" fill="white"/>
<path d="M63.9818 13.2773C63.0218 12.7273 61.8018 13.0573 61.2518 14.0073L58.6118 18.5873C58.0618 19.5473 58.3918 20.7673 59.3418 21.3173C59.6618 21.4973 60.0018 21.5873 60.3418 21.5873C61.0318 21.5873 61.7018 21.2273 62.0718 20.5873L64.7118 16.0073C65.2718 15.0573 64.9418 13.8373 63.9818 13.2773Z" fill="white"/>
<path d="M55.6419 71.0674H35.2119V77.1874H55.6419V71.0674Z" fill="#22C55E"/>
</svg>
