<svg width="100" height="85" viewBox="0 0 100 85" fill="none" xmlns="http://www.w3.org/2000/svg">
<path d="M93.74 28.81L96.73 25.82C98.05 24.5 98.05 22.36 96.73 21.04L90.2 14.51C88.88 13.19 86.74 13.19 85.42 14.51L82.43 17.5C77.43 14.32 71.61 12.33 65.35 11.91V6H69.09V3.25C69.09 1.45 67.63 0 65.84 0H59.87C58.07 0 56.62 1.46 56.62 3.25V6H60.36V11.91C47.11 12.81 35.8 20.75 30.14 32.03H11.38C8.62 32.03 6.38 34.27 6.38 37.03H28.09C27.17 39.85 26.58 42.82 26.37 45.9H5C2.24 45.9 0 48.14 0 50.9H26.35C26.56 53.98 27.14 56.95 28.07 59.77H11.36C8.60002 59.77 6.36002 62.01 6.36002 64.77H30.12C36.13 76.75 48.52 84.99 62.84 84.99C83.04 84.99 99.42 68.61 99.42 48.41C99.43 41.19 97.34 34.48 93.74 28.81ZM32.26 48.39C32.26 31.53 45.98 17.81 62.84 17.81C79.7 17.81 93.42 31.53 93.42 48.39C93.42 65.25 79.7 78.97 62.84 78.97C45.98 78.97 32.26 65.26 32.26 48.39Z" fill="white"/>
<path d="M62.85 23.8101C49.27 23.8101 38.26 34.8201 38.26 48.4001C38.26 61.9801 49.27 72.9901 62.85 72.9901C76.43 72.9901 87.44 61.9801 87.44 48.4001C87.44 34.8101 76.43 23.8101 62.85 23.8101ZM70.27 53.3201C70.27 57.0701 68.59 58.9501 65.25 58.9501H64.77V62.7901H60.93V58.9501H57.57L55.43 57.2901V54.7901H64.71C65.35 54.7901 65.67 54.4701 65.67 53.8301V51.9701C65.67 51.3501 65.4 51.0001 64.87 50.9101L59.27 49.7901C56.71 49.3001 55.43 47.5801 55.43 44.6401V43.4601C55.43 39.7101 57.11 37.8301 60.45 37.8301H60.93V33.9901H64.77V37.8301H67.49L69.63 39.4901V41.9901H60.99C60.35 41.9901 60.03 42.3101 60.03 42.9501V44.6801C60.03 45.2801 60.3 45.6301 60.83 45.7401L66.43 46.8601C68.99 47.3901 70.27 49.1101 70.27 52.0101V53.3201Z" fill="#22C55E"/>
</svg>
