<svg width="108" height="63" viewBox="0 0 108 63" fill="none" xmlns="http://www.w3.org/2000/svg">
<path d="M15.8101 14.5701C13.6001 14.5701 11.8101 16.3601 11.8101 18.5701H44.05L44.9601 14.5701H15.8101Z" fill="white"/>
<path d="M40.74 33.1201L41.65 29.1201H4C1.79 29.1201 0 30.9101 0 33.1201H40.74Z" fill="white"/>
<path d="M15.5801 43.6802C13.3701 43.6802 11.5801 45.4702 11.5801 47.6802H37.4301L38.3401 43.6802H15.5801Z" fill="white"/>
<path d="M41.74 51.25H86.63C86.63 45.68 91.24 41.17 96.93 41.17V21.08C91.24 21.08 86.63 16.57 86.63 11H50.9L41.74 51.25ZM61.04 37.59H70.42C71.07 37.59 71.39 37.27 71.39 36.62V34.74C71.39 34.12 71.12 33.76 70.58 33.67L64.92 32.54C62.33 32.04 61.04 30.31 61.04 27.33V26.13C61.04 22.33 62.73 20.44 66.12 20.44H66.6V16.56H70.48V20.44H73.23L75.4 22.12V24.64H66.67C66.02 24.64 65.7 24.96 65.7 25.61V27.36C65.7 27.96 65.97 28.32 66.51 28.43L72.17 29.56C74.76 30.1 76.05 31.84 76.05 34.77V36.1C76.05 39.9 74.36 41.79 70.97 41.79H70.49V45.67H66.61V41.79H63.21L61.04 40.11V37.59Z" fill="#22C55E"/>
<path d="M101.93 6V56.25H40.61L39.25 62.25H107.93V0H53.39L52.03 6H101.93Z" fill="white"/>
</svg>
