<svg width="161" height="40" viewBox="0 0 161 40" fill="none" xmlns="http://www.w3.org/2000/svg">
<path d="M48.0125 24.15C43.8825 24.15 40.5325 27.5 40.5325 31.63C40.5325 35.76 43.8825 39.11 48.0125 39.11C52.1425 39.11 55.4925 35.76 55.4925 31.63C55.4925 27.5 52.1425 24.15 48.0125 24.15ZM48.0125 35.45C45.9025 35.45 44.1925 33.74 44.1925 31.63C44.1925 29.52 45.9025 27.81 48.0125 27.81C50.1225 27.81 51.8325 29.52 51.8325 31.63C51.8325 33.74 50.1225 35.45 48.0125 35.45Z" fill="white"/>
<path d="M48.0123 29.28C46.7223 29.28 45.6624 30.33 45.6624 31.63C45.6624 32.93 46.7123 33.98 48.0123 33.98C49.3123 33.98 50.3623 32.93 50.3623 31.63C50.3623 30.33 49.3023 29.28 48.0123 29.28Z" fill="white"/>
<path d="M144.573 24.15C140.443 24.15 137.093 27.5 137.093 31.63C137.093 35.76 140.443 39.11 144.573 39.11C148.703 39.11 152.053 35.76 152.053 31.63C152.043 27.5 148.703 24.15 144.573 24.15ZM144.573 35.45C142.463 35.45 140.753 33.74 140.753 31.63C140.753 29.52 142.463 27.81 144.573 27.81C146.683 27.81 148.393 29.52 148.393 31.63C148.393 33.74 146.683 35.45 144.573 35.45Z" fill="white"/>
<path d="M144.572 33.98C145.87 33.98 146.922 32.9279 146.922 31.63C146.922 30.3321 145.87 29.28 144.572 29.28C143.275 29.28 142.222 30.3321 142.222 31.63C142.222 32.9279 143.275 33.98 144.572 33.98Z" fill="white"/>
<path d="M32.7924 26.41H26.4724V23.04H37.0424V36.34H39.0724V32V31.2599V28.82V23.04H39.3624C40.0024 23.04 40.5324 23.57 40.5324 24.21V26.71C42.1324 24.28 44.8824 22.67 48.0124 22.67C52.1724 22.67 55.6624 25.52 56.6724 29.37H71.0124V23.9C71.0124 23.23 71.5524 22.68 72.2324 22.68H72.4724V23.85V32.29C72.4724 32.94 72.9924 33.46 73.6424 33.46H104.612C105.262 33.46 105.782 32.94 105.782 32.29V27.34H107.252L107.242 28.16C107.232 28.82 107.762 29.37 108.432 29.37H108.522H114.392V31.39H110.972V33.42H134.022V31.39H131.562V29.37H135.902C136.902 25.52 140.402 22.67 144.562 22.67C149.082 22.67 152.812 26.03 153.422 30.38H156.852H158.662C159.752 30.38 160.632 29.5 160.632 28.41V26.56V25.11V23.23H158.972V21.61V16.79C158.972 15.45 157.972 14.32 156.632 14.16L136.162 11.77C136.062 11.76 135.952 11.73 135.862 11.7C135.762 11.66 135.672 11.62 135.582 11.56L124.382 3.82996L124.362 3.82001C124.182 3.70001 123.972 3.61999 123.752 3.60999L111.252 2.89996C111.252 2.89996 111.252 2.89996 111.242 2.89996L109.662 2.81L109.262 2.78998C109.242 2.78998 109.222 2.78998 109.192 2.78998C108.592 2.78998 108.092 3.25999 108.062 3.85999L108.042 4.22998L107.422 15.5099L107.362 18.92H105.152L104.412 2.76996H105.722C106.092 2.76996 106.372 2.42 106.282 2.06L105.882 0.440002C105.822 0.180002 105.592 0 105.322 0H103.392H102.652H100.722C100.462 0 100.232 0.180002 100.162 0.440002L99.7624 2.06C99.6724 2.42 99.9524 2.76996 100.322 2.76996H101.482L100.742 18.92H98.5224V15.28C98.5224 14.64 98.0024 14.11 97.3524 14.11H96.9624H12.4324C12.1424 14.11 11.8724 14.23 11.6724 14.45L7.67241 18.91H0.622424C-0.00757569 18.91 -0.237583 19.74 0.302417 20.06L5.17241 22.94C5.27241 23 5.37242 23.03 5.49242 23.03H9.41243L6.39241 26.4H3.97243V27.05H0.00242919V28.53H3.97243V29.18H31.6424C32.2724 29.18 32.7924 28.67 32.7924 28.03V26.41ZM128.802 31.39H117.162V29.37H128.802V31.39ZM113.022 7.01996C113.022 6.36996 113.552 5.83997 114.202 5.83997C114.222 5.83997 114.252 5.83997 114.272 5.83997L122.472 6.31C122.932 6.34 123.382 6.49 123.762 6.75L129.532 10.73C130.072 11.1 129.802 11.94 129.152 11.94C129.142 11.94 129.142 11.94 129.132 11.94L114.172 11.58C113.532 11.56 113.022 11.04 113.022 10.4V7.01996ZM97.1424 26.41L98.0624 23.91L98.9824 26.41L101.652 26.5099L99.5524 28.16L100.282 30.73L98.0624 29.25L95.8424 30.73L96.5724 28.16L94.4724 26.5099L97.1424 26.41ZM88.2124 16.15H95.7924V18.92H88.2124V16.15ZM88.1924 26.41L89.1124 23.91L90.0324 26.41L92.7024 26.5099L90.6024 28.16L91.3324 30.73L89.1124 29.25L86.8924 30.73L87.6224 28.16L85.5224 26.5099L88.1924 26.41ZM77.1224 16.15H85.4324V18.92H77.1224V16.15ZM79.2524 26.41L80.1724 23.91L81.0924 26.41L83.7624 26.5099L81.6624 28.16L82.3924 30.73L80.1724 29.25L77.9524 30.73L78.6824 28.16L76.5824 26.5099L79.2524 26.41ZM66.0424 16.15H74.3524V18.92H66.0424V16.15ZM54.9624 16.15H63.2724V18.92H54.9624V16.15ZM43.8724 16.15H52.1824V18.92H43.8724V16.15ZM32.7924 16.15H41.1024V18.92H32.7924V16.15ZM21.7124 16.15H30.0224V18.92H21.7124V16.15ZM12.8824 16.15H18.9324V18.92H10.3924L12.8824 16.15ZM24.4424 26.41H9.13243L12.1524 23.04H24.4524V26.41H24.4424Z" fill="white"/>
</svg>
