<svg width="161" height="40" viewBox="0 0 161 40" fill="none" xmlns="http://www.w3.org/2000/svg">
<path d="M48.0125 24.14C43.8825 24.14 40.5325 27.4901 40.5325 31.6201C40.5325 35.7501 43.8825 39.1 48.0125 39.1C52.1425 39.1 55.4925 35.7501 55.4925 31.6201C55.4925 27.4901 52.1425 24.14 48.0125 24.14Z" fill="#101820"/>
<path d="M160.632 26.5601V25.11V23.23H158.972V21.61V16.79C158.972 15.45 157.972 14.32 156.632 14.16L136.162 11.77C136.062 11.76 135.952 11.73 135.862 11.7C135.772 11.67 135.672 11.6201 135.582 11.5601L124.382 3.83002L124.362 3.82001C124.182 3.70001 123.972 3.62005 123.752 3.61005H123.722L111.242 2.90002C111.242 2.90002 111.242 2.90002 111.232 2.90002L109.652 2.81006L109.252 2.79004C109.232 2.79004 109.212 2.79004 109.182 2.79004C108.582 2.79004 108.082 3.26005 108.052 3.86005L108.032 4.23004L107.412 15.51L107.352 18.92H105.142L104.402 2.77002H105.712C106.082 2.77002 106.362 2.42006 106.272 2.06006L105.872 0.440002C105.812 0.180002 105.582 0 105.312 0H103.382H102.642H100.712C100.452 0 100.222 0.180002 100.152 0.440002L99.7524 2.06006C99.6624 2.42006 99.9424 2.77002 100.312 2.77002H101.472L100.732 18.92H98.5124V15.28C98.5124 14.64 97.9924 14.11 97.3424 14.11H96.9024H12.4324C12.1424 14.11 11.8724 14.23 11.6724 14.45L7.67242 18.91H0.622419C-0.00758076 18.91 -0.237581 19.7401 0.30242 20.0601L5.17242 22.94C5.27242 23 5.37242 23.03 5.49242 23.03H9.41242L6.40242 26.4H3.98242V27.05H0.0124186V28.53H3.98242V29.1801H31.6424C32.2724 29.1801 32.7924 28.67 32.7924 28.03V26.41H26.4724V23.03H37.0424V36.33H39.0724V31.9901V31.26V28.82V23.03H39.3624C40.0024 23.03 40.5324 23.56 40.5324 24.2V26.7C42.1324 24.27 44.8824 22.66 48.0124 22.66C52.1724 22.66 55.6624 25.51 56.6724 29.36H71.0124V23.89C71.0124 23.22 71.5524 22.67 72.2324 22.67H72.4724V23.84V32.28C72.4724 32.93 72.9924 33.45 73.6424 33.45H104.612C105.262 33.45 105.782 32.93 105.782 32.28V27.33H107.252L107.242 28.15C107.232 28.81 107.762 29.36 108.432 29.36H108.522H114.392V31.38H110.972V33.41H134.022V31.38H131.562V29.36H135.902C136.902 25.51 140.402 22.66 144.562 22.66C149.082 22.66 152.812 26.0201 153.422 30.3701H156.852H158.662C159.752 30.3701 160.632 29.49 160.632 28.4V26.5601ZM129.122 11.94L114.162 11.58C113.522 11.56 113.012 11.04 113.012 10.4V7.01001C113.012 6.36001 113.542 5.83002 114.192 5.83002C114.212 5.83002 114.242 5.83002 114.262 5.83002L122.462 6.30005C122.922 6.33005 123.372 6.48005 123.752 6.74005L129.522 10.72C130.062 11.09 129.792 11.9301 129.142 11.9301C129.142 11.9401 129.132 11.94 129.122 11.94ZM21.7124 18.91V16.14H30.0224V18.91H21.7124ZM32.7924 16.14H41.1024V18.91H32.7924V16.14ZM95.7924 18.91H88.2124V16.14H95.7924V18.91ZM85.4324 18.91H77.1224V16.14H85.4324V18.91ZM74.3524 18.91H66.0424V16.14H74.3524V18.91ZM63.2724 18.91H54.9624V16.14H63.2724V18.91ZM52.1824 18.91H43.8724V16.14H52.1824V18.91ZM12.8824 16.14H18.9324V18.91H10.3924L12.8824 16.14ZM24.4324 26.4H9.12242L12.1424 23.03H24.4424V26.4H24.4324ZM128.802 31.38H117.162V29.36H128.802V31.38Z" fill="#101820"/>
<path d="M144.563 24.14C140.433 24.14 137.083 27.4901 137.083 31.6201C137.083 35.7501 140.433 39.1 144.563 39.1C148.693 39.1 152.043 35.7501 152.043 31.6201C152.043 27.4901 148.693 24.14 144.563 24.14Z" fill="#101820"/>
<path d="M48.0124 29.27C46.7224 29.27 45.6624 30.3201 45.6624 31.6201C45.6624 32.9201 46.7124 33.97 48.0124 33.97C49.3124 33.97 50.3624 32.9201 50.3624 31.6201C50.3624 30.3201 49.3024 29.27 48.0124 29.27Z" fill="#15803D"/>
<path d="M48.0124 27.79C45.9024 27.79 44.1924 29.5 44.1924 31.61C44.1924 33.72 45.9024 35.4301 48.0124 35.4301C50.1224 35.4301 51.8324 33.72 51.8324 31.61C51.8324 29.51 50.1224 27.79 48.0124 27.79ZM48.0124 33.96C46.7224 33.96 45.6624 32.91 45.6624 31.61C45.6624 30.31 46.7124 29.26 48.0124 29.26C49.3124 29.26 50.3624 30.31 50.3624 31.61C50.3624 32.91 49.3024 33.96 48.0124 33.96Z" fill="white"/>
<path d="M92.6925 26.5L90.0325 26.4L89.1125 23.89L88.1825 26.4L85.5225 26.5L87.6225 28.15L86.8925 30.71L89.1125 29.23L91.3225 30.71L90.6025 28.15L92.6925 26.5Z" fill="white"/>
<path d="M81.6625 28.15L83.7625 26.5L81.0925 26.4L80.1725 23.89L79.2525 26.4L76.5825 26.5L78.6825 28.15L77.9525 30.71L80.1725 29.23L82.3925 30.71L81.6625 28.15Z" fill="white"/>
<path d="M101.652 26.5L98.9824 26.4L98.0624 23.89L97.1424 26.4L94.4824 26.5L96.5724 28.15L95.8524 30.71L98.0624 29.23L100.282 30.71L99.5524 28.15L101.652 26.5Z" fill="white"/>
<path d="M156.203 16.9L139.613 14.96L134.843 14.84C135.033 16.6 135.193 18.87 135.143 21.19H139.623C141.123 20.48 142.793 20.07 144.563 20.07C146.333 20.07 148.003 20.48 149.503 21.19H156.203V16.9Z" fill="#22C55E"/>
<path d="M113.022 14.32V22.3H133.632C133.782 19.62 133.582 16.8401 133.362 14.8101L132.082 14.78L113.022 14.32ZM116.162 18.63L114.682 18.59L114.742 16.09L116.222 16.13L116.162 18.63Z" fill="#22C55E"/>
<path d="M134.812 25.08H135.062L135.072 25.07H134.812V25.08Z" fill="#EA0029"/>
<path d="M113.022 25.08H133.312V25.07H113.022V25.08Z" fill="#EA0029"/>
<path d="M113.022 25.07H133.312C133.472 24.19 133.572 23.25 133.622 22.3H113.012V25.07H113.022Z" fill="#15803D"/>
<path d="M134.812 25.07H135.072C136.222 23.41 137.792 22.07 139.632 21.2H135.152C135.122 22.51 135.013 23.83 134.812 25.07Z" fill="#15803D"/>
<path d="M156.202 21.61V21.2H149.502C150.602 21.72 151.602 22.41 152.472 23.23H156.202V21.61Z" fill="#15803D"/>
<path d="M144.562 29.27C143.272 29.27 142.212 30.3201 142.212 31.6201C142.212 32.9201 143.262 33.97 144.562 33.97C145.862 33.97 146.912 32.9201 146.912 31.6201C146.912 30.3201 145.862 29.27 144.562 29.27Z" fill="#15803D"/>
<path d="M144.562 27.79C142.452 27.79 140.742 29.5 140.742 31.61C140.742 33.72 142.452 35.4301 144.562 35.4301C146.672 35.4301 148.382 33.72 148.382 31.61C148.392 29.51 146.682 27.79 144.562 27.79ZM146.912 31.6201C146.912 32.9101 145.862 33.97 144.562 33.97C143.262 33.97 142.212 32.9201 142.212 31.6201C142.212 30.3201 143.262 29.27 144.562 29.27C145.862 29.27 146.912 30.3201 146.912 31.6201Z" fill="white"/>
<path d="M114.733 16.0788L114.673 18.5781L116.153 18.6133L116.212 16.114L114.733 16.0788Z" fill="#101820"/>
</svg>
