<svg width="151" height="43" viewBox="0 0 151 43" fill="none" xmlns="http://www.w3.org/2000/svg">
<path d="M56.4424 27.84C52.3124 27.84 48.9624 31.19 48.9624 35.32C48.9624 39.45 52.3124 42.8 56.4424 42.8C60.5724 42.8 63.9224 39.45 63.9224 35.32C63.9224 31.19 60.5724 27.84 56.4424 27.84ZM56.4424 39.15C54.3324 39.15 52.6224 37.44 52.6224 35.33C52.6224 33.22 54.3324 31.51 56.4424 31.51C58.5524 31.51 60.2624 33.22 60.2624 35.33C60.2724 37.43 58.5524 39.15 56.4424 39.15Z" fill="white"/>
<path d="M56.4423 32.97C55.1523 32.97 54.0923 34.02 54.0923 35.32C54.0923 36.61 55.1423 37.67 56.4423 37.67C57.7423 37.67 58.7923 36.62 58.7923 35.32C58.7923 34.03 57.7423 32.97 56.4423 32.97Z" fill="white"/>
<path d="M39.8223 27.84C35.6923 27.84 32.3423 31.19 32.3423 35.32C32.3423 39.45 35.6923 42.8 39.8223 42.8C43.9523 42.8 47.3023 39.45 47.3023 35.32C47.3023 31.19 43.9523 27.84 39.8223 27.84ZM39.8223 39.15C37.7123 39.15 36.0023 37.44 36.0023 35.33C36.0023 33.22 37.7123 31.51 39.8223 31.51C41.9323 31.51 43.6423 33.22 43.6423 35.33C43.6423 37.43 41.9323 39.15 39.8223 39.15Z" fill="white"/>
<path d="M39.8224 32.97C38.5324 32.97 37.4724 34.02 37.4724 35.32C37.4724 36.61 38.5224 37.67 39.8224 37.67C41.1224 37.67 42.1724 36.62 42.1724 35.32C42.1624 34.03 41.1124 32.97 39.8224 32.97Z" fill="white"/>
<path d="M149.422 29.41V23.28C149.422 21.78 148.422 20.46 146.972 20.06L131.342 15.7C131.132 15.64 130.962 15.49 130.882 15.28L127.212 6.17999C126.762 5.43999 125.962 4.98999 125.092 4.98999L112.222 4.64996C111.562 4.62996 111.012 5.16002 111.012 5.83002L111.002 3.02002H112.182C112.592 3.02002 112.882 2.64 112.792 2.25L112.362 0.47998C112.292 0.19998 112.042 0 111.752 0H105.772C105.482 0 105.232 0.19998 105.162 0.47998L104.732 2.25C104.632 2.64 104.932 3.02002 105.342 3.02002H106.642L104.122 18.95V22.61H100.242V18.97C100.242 18.33 99.7224 17.8 99.0724 17.8H98.8524H98.6324H14.1024C13.8124 17.8 13.5424 17.92 13.3424 18.14L9.34239 22.61H5.49242C5.38242 22.61 5.27241 22.64 5.17241 22.7L0.302417 25.58C-0.237583 25.9 -0.00757569 26.73 0.622424 26.73H8.6024L8.63237 30.5L2.8424 30.41L2.82238 31.8L1.18242 31.77L1.15239 33.8L5.74242 33.87L5.77239 32.11L9.20238 32.16L9.99242 32.97L26.5424 33.43L26.6224 30.66L17.2324 30.4L21.5124 26.72H27.2824V28.59C27.2824 28.93 27.5624 29.21 27.9024 29.21H29.6324V29.72L27.4724 42.14L29.4724 42.49L30.9624 33.89H30.9724C31.6524 29.62 35.3524 26.35 39.8024 26.35C43.5724 26.35 46.7924 28.69 48.1124 31.99C49.4324 28.69 52.6624 26.35 56.4224 26.35C61.3624 26.35 65.3824 30.37 65.3824 35.31C65.3824 36.29 65.2224 37.22 64.9324 38.1H67.1724H72.2924H87.2424C87.9124 38.1 88.4624 37.56 88.4624 36.88C88.4624 37.55 89.0124 38.1 89.6824 38.1H109.752C110.422 38.1 110.972 37.56 110.972 36.88V35.34C110.972 35.99 111.492 36.51 112.142 36.51H124.142C124.202 37.05 124.302 37.58 124.432 38.1H127.112C126.822 37.22 126.662 36.28 126.662 35.31C126.662 30.37 130.682 26.35 135.622 26.35C140.562 26.35 144.582 30.37 144.582 35.31C144.582 35.47 144.562 35.63 144.562 35.79H148.042C149.432 35.79 150.572 34.66 150.572 33.26V29.39H149.422V29.41ZM14.2124 30.33L12.6024 30.29L12.5724 26.74H18.3924L14.2124 30.33ZM20.6024 22.61H12.0724L14.5524 19.84H20.6024V22.61ZM31.6824 22.61H23.3724V19.84H31.6824V22.61ZM42.7624 22.61H34.4524V19.84H42.7624V22.61ZM53.8524 22.61H45.5424V19.84H53.8524V22.61ZM64.9324 22.61H56.6224V19.84H64.9324V22.61ZM67.7024 19.84H76.0124V22.61H67.7024V19.84ZM74.9724 34.42L72.7524 32.94L70.5324 34.42L71.2624 31.85L69.1624 30.2L71.8324 30.1L72.7524 27.6L73.6724 30.1L76.3424 30.2L74.2424 31.85L74.9724 34.42ZM83.9224 34.42L81.7024 32.94L79.4824 34.42L80.2124 31.85L78.1124 30.2L80.7824 30.1L81.7024 27.6L82.6224 30.1L85.2924 30.2L83.1924 31.85L83.9224 34.42ZM87.1024 22.61H78.7924V19.84H87.1024V22.61ZM89.8724 19.84H97.4524V22.61H89.8724V19.84ZM97.4724 34.42L95.2524 32.94L93.0324 34.42L93.7624 31.85L91.6624 30.2L94.3324 30.1L95.2524 27.6L96.1724 30.1L98.8424 30.2L96.7424 31.85L97.4724 34.42ZM106.432 34.42L104.212 32.94L101.992 34.42L102.722 31.85L100.622 30.2L103.292 30.1L104.212 27.6L105.132 30.1L107.802 30.2L105.702 31.85L106.432 34.42ZM125.232 16.43L116.202 15.61C115.632 15.51 115.222 15.02 115.222 14.44V8.95001C115.222 8.29001 115.752 7.76001 116.412 7.76001H124.082C124.582 7.76001 125.022 8.06998 125.202 8.53998L126.742 14.67C126.982 15.62 126.212 16.52 125.232 16.43Z" fill="white"/>
<path d="M135.642 27.84C131.512 27.84 128.162 31.19 128.162 35.32C128.162 39.45 131.512 42.8 135.642 42.8C139.772 42.8 143.122 39.45 143.122 35.32C143.122 31.19 139.772 27.84 135.642 27.84ZM135.642 39.15C133.532 39.15 131.822 37.44 131.822 35.33C131.822 33.22 133.532 31.51 135.642 31.51C137.752 31.51 139.462 33.22 139.462 35.33C139.462 37.43 137.752 39.15 135.642 39.15Z" fill="white"/>
<path d="M135.642 32.97C134.352 32.97 133.292 34.02 133.292 35.32C133.292 36.61 134.342 37.67 135.642 37.67C136.942 37.67 137.992 36.62 137.992 35.32C137.982 34.03 136.932 32.97 135.642 32.97Z" fill="white"/>
</svg>
