<svg width="59" height="103" viewBox="0 0 59 103" fill="none" xmlns="http://www.w3.org/2000/svg">
<path d="M55.0227 62.81L38.8427 36.72L37.8627 35.15L36.4027 36.29L29.7127 41.54L28.4027 42.57L29.4327 43.88L48.2727 67.73L49.2827 69L50.5727 68.03L54.6027 65.02L55.8227 64.11L55.0227 62.81Z" fill="#22C55E"/>
<mask id="mask0_151_537" style="mask-type:luminance" maskUnits="userSpaceOnUse" x="28" y="35" width="28" height="34">
<path d="M55.0227 62.81L38.8427 36.72L37.8627 35.15L36.4027 36.29L29.7127 41.54L28.4027 42.57L29.4327 43.88L48.2727 67.73L49.2827 69L50.5727 68.03L54.6027 65.02L55.8227 64.11L55.0227 62.81Z" fill="white"/>
</mask>
<g mask="url(#mask0_151_537)">
<path d="M29.3128 105.35C14.0428 105.35 1.57275 95.57 -1.70725 81.01C-3.28725 73.99 -2.42725 67.87 0.922751 62.31C2.97275 58.92 5.82273 56.51 8.34273 54.6C8.98273 54.08 9.86272 53.48 10.8927 52.78C14.2227 50.52 18.7427 47.44 18.7827 44.07C18.7827 41.79 17.9727 40.88 14.9727 38.69C14.2227 38.14 13.5727 36.99 14.1427 35.54C14.5327 34.25 15.2927 32.62 29.8327 31.76L39.3327 30.19C40.4027 29.11 41.7827 28.42 43.2927 28.25C43.5527 28.22 43.8027 28.21 44.0427 28.21C44.8727 28.21 45.7127 28.37 46.5127 28.69L49.3028 29.79L47.6627 32.3C46.7627 33.68 46.3628 35.35 46.5628 36.99C46.6228 37.51 46.7527 38.06 46.9527 38.6L46.9928 38.7L47.0927 39.08C47.2827 39.69 47.4327 40.41 47.5127 41.11C47.8827 44.28 47.0027 47.4 45.0327 49.91C43.0527 52.41 40.2228 54 37.0528 54.38C36.5928 54.43 36.1328 54.46 35.6828 54.46C35.5128 54.46 35.3428 54.46 35.1728 54.45C34.1328 56.85 31.5327 60.65 25.2627 66.22C23.0927 68.67 22.0727 71.27 22.1427 74.17C22.2627 79.24 26.5628 83.37 31.7428 83.37C32.6728 83.37 33.6127 83.23 34.5427 82.96C38.0027 81.96 40.2027 79.64 41.2627 75.87L41.3527 75.53L41.9627 73.3L44.2227 73.79C45.7927 74.13 47.3728 74.43 48.8628 74.71L49.1228 74.76C51.6128 75.22 54.4327 75.75 57.0127 76.78L58.7428 77.48L58.5227 79.34C58.5227 79.39 58.5128 79.47 58.5028 79.56C57.3228 88.87 49.8727 104.81 29.4127 105.38H29.3827H29.3128V105.35Z" fill="#15803D"/>
<path d="M44.0427 30.64C44.5727 30.64 45.1027 30.74 45.6227 30.95C44.4027 32.81 43.8727 35.05 44.1327 37.26C44.2127 37.97 44.3927 38.7 44.6627 39.43L44.7427 39.71C44.9127 40.26 45.0327 40.83 45.1027 41.39C45.4027 43.91 44.7027 46.4 43.1227 48.39C41.5527 50.38 39.3027 51.64 36.7727 51.94C36.4127 51.98 36.0427 52 35.6827 52C35.0227 52 34.3427 51.93 33.6627 51.78L33.3927 51.72L33.3627 51.99C33.2627 52.96 32.2627 56.73 23.5227 64.46C20.8927 67.39 19.6027 70.66 19.6827 74.2C19.8327 80.59 25.2327 85.79 31.7227 85.79C32.8827 85.79 34.0527 85.62 35.2027 85.29C39.4727 84.05 42.3027 81.1 43.6027 76.52C43.6327 76.4 43.6628 76.28 43.6928 76.16C45.2428 76.49 46.8127 76.79 48.4027 77.09C50.9427 77.56 53.6527 78.05 56.0927 79.03C56.0827 79.09 56.0827 79.15 56.0727 79.21C54.9927 87.77 48.1427 102.39 29.3327 102.91H29.2827C15.1727 102.91 3.67272 93.89 0.652716 80.47C-0.787284 74.09 -0.017257 68.56 2.99274 63.57C4.82274 60.53 7.46273 58.32 9.79273 56.55C10.4227 56.04 11.2728 55.46 12.2528 54.79C16.0028 52.24 21.1428 48.75 21.1928 44.1C21.2028 40.55 19.5127 39 16.3727 36.72C16.2627 36.64 16.3927 36.4 16.4027 36.36C16.6627 35.49 23.5528 34.58 30.0628 34.2L40.5527 32.46L40.7927 32.17C41.4927 31.33 42.4727 30.8 43.5427 30.67C43.7327 30.65 43.8927 30.64 44.0427 30.64ZM44.0427 25.76C43.7027 25.76 43.3627 25.78 43.0227 25.82C41.2327 26.03 39.5727 26.76 38.2127 27.9L29.5527 29.33C26.1927 29.53 22.7927 29.87 20.2027 30.26C16.8427 30.76 13.0527 31.33 11.8527 34.65C10.8527 37.21 11.9427 39.5 13.4927 40.64C16.3427 42.71 16.3427 43 16.3327 44.08C16.3127 46.13 11.9027 49.13 9.53272 50.74C8.46272 51.47 7.56273 52.08 6.79273 52.7C4.10273 54.74 1.0627 57.33 -1.1773 61.04C-4.8173 67.08 -5.80728 73.98 -4.09728 81.54C-0.557284 97.24 12.8627 107.79 29.3027 107.79H29.3727H29.4927C51.6027 107.17 59.6628 89.91 60.9428 79.82C60.9528 79.72 60.9627 79.61 60.9727 79.51L61.3827 75.88L57.9227 74.49C55.1127 73.36 52.1527 72.81 49.5527 72.33L49.3227 72.29C47.9227 72.03 46.2928 71.72 44.7528 71.39L40.2227 70.41L39.0028 74.88L38.9428 75.12L38.9227 75.2C38.0827 78.17 36.5227 79.84 33.8727 80.61C33.1627 80.81 32.4528 80.92 31.7528 80.92C27.8928 80.92 24.6827 77.86 24.6027 74.1C24.5527 71.89 25.3427 69.87 27.0227 67.93C31.7327 63.74 34.9727 60.04 36.7327 56.86C36.9427 56.84 37.1527 56.82 37.3627 56.8C41.1827 56.35 44.5927 54.44 46.9727 51.42C49.3527 48.4 50.4127 44.64 49.9627 40.82C49.8627 40 49.6927 39.17 49.4527 38.36L49.3927 38.15L49.3327 37.95L49.2627 37.75C49.1327 37.38 49.0428 37.03 49.0028 36.69C48.8728 35.62 49.1327 34.53 49.7227 33.63L52.9327 28.73L47.5327 26.45L47.4827 26.43L47.4227 26.41C46.3227 25.97 45.1827 25.76 44.0427 25.76Z" fill="#15803D"/>
</g>
<path d="M58.6727 62.72C58.2627 61.86 57.7227 60.96 57.0327 59.97C56.5027 59.21 56.2327 58.99 55.8327 58.99C55.5527 58.99 55.1927 59.09 54.6427 59.28C52.5227 59.95 47.3827 62.24 45.5227 69.11C45.0827 70.48 44.7427 71.92 44.4227 73.31C44.1727 74.37 43.9227 75.46 43.6227 76.53C42.3227 81.11 39.5027 84.06 35.2227 85.3C34.0727 85.63 32.9027 85.8 31.7427 85.8C25.2527 85.8 19.8427 80.6 19.7027 74.21C19.6227 70.67 20.9027 67.4 23.5427 64.47C32.2827 56.74 33.2827 52.97 33.3827 52L33.4127 51.73L33.6827 51.79C34.3627 51.94 35.0427 52.01 35.7027 52.01C36.0627 52.01 36.4327 51.99 36.7927 51.95C39.3127 51.65 41.5627 50.39 43.1427 48.4C44.7127 46.41 45.4127 43.92 45.1227 41.4C45.0527 40.84 44.9327 40.27 44.7627 39.72L44.6827 39.44C44.4127 38.71 44.2427 37.98 44.1527 37.27C43.8927 35.06 44.4227 32.82 45.6427 30.96C45.6327 30.96 45.6227 30.96 45.6227 30.95C48.4827 26.31 49.4927 20.55 47.9327 14.89C45.4427 5.9 37.2827 0 28.3827 0C26.5927 0 24.7727 0.240005 22.9527 0.740005C12.1427 3.73001 5.81271 14.91 8.80271 25.72C10.0727 30.32 12.8327 34.1 16.4127 36.71C16.4127 36.72 16.4127 36.72 16.4227 36.73C19.5627 39.02 21.2527 40.56 21.2427 44.11C21.1927 48.76 16.0527 52.25 12.3027 54.8C11.3127 55.47 10.4627 56.05 9.84268 56.56C7.50268 58.33 4.8727 60.55 3.0427 63.58C0.0326967 68.58 -0.73733 74.1 0.70267 80.48C3.72267 93.9 15.2327 102.92 29.3327 102.92H29.3827C48.1927 102.39 55.0427 87.77 56.1227 79.22C56.3427 77.48 56.3127 75.66 56.2727 73.91C56.2527 73.04 56.2427 72.17 56.2527 71.3C56.2927 68.28 57.0727 65.82 58.6227 63.79C58.7627 63.56 58.8027 62.99 58.6727 62.72ZM34.2627 19.58L33.4227 20.66L34.1027 21.85L37.7627 28.27L30.8127 25.75L29.5327 25.29L28.6127 26.3L23.6327 31.77L23.8727 24.38L23.9227 23.02L22.6827 22.46L15.9427 19.42L23.0427 17.37L24.3527 16.99L24.5027 15.63L25.3127 8.28L29.4527 14.4L30.2227 15.53L31.5627 15.25L38.8027 13.75L34.2627 19.58Z" fill="#101820"/>
<path d="M39.4127 42.06C39.6527 44.13 38.1727 46.01 36.1027 46.26C34.0327 46.5 32.1527 45.02 31.9027 42.95C31.6627 40.88 33.1427 39 35.2127 38.75C37.2927 38.51 39.1727 39.99 39.4127 42.06Z" fill="#22C55E"/>
</svg>
