<svg width="65" height="109" viewBox="0 0 65 109" fill="none" xmlns="http://www.w3.org/2000/svg">
<path d="M52.3187 73.51C51.8787 73.51 51.4387 73.31 51.1387 72.94L30.2587 46.52C30.0087 46.21 29.8987 45.81 29.9487 45.41C29.9987 45.01 30.1987 44.65 30.5087 44.41L39.9687 36.99C40.2387 36.78 40.5587 36.67 40.8987 36.67C40.9887 36.67 41.0687 36.68 41.1587 36.69C41.5787 36.76 41.9487 37.01 42.1687 37.38L60.1287 66.34C60.5387 67 60.3787 67.87 59.7487 68.33L53.2087 73.22C52.9487 73.41 52.6287 73.51 52.3187 73.51Z" fill="white"/>
<path d="M40.8987 38.16L41.8787 39.74L58.0587 65.83L58.8587 67.12L57.6387 68.03L53.6087 71.04L52.3087 72.01L51.3087 70.74L32.4687 46.89L31.4387 45.58L32.7487 44.55L39.4387 39.3L40.8987 38.16ZM40.8987 35.16C40.2287 35.16 39.5787 35.38 39.0487 35.8L37.5887 36.95L30.8987 42.2L29.5887 43.23C28.9587 43.72 28.5587 44.44 28.4587 45.24C28.3687 46.03 28.5887 46.83 29.0787 47.45L30.1086 48.76L48.9487 72.61L49.9487 73.88C50.5387 74.63 51.4187 75.02 52.3087 75.02C52.9387 75.02 53.5687 74.83 54.0987 74.42L55.3987 73.45L59.4287 70.44L60.6487 69.53C61.8987 68.6 62.2187 66.87 61.3987 65.55L60.5987 64.26L44.4186 38.17L43.4387 36.59C42.9887 35.86 42.2487 35.37 41.4087 35.22C41.2487 35.17 41.0687 35.16 40.8987 35.16Z" fill="white"/>
<path d="M58.0587 65.82L41.8787 39.73L40.8987 38.16L39.4387 39.3L32.7487 44.55L31.4387 45.58L32.4688 46.89L51.3087 70.74L52.3187 72.01L53.6087 71.04L57.6387 68.03L58.8587 67.12L58.0587 65.82Z" fill="white"/>
<mask id="mask0_151_551" style="mask-type:luminance" maskUnits="userSpaceOnUse" x="31" y="38" width="28" height="35">
<path d="M58.0587 65.82L41.8787 39.73L40.8987 38.16L39.4387 39.3L32.7487 44.55L31.4387 45.58L32.4688 46.89L51.3087 70.74L52.3187 72.01L53.6087 71.04L57.6387 68.03L58.8587 67.12L58.0587 65.82Z" fill="white"/>
</mask>
<g mask="url(#mask0_151_551)">
<path d="M32.3487 109.86C16.3587 109.86 3.29867 99.61 -0.131326 84.35C-1.80133 76.93 -0.881329 70.45 2.67867 64.55C4.85867 60.94 7.83872 58.41 10.4787 56.42C11.1187 55.89 12.0387 55.27 13.0887 54.55C15.9587 52.6 20.2987 49.65 20.3187 47.07C20.3187 45.57 20.0487 45.04 17.1187 42.92C15.9587 42.06 14.9087 40.29 15.7487 38.07C16.4487 35.82 18.1587 34.16 32.6987 33.29L41.6687 31.8C42.9187 30.68 44.4887 29.97 46.1587 29.77C46.4887 29.73 46.7887 29.72 47.0887 29.72C48.1087 29.72 49.1287 29.92 50.1087 30.3L52.8987 31.4C53.3187 31.57 53.6387 31.91 53.7787 32.34C53.9187 32.77 53.8487 33.24 53.6087 33.62L51.9687 36.13C51.2587 37.22 50.9487 38.53 51.0987 39.82C51.1487 40.23 51.2487 40.65 51.4087 41.09C51.4087 41.09 51.4787 41.28 51.4887 41.32L51.5887 41.7C51.7987 42.36 51.9587 43.16 52.0587 43.95C52.4787 47.52 51.4887 51.03 49.2587 53.85C47.0387 56.67 43.8487 58.45 40.2787 58.88C39.9087 58.92 39.5387 58.95 39.1587 58.96C37.5087 62.16 34.2187 65.97 29.3587 70.28C27.4887 72.41 26.6087 74.66 26.6687 77.14C26.7687 81.41 30.3987 84.88 34.7687 84.88C35.5587 84.88 36.3587 84.76 37.1587 84.53C40.1187 83.67 41.9287 81.75 42.8587 78.47L42.9387 78.16L43.5587 75.91C43.7387 75.25 44.3387 74.81 45.0087 74.81C45.1087 74.81 45.2187 74.82 45.3287 74.84L47.5887 75.33C49.1487 75.67 50.7187 75.96 52.1887 76.24L52.4487 76.29C55.0187 76.77 57.9087 77.31 60.6187 78.4L62.3587 79.1C62.9887 79.35 63.3687 79.99 63.2887 80.67L63.0787 82.49C63.0687 82.57 63.0587 82.67 63.0487 82.78C61.8187 92.56 53.9887 109.3 32.5187 109.9C32.5087 109.9 32.4587 109.9 32.4387 109.9H32.3487V109.86Z" fill="white"/>
<path d="M47.0787 31.21C47.9087 31.21 48.7487 31.37 49.5487 31.69L52.3387 32.79L50.6987 35.3C49.7987 36.68 49.3987 38.35 49.5987 39.99C49.6587 40.51 49.7887 41.06 49.9887 41.6L50.0287 41.7L50.1287 42.08C50.3187 42.69 50.4687 43.41 50.5487 44.11C50.9187 47.28 50.0387 50.4 48.0687 52.91C46.0887 55.41 43.2587 57 40.0887 57.38C39.6287 57.43 39.1687 57.46 38.7187 57.46C38.5487 57.46 38.3787 57.46 38.2087 57.45C37.1687 59.85 34.5687 63.65 28.2887 69.22C26.1187 71.67 25.0987 74.27 25.1687 77.17C25.2887 82.24 29.5887 86.37 34.7687 86.37C35.6987 86.37 36.6387 86.23 37.5687 85.96C41.0287 84.96 43.2287 82.64 44.2887 78.87L44.3787 78.53L44.9887 76.3L47.2487 76.79C48.8187 77.13 50.3987 77.43 51.8887 77.71L52.1487 77.76C54.6387 78.22 57.4587 78.75 60.0387 79.78L61.7687 80.48L61.5487 82.34C61.5487 82.39 61.5387 82.47 61.5287 82.56C60.3487 91.87 52.8987 107.81 32.4387 108.38H32.4087H32.3287C17.0587 108.38 4.5887 98.6 1.3087 84.04C-0.2713 77.02 0.588705 70.9 3.9387 65.34C5.9887 61.95 8.83869 59.54 11.3587 57.63C11.9987 57.11 12.8787 56.51 13.9087 55.81C17.2387 53.55 21.7587 50.47 21.7987 47.1C21.7987 44.82 20.9887 43.91 17.9887 41.72C17.2387 41.17 16.5887 40.02 17.1587 38.57C17.5487 37.28 18.3087 35.65 32.8487 34.79L42.3487 33.22C43.4087 32.14 44.7987 31.45 46.3087 31.28C46.5887 31.22 46.8387 31.21 47.0787 31.21ZM47.0787 28.21C46.7087 28.21 46.3587 28.23 45.9887 28.27C44.1587 28.49 42.4287 29.23 41.0087 30.38L32.5287 31.78C19.5087 32.56 15.5387 33.82 14.3287 37.57C13.2987 40.37 14.5287 42.87 16.2187 44.12C18.8187 46.01 18.8187 46.21 18.8087 47.08C18.7887 48.85 14.3587 51.86 12.2387 53.31C11.1787 54.03 10.2587 54.66 9.51872 55.26C6.77872 57.34 3.67872 59.97 1.38872 63.78C-2.38128 70.04 -3.36127 76.88 -1.60127 84.69C1.98873 100.65 15.6387 111.37 32.3487 111.37H32.4287C32.4587 111.37 32.4887 111.37 32.5187 111.37C55.0387 110.74 63.2387 93.19 64.5287 82.93C64.5387 82.83 64.5587 82.71 64.5587 82.61L64.7687 80.83C64.9287 79.49 64.1587 78.2 62.9087 77.7L61.1787 77C58.3287 75.86 55.3587 75.3 52.7487 74.82L52.4687 74.77C50.9987 74.5 49.4287 74.2 47.9087 73.87L45.6487 73.38C45.4387 73.33 45.2187 73.31 45.0187 73.31C43.6987 73.31 42.4887 74.19 42.1287 75.52L41.5187 77.75L41.4287 78.09C40.6387 80.84 39.2087 82.38 36.7687 83.09C36.1087 83.28 35.4487 83.38 34.7987 83.38C31.2387 83.38 28.2787 80.57 28.1987 77.11C28.1487 75.02 28.8687 73.19 30.4587 71.35C35.0387 67.27 38.2687 63.6 40.0987 60.42C40.2187 60.41 40.3487 60.4 40.4687 60.38C44.4387 59.91 47.9787 57.92 50.4487 54.79C52.9187 51.66 54.0287 47.75 53.5587 43.78C53.4587 42.92 53.2787 42.05 53.0387 41.26L52.9487 40.93C52.9287 40.85 52.8987 40.77 52.8687 40.69L52.8287 40.59C52.7087 40.26 52.6287 39.95 52.5987 39.66C52.4887 38.72 52.7087 37.76 53.2287 36.96L54.8687 34.45C55.3587 33.69 55.4887 32.76 55.2187 31.9C54.9487 31.04 54.2987 30.35 53.4587 30.02L50.6687 28.92C49.4887 28.44 48.2887 28.21 47.0787 28.21Z" fill="white"/>
<path d="M47.0787 33.65C47.6087 33.65 48.1388 33.75 48.6588 33.96C47.4388 35.82 46.9087 38.06 47.1687 40.27C47.2487 40.98 47.4287 41.71 47.6987 42.44L47.7788 42.72C47.9488 43.27 48.0687 43.84 48.1387 44.4C48.4387 46.92 47.7388 49.41 46.1588 51.4C44.5888 53.39 42.3387 54.65 39.8087 54.95C39.4487 54.99 39.0788 55.01 38.7188 55.01C38.0588 55.01 37.3787 54.94 36.6987 54.79L36.4287 54.73L36.3988 55C36.2988 55.97 35.2987 59.74 26.5587 67.47C23.9287 70.4 22.6388 73.67 22.7188 77.21C22.8688 83.6 28.2687 88.8 34.7587 88.8C35.9187 88.8 37.0887 88.63 38.2387 88.3C42.5087 87.06 45.3387 84.11 46.6387 79.53C46.6687 79.41 46.6988 79.29 46.7288 79.17C48.2788 79.5 49.8487 79.8 51.4387 80.1C53.9787 80.57 56.6887 81.06 59.1287 82.04C59.1187 82.1 59.1187 82.16 59.1087 82.22C58.0287 90.78 51.1787 105.4 32.3687 105.92H32.3187C18.2087 105.92 6.70873 96.9 3.68873 83.48C2.24873 77.1 3.01875 71.57 6.02875 66.58C7.85875 63.54 10.4987 61.33 12.8287 59.56C13.4587 59.05 14.3088 58.47 15.2888 57.8C19.0388 55.25 24.1788 51.76 24.2288 47.11C24.2388 43.56 22.5488 42.01 19.4088 39.73C19.2988 39.65 19.4287 39.41 19.4387 39.37C19.6987 38.5 26.5888 37.59 33.0988 37.21L43.5888 35.47L43.8287 35.18C44.5287 34.34 45.5087 33.81 46.5787 33.68C46.7687 33.66 46.9287 33.65 47.0787 33.65ZM47.0787 28.77C46.7387 28.77 46.3987 28.79 46.0587 28.83C44.2687 29.04 42.6087 29.77 41.2487 30.91L32.5888 32.34C29.2288 32.54 25.8287 32.88 23.2387 33.27C19.8787 33.77 16.0887 34.34 14.8887 37.66C13.8887 40.22 14.9788 42.51 16.5288 43.65C19.3788 45.72 19.3787 46.01 19.3687 47.09C19.3487 49.14 14.9387 52.14 12.5687 53.75C11.4987 54.48 10.5987 55.09 9.82874 55.71C7.13874 57.75 4.09871 60.34 1.85871 64.05C-1.78129 70.09 -2.77127 76.99 -1.06127 84.55C2.47873 100.25 15.8988 110.8 32.3388 110.8H32.4088H32.5288C54.6388 110.18 62.6988 92.92 63.9788 82.83C63.9888 82.73 63.9987 82.62 64.0087 82.52L64.4187 78.89L60.9587 77.5C58.1487 76.37 55.1888 75.82 52.5888 75.34L52.3587 75.3C50.9587 75.04 49.3288 74.73 47.7888 74.4L43.2587 73.42L42.0388 77.89L41.9788 78.13L41.9587 78.21C41.1187 81.18 39.5588 82.85 36.9088 83.62C36.1988 83.82 35.4888 83.93 34.7888 83.93C30.9288 83.93 27.7187 80.87 27.6387 77.11C27.5887 74.9 28.3787 72.88 30.0587 70.94C34.7687 66.75 38.0087 63.05 39.7687 59.87C39.9787 59.85 40.1888 59.83 40.3988 59.81C44.2188 59.36 47.6287 57.45 50.0087 54.43C52.3887 51.41 53.4487 47.65 52.9987 43.83C52.8987 43.01 52.7287 42.18 52.4887 41.37L52.4287 41.16L52.3687 40.96L52.2987 40.76C52.1687 40.39 52.0788 40.04 52.0388 39.7C51.9088 38.63 52.1687 37.54 52.7587 36.64L55.9688 31.74L50.5687 29.46L50.5187 29.44L50.4587 29.42C49.3587 28.98 48.2187 28.77 47.0787 28.77Z" fill="white" stroke="white" stroke-width="3" stroke-miterlimit="10" stroke-linecap="round" stroke-linejoin="round"/>
</g>
<path d="M32.3488 107.42C17.5288 107.42 5.42877 97.93 2.24877 83.81C0.718766 77.04 1.54879 71.15 4.76879 65.81C6.72879 62.55 9.49878 60.22 11.9488 58.37C12.5688 57.86 13.4287 57.27 14.4187 56.6C17.9487 54.2 22.7188 50.96 22.7588 47.1C22.7588 44.29 21.5488 43.12 18.5588 40.95C18.5088 40.92 18.4688 40.88 18.4288 40.84C14.4688 37.92 11.6888 33.87 10.3788 29.13C7.16877 17.54 13.9888 5.51 25.5788 2.31C27.4888 1.78 29.4488 1.52002 31.4088 1.52002C41.1688 1.52002 49.7988 8.10001 52.4088 17.51C53.9888 23.22 53.1388 29.41 50.0788 34.52C50.0388 34.62 49.9888 34.71 49.9388 34.8C48.9088 36.37 48.4688 38.25 48.6888 40.12C48.7588 40.72 48.9088 41.33 49.1388 41.95C49.1488 41.99 49.1688 42.03 49.1788 42.07L49.2588 42.35C49.4388 42.95 49.5788 43.6 49.6588 44.25C49.9988 47.17 49.1888 50.05 47.3688 52.35C45.5488 54.66 42.9388 56.12 40.0188 56.46C39.5988 56.51 39.1788 56.53 38.7588 56.53C38.3888 56.53 38.0088 56.51 37.6388 56.47C36.8888 58.65 34.5387 62.47 27.6687 68.56C25.3387 71.17 24.1988 74.08 24.2688 77.2C24.3988 82.78 29.1288 87.33 34.8088 87.32C35.8288 87.32 36.8588 87.17 37.8788 86.88C41.6788 85.78 44.0888 83.25 45.2488 79.14C45.5488 78.1 45.7988 76.98 46.0288 75.99C46.3588 74.55 46.6988 73.09 47.1588 71.67C49.1988 64.15 54.8988 61.61 57.2588 60.87C57.9388 60.64 58.4188 60.51 58.8988 60.51C60.1988 60.51 60.8788 61.48 61.3288 62.13C62.0688 63.19 62.6388 64.15 63.0888 65.09C63.4688 65.87 63.3588 67.05 62.8488 67.71C61.4988 69.48 60.8288 71.64 60.7888 74.33C60.7788 75.18 60.7888 76.04 60.8088 76.89C60.8388 78.7 60.8788 80.57 60.6488 82.42C59.5088 91.45 52.2888 106.88 32.4688 107.43C32.4588 107.43 32.4388 107.43 32.4288 107.43H32.3488V107.42Z" fill="white"/>
<path d="M31.3887 3C40.2887 3 48.4487 8.90001 50.9387 17.89C52.5087 23.56 51.4887 29.31 48.6287 33.95C48.6387 33.95 48.6487 33.95 48.6487 33.96C47.4287 35.82 46.8987 38.06 47.1587 40.27C47.2387 40.98 47.4187 41.71 47.6887 42.44L47.7687 42.72C47.9387 43.28 48.0587 43.84 48.1287 44.4C48.4287 46.92 47.7287 49.41 46.1487 51.4C44.5787 53.39 42.3287 54.65 39.7987 54.95C39.4387 54.99 39.0687 55.01 38.7087 55.01C38.0487 55.01 37.3687 54.94 36.6887 54.79L36.4187 54.73L36.3887 55C36.2887 55.97 35.2887 59.74 26.5487 67.47C23.9187 70.4 22.6287 73.67 22.7087 77.21C22.8587 83.6 28.2587 88.8 34.7487 88.8C35.9087 88.8 37.0787 88.63 38.2287 88.3C42.4987 87.06 45.3287 84.11 46.6287 79.53C46.9287 78.47 47.1887 77.37 47.4287 76.31C47.7487 74.92 48.0887 73.48 48.5287 72.11C50.3887 65.24 55.5287 62.95 57.6487 62.28C58.1987 62.1 58.5587 61.99 58.8387 61.99C59.2387 61.99 59.5087 62.21 60.0387 62.97C60.7287 63.96 61.2587 64.86 61.6787 65.72C61.8087 65.99 61.7687 66.56 61.5987 66.78C60.0487 68.81 59.2687 71.27 59.2287 74.29C59.2187 75.16 59.2287 76.03 59.2487 76.9C59.2787 78.65 59.3187 80.47 59.0987 82.21C58.0187 90.77 51.1687 105.39 32.3587 105.91H32.3087C18.1987 105.91 6.6987 96.89 3.6787 83.47C2.2387 77.09 3.00872 71.56 6.01872 66.57C7.84872 63.53 10.4887 61.32 12.8187 59.55C13.4487 59.04 14.2987 58.46 15.2787 57.79C19.0287 55.24 24.1687 51.75 24.2187 47.1C24.2287 43.55 22.5387 42 19.3987 39.72C19.3887 39.72 19.3987 39.71 19.3887 39.7C15.8087 37.09 13.0487 33.31 11.7787 28.71C8.78873 17.9 15.1287 6.72004 25.9287 3.73004C27.7787 3.24004 29.5987 3 31.3887 3ZM31.3887 0C29.2887 0 27.1987 0.290006 25.1587 0.850006C12.7787 4.28001 5.48869 17.14 8.91869 29.52C10.3187 34.56 13.2687 38.87 17.4687 41.99C17.5287 42.04 17.5887 42.09 17.6587 42.14C20.7287 44.37 21.2687 45.11 21.2587 47.1C21.2287 50.15 16.6587 53.26 13.6287 55.31L13.5887 55.34C12.5887 56.02 11.7187 56.62 10.9987 57.19C8.4487 59.13 5.56875 61.57 3.47875 65.02C0.0487466 70.71 -0.831266 76.96 0.778734 84.13C4.11873 98.95 16.7987 108.91 32.3387 108.91C32.3687 108.91 32.4487 108.91 32.4687 108.91C53.3087 108.33 60.8987 92.09 62.0987 82.59C62.3487 80.63 62.3087 78.71 62.2787 76.85C62.2587 75.98 62.2487 75.16 62.2587 74.34C62.2887 71.95 62.8487 70.13 64.0187 68.6C64.8687 67.49 65.0387 65.73 64.4187 64.42C63.9387 63.41 63.3187 62.38 62.5387 61.25C62.0287 60.51 60.9587 58.99 58.8787 58.99C58.1287 58.99 57.4487 59.19 56.7587 59.42C54.1587 60.24 47.9487 63.03 45.6887 71.25C45.2187 72.71 44.8787 74.18 44.5487 75.61C44.3087 76.65 44.0587 77.71 43.7787 78.71C42.7687 82.28 40.6887 84.48 37.4387 85.42C36.5587 85.67 35.6687 85.8 34.7887 85.8C29.9087 85.8 25.8587 81.92 25.7487 77.14C25.6887 74.4 26.6587 71.93 28.7087 69.6C34.6187 64.35 37.3887 60.61 38.5987 58.01C38.6487 58.01 38.6987 58.01 38.7387 58.01C39.2187 58.01 39.6987 57.98 40.1787 57.93C43.4987 57.54 46.4587 55.88 48.5287 53.26C50.5987 50.64 51.5187 47.37 51.1287 44.05C51.0487 43.33 50.8887 42.6 50.6787 41.89L50.6187 41.66C50.5987 41.58 50.5687 41.49 50.5387 41.41C50.3487 40.9 50.2287 40.4 50.1787 39.92C49.9987 38.41 50.3587 36.88 51.1987 35.6C51.2887 35.46 51.3687 35.32 51.4387 35.17C54.6587 29.73 55.5487 23.16 53.8687 17.09C51.0487 7.03003 41.8187 0 31.3887 0Z" fill="white"/>
<path d="M38.6987 50.79C36.0287 50.79 33.7787 48.79 33.4587 46.13C33.1187 43.24 35.1887 40.61 38.0787 40.27C38.2887 40.25 38.4987 40.23 38.6987 40.23C41.3687 40.23 43.6187 42.23 43.9387 44.89C44.1087 46.29 43.7187 47.67 42.8387 48.78C41.9687 49.89 40.7186 50.59 39.3086 50.75C39.1086 50.78 38.8987 50.79 38.6987 50.79Z" fill="white"/>
<path d="M38.7087 41.74C40.5987 41.74 42.2287 43.15 42.4587 45.08C42.6987 47.15 41.2187 49.03 39.1487 49.28C38.9987 49.3 38.8487 49.31 38.6987 49.31C36.8087 49.31 35.1787 47.9 34.9487 45.97C34.7087 43.9 36.1887 42.02 38.2587 41.77C38.4087 41.75 38.5587 41.74 38.7087 41.74ZM38.7087 38.74C38.4387 38.74 38.1688 38.76 37.9088 38.79C36.1088 39 34.4987 39.9 33.3787 41.32C32.2587 42.74 31.7588 44.51 31.9688 46.31C32.3688 49.72 35.2687 52.29 38.6987 52.29C38.9687 52.29 39.2387 52.27 39.4987 52.24C41.2987 52.03 42.9088 51.13 44.0288 49.71C45.1488 48.29 45.6487 46.52 45.4387 44.72C45.0287 41.31 42.1387 38.74 38.7087 38.74Z" fill="white"/>
<path d="M58.0587 65.82L41.8787 39.73L40.8987 38.16L39.4387 39.3L32.7487 44.55L31.4387 45.58L32.4688 46.89L51.3087 70.74L52.3187 72.01L53.6087 71.04L57.6387 68.03L58.8587 67.12L58.0587 65.82Z" fill="#22C55E"/>
<mask id="mask1_151_551" style="mask-type:luminance" maskUnits="userSpaceOnUse" x="31" y="38" width="28" height="35">
<path d="M58.0587 65.82L41.8787 39.73L40.8987 38.16L39.4387 39.3L32.7487 44.55L31.4387 45.58L32.4688 46.89L51.3087 70.74L52.3187 72.01L53.6087 71.04L57.6387 68.03L58.8587 67.12L58.0587 65.82Z" fill="white"/>
</mask>
<g mask="url(#mask1_151_551)">
<path d="M32.3488 108.36C17.0788 108.36 4.60876 98.58 1.32876 84.02C-0.251243 77 0.608762 70.88 3.95876 65.32C6.00876 61.93 8.85874 59.52 11.3787 57.61C12.0187 57.09 12.8987 56.49 13.9287 55.79C17.2587 53.53 21.7787 50.45 21.8187 47.08C21.8187 44.8 21.0087 43.89 18.0087 41.7C17.2587 41.15 16.6087 40 17.1787 38.55C17.5687 37.26 18.3287 35.63 32.8687 34.77L42.3687 33.2C43.4387 32.12 44.8188 31.43 46.3288 31.26C46.5888 31.23 46.8388 31.22 47.0788 31.22C47.9088 31.22 48.7487 31.38 49.5487 31.7L52.3388 32.8L50.6988 35.31C49.7988 36.69 49.3988 38.36 49.5988 40C49.6588 40.52 49.7887 41.07 49.9887 41.61L50.0288 41.71L50.1287 42.09C50.3187 42.7 50.4687 43.42 50.5487 44.12C50.9187 47.29 50.0387 50.41 48.0687 52.92C46.0887 55.42 43.2588 57.01 40.0888 57.39C39.6288 57.44 39.1688 57.47 38.7188 57.47C38.5488 57.47 38.3788 57.47 38.2088 57.46C37.1688 59.86 34.5687 63.66 28.2987 69.23C26.1287 71.68 25.1087 74.28 25.1787 77.18C25.2987 82.25 29.5988 86.38 34.7788 86.38C35.7088 86.38 36.6488 86.24 37.5788 85.97C41.0388 84.97 43.2387 82.65 44.2987 78.88L44.3888 78.54L44.9987 76.31L47.2588 76.8C48.8288 77.14 50.4088 77.44 51.8988 77.71L52.1588 77.76C54.6488 78.22 57.4687 78.75 60.0487 79.78L61.7788 80.48L61.5587 82.34C61.5587 82.39 61.5488 82.47 61.5388 82.56C60.3588 91.87 52.9088 107.81 32.4488 108.38H32.4187H32.3488V108.36Z" fill="#15803D"/>
<path d="M47.0787 33.65C47.6087 33.65 48.1388 33.75 48.6588 33.96C47.4388 35.82 46.9087 38.06 47.1687 40.27C47.2487 40.98 47.4287 41.71 47.6987 42.44L47.7788 42.72C47.9488 43.27 48.0687 43.84 48.1387 44.4C48.4387 46.92 47.7388 49.41 46.1588 51.4C44.5888 53.39 42.3387 54.65 39.8087 54.95C39.4487 54.99 39.0788 55.01 38.7188 55.01C38.0588 55.01 37.3787 54.94 36.6987 54.79L36.4287 54.73L36.3988 55C36.2988 55.97 35.2987 59.74 26.5587 67.47C23.9287 70.4 22.6388 73.67 22.7188 77.21C22.8688 83.6 28.2687 88.8 34.7587 88.8C35.9187 88.8 37.0887 88.63 38.2387 88.3C42.5087 87.06 45.3387 84.11 46.6387 79.53C46.6687 79.41 46.6988 79.29 46.7288 79.17C48.2788 79.5 49.8487 79.8 51.4387 80.1C53.9787 80.57 56.6887 81.06 59.1287 82.04C59.1187 82.1 59.1187 82.16 59.1087 82.22C58.0287 90.78 51.1787 105.4 32.3687 105.92H32.3187C18.2087 105.92 6.70873 96.9 3.68873 83.48C2.24873 77.1 3.01875 71.57 6.02875 66.58C7.85875 63.54 10.4987 61.33 12.8287 59.56C13.4587 59.05 14.3088 58.47 15.2888 57.8C19.0388 55.25 24.1788 51.76 24.2288 47.11C24.2388 43.56 22.5488 42.01 19.4088 39.73C19.2988 39.65 19.4287 39.41 19.4387 39.37C19.6987 38.5 26.5888 37.59 33.0988 37.21L43.5888 35.47L43.8287 35.18C44.5287 34.34 45.5087 33.81 46.5787 33.68C46.7687 33.66 46.9287 33.65 47.0787 33.65ZM47.0787 28.77C46.7387 28.77 46.3987 28.79 46.0587 28.83C44.2687 29.04 42.6087 29.77 41.2487 30.91L32.5888 32.34C29.2288 32.54 25.8287 32.88 23.2387 33.27C19.8787 33.77 16.0887 34.34 14.8887 37.66C13.8887 40.22 14.9788 42.51 16.5288 43.65C19.3788 45.72 19.3787 46.01 19.3687 47.09C19.3487 49.14 14.9387 52.14 12.5687 53.75C11.4987 54.48 10.5987 55.09 9.82874 55.71C7.13874 57.75 4.09871 60.34 1.85871 64.05C-1.78129 70.09 -2.77127 76.99 -1.06127 84.55C2.47873 100.25 15.8988 110.8 32.3388 110.8H32.4088H32.5288C54.6388 110.18 62.6988 92.92 63.9788 82.83C63.9888 82.73 63.9987 82.62 64.0087 82.52L64.4187 78.89L60.9587 77.5C58.1487 76.37 55.1888 75.82 52.5888 75.34L52.3587 75.3C50.9587 75.04 49.3288 74.73 47.7888 74.4L43.2587 73.42L42.0388 77.89L41.9788 78.13L41.9587 78.21C41.1187 81.18 39.5588 82.85 36.9088 83.62C36.1988 83.82 35.4888 83.93 34.7888 83.93C30.9288 83.93 27.7187 80.87 27.6387 77.11C27.5887 74.9 28.3787 72.88 30.0587 70.94C34.7687 66.75 38.0087 63.05 39.7687 59.87C39.9787 59.85 40.1888 59.83 40.3988 59.81C44.2188 59.36 47.6287 57.45 50.0087 54.43C52.3887 51.41 53.4487 47.65 52.9987 43.83C52.8987 43.01 52.7287 42.18 52.4887 41.37L52.4287 41.16L52.3687 40.96L52.2987 40.76C52.1687 40.39 52.0788 40.04 52.0388 39.7C51.9088 38.63 52.1687 37.54 52.7587 36.64L55.9688 31.74L50.5687 29.46L50.5187 29.44L50.4587 29.42C49.3587 28.98 48.2187 28.77 47.0787 28.77Z" fill="#15803D"/>
</g>
<path d="M61.7087 65.73C61.2987 64.87 60.7587 63.97 60.0687 62.98C59.5387 62.22 59.2687 62 58.8687 62C58.5887 62 58.2287 62.1 57.6787 62.29C55.5587 62.96 50.4187 65.25 48.5587 72.12C48.1187 73.49 47.7787 74.93 47.4587 76.32C47.2087 77.38 46.9587 78.47 46.6587 79.54C45.3587 84.12 42.5387 87.07 38.2587 88.31C37.1087 88.64 35.9387 88.81 34.7787 88.81C28.2887 88.81 22.8787 83.61 22.7387 77.22C22.6587 73.68 23.9387 70.41 26.5787 67.48C35.3187 59.75 36.3187 55.98 36.4187 55.01L36.4487 54.74L36.7187 54.8C37.3987 54.95 38.0787 55.02 38.7387 55.02C39.0987 55.02 39.4687 55 39.8287 54.96C42.3487 54.66 44.5987 53.4 46.1787 51.41C47.7487 49.42 48.4487 46.93 48.1587 44.41C48.0887 43.85 47.9687 43.28 47.7987 42.73L47.7187 42.45C47.4487 41.72 47.2787 40.99 47.1887 40.28C46.9287 38.07 47.4587 35.83 48.6787 33.97C48.6687 33.97 48.6587 33.97 48.6587 33.96C51.5187 29.32 52.5287 23.56 50.9687 17.9C48.4787 8.91002 40.3187 3.01001 31.4187 3.01001C29.6287 3.01001 27.8087 3.25 25.9887 3.75C15.1787 6.74 8.84872 17.92 11.8387 28.73C13.1087 33.33 15.8687 37.11 19.4487 39.72C19.4487 39.73 19.4487 39.73 19.4587 39.74C22.5987 42.03 24.2887 43.57 24.2787 47.12C24.2287 51.77 19.0887 55.26 15.3387 57.81C14.3487 58.48 13.4987 59.06 12.8787 59.57C10.5387 61.34 7.90871 63.56 6.07871 66.59C3.06871 71.59 2.29868 77.11 3.73868 83.49C6.75868 96.91 18.2687 105.93 32.3687 105.93H32.4187C51.2287 105.4 58.0787 90.78 59.1587 82.23C59.3787 80.49 59.3487 78.67 59.3087 76.92C59.2887 76.05 59.2787 75.18 59.2887 74.31C59.3287 71.29 60.1087 68.83 61.6587 66.8C61.7987 66.57 61.8387 66 61.7087 65.73ZM37.2987 22.59L36.4587 23.67L37.1387 24.86L40.7987 31.28L33.8487 28.76L32.5687 28.3L31.6487 29.31L26.6687 34.78L26.9087 27.39L26.9587 26.03L25.7187 25.47L18.9787 22.43L26.0787 20.38L27.3887 20L27.5387 18.64L28.3487 11.29L32.4887 17.41L33.2587 18.54L34.5987 18.26L41.8387 16.76L37.2987 22.59Z" fill="#101820"/>
<path d="M42.4487 45.07C42.6887 47.14 41.2087 49.02 39.1387 49.27C37.0687 49.51 35.1887 48.03 34.9387 45.96C34.6987 43.89 36.1787 42.01 38.2487 41.76C40.3287 41.52 42.2087 43 42.4487 45.07Z" fill="#22C55E"/>
</svg>
