<?xml version="1.0" encoding="UTF-8" standalone="no"?><!DOCTYPE svg PUBLIC "-//W3C//DTD SVG 1.1//EN" "http://www.w3.org/Graphics/SVG/1.1/DTD/svg11.dtd"><svg width="100%" height="100%" viewBox="0 0 1302 483" version="1.1" xmlns="http://www.w3.org/2000/svg" xmlns:xlink="http://www.w3.org/1999/xlink" xml:space="preserve" xmlns:serif="http://www.serif.com/" style="fill-rule:evenodd;clip-rule:evenodd;stroke-linejoin:round;stroke-miterlimit:2;"><path d="M448.675,349.438c2.841,5.602 3.054,5.494 3.061,6.035c0.002,0.176 0.005,0.372 -1.287,1.789c-2.234,2.45 -2.361,2.228 -4.603,4.767c-15.1,17.099 -14.529,20.04 -26.218,52.553c-6.042,16.805 -10.885,23.16 0.893,23.226c13.417,0.075 16.604,1.983 21.062,-10.683c0.341,-0.969 2.383,-6.769 4.36,-12.075c1.954,-5.243 6.214,-17.079 6.749,-18.566c7.444,-20.685 9.82,-25.138 8.714,-31.61c-1.206,-7.064 -4.314,-7.219 -1.206,-13.632c0.27,-0.558 0.82,-0.949 1.091,-1.507c60.659,0.702 355.273,-0.757 365.343,0.821c10.447,1.637 14.421,4.875 15.442,5.707c0.434,0.354 0.626,0.956 1.072,1.294c0.403,0.306 4.497,3.413 6.082,-1.731c0.061,-0.198 -0.726,-5.601 5.787,-5.927c0.393,-0.02 166.382,-0.061 168.648,0.025c6.818,0.258 7.323,4.161 15.524,1.963c7.255,-1.945 9.076,-2.433 93.865,-2.031c10.22,0.048 7.334,4.81 5.642,14.937c-1.286,7.699 -6.628,33.17 -7.019,33.877c-2.175,3.935 -4.748,2.603 -5.934,9.863c-0.503,3.081 0.962,3.91 -10.71,34.771c-11.518,30.451 -23.304,38.433 -56.96,38.445c-290.933,0.107 -290.928,-0.112 -296.877,0.366c-6.479,0.52 -6.487,-0.626 -81.25,-0.355c-46.634,0.168 -76.549,-0.502 -87.44,0.437c-0.456,0.039 -4.872,0.42 -5.716,-0.067c-0.296,-0.171 -0.58,-3.575 -0.062,-4.552c0.588,-1.108 16.772,-17.085 21.151,-28.369c9.755,-25.138 8.744,-25.939 17.642,-47.232c3.047,-7.293 -1.325,-9.981 -7.789,-5.361c-0.569,0.406 -0.334,0.666 -6.675,5.639c-5.178,4.06 -1.14,6.046 -6.755,21.815c-12.066,33.881 -18.543,57.583 -58.725,57.679c-6.266,0.015 -76.152,0.183 -78.325,-0.038c-7.03,-0.713 -4.662,-4.157 -6.998,-5.994c-3.308,-2.6 -3.549,-0.305 -8.419,1.732c-11.455,4.791 -23.263,4.393 -71.889,4.301c-32.287,-0.061 -30.763,-13.875 -37.442,-14.325c-5.39,-0.363 -10.963,11.842 -37.437,14.118c-2.854,0.245 -2.855,0.205 -150.119,0.207c-7.079,0 -12.481,0.832 -14.247,-4.736c-2.404,-7.577 -3.217,-25.788 -3.317,-28.045c-0.031,-0.689 -0.339,-7.592 -1.616,-8.465c-3.661,-2.502 -5.222,2.346 -5.371,2.807c-5.175,16.068 -4.776,19.977 -4.595,21.746c0.681,6.664 8.233,16.281 -1.93,16.727c-4.779,0.21 -104.587,-0.594 -115.75,0.399c-1.967,0.175 -5.79,0.159 -5.885,0.121c-0.065,-0.026 -2.239,-4.226 -2.236,-4.321c0.017,-0.56 1.127,-0.295 1.541,-0.672c0.265,-0.242 0.074,-0.413 3.072,-3.272c0.935,-0.891 11.84,-13.041 15.535,-18.764c4.026,-6.235 30.612,-81.842 31.208,-84.222c2.504,-10.003 -4.679,-20.509 6.766,-21.154c0.5,-0.028 127.239,-0.033 128.047,0.004c5.374,0.245 7.449,2.248 8.408,8.883c2.02,13.969 2.223,19.815 2.283,21.547c0.159,4.574 -0.565,4.752 0.88,7.173c1.776,2.975 2.939,3.528 4.941,0.753c1.675,-2.323 1.465,-2.434 4.644,-14.202c4.024,-14.892 -9.729,-24.065 3.911,-24.241c19.213,-0.248 114.963,0.036 124.96,0.065c22.856,0.068 24.016,6.279 27.982,4.653c1.015,-0.416 4.465,-4.45 9.563,-4.635c8.541,-0.309 58.789,0.563 74.934,-0.459l254.694,62.909c3.065,-7.874 9.603,-19.604 -1.52,-18.741c-7.176,0.556 -8.879,7.992 -11.501,15.418c-16.322,46.221 -24.55,61.308 -16.612,61.349c3.433,0.018 5.086,-4.108 10.292,-10.957c2.464,-3.241 6.389,-8.405 19.341,-47.069l-254.694,-62.909Z" style="fill:#242123;fill-opacity:0.99;"/><path d="M962.114,2.419c0.424,-0.279 1.034,-0.161 1.458,-0.441c1.437,-0.947 1.154,-1.574 4,-1.854c1.123,-0.11 1.102,-0.101 253.001,-0.1c29.547,0 29.495,-0.021 37.734,0.944c4.674,0.876 23.688,2.9 34.37,13.731c4.843,4.911 8.619,13.469 9.014,15.862c0.336,2.035 0.638,14.325 -0.702,18.504c-6.834,21.324 -15.518,43.696 -16.977,47.454c-7.262,18.708 -12.96,46.245 -56.981,56.727c-12.364,2.944 -32.77,2.217 -34.226,3.055c-0.346,0.199 -3.64,2.095 -2.185,4.495c2.72,4.485 49.508,-2.13 57.117,23.085c1.545,5.118 -1.272,13.937 -2.375,18.479c-0.791,3.257 -25.3,71.171 -28.923,77.612c-6.746,11.992 -21.505,40.343 -70.672,48.6c-16.448,2.762 -16.544,2.396 -143.946,2.396c-127.717,0 -144.456,-0.011 -146.878,0.035c-0.742,0.014 -8.449,0.163 -9.253,-0.62c-5.878,-5.715 8.903,-3.64 30.93,-68.664c1.295,-3.822 1.831,-3.574 17.492,-47.312c14.005,-39.111 13.745,-39.152 28.297,-78.105c11.945,-31.976 23.92,-65.775 25.953,-71.512c12.585,-35.522 14.905,-43.345 13.75,-62.371l152.876,186.066c-6.412,-1.487 -6.359,-1.553 -6.925,-1.606c-8.904,-0.841 -63.245,-0.255 -68.744,-0.196c-10.277,0.111 -9.776,2.717 -13.273,12.343c-1.188,3.271 -13.383,36.835 -14.999,40.83c-2.749,6.797 -9.321,25.809 -10.121,27.961c-1.146,3.084 -2.719,3.106 -1.091,6.001c2.347,4.174 3.437,2.679 8.249,2.23c5.032,-0.47 5.028,-0.403 43.737,-0.403c30.976,-0 37.768,2.471 45.754,-14.379c1.033,-2.179 20.885,-56.992 21.574,-59.247c2.421,-7.919 -0.979,-11.446 -1.66,-12.153c-0.661,-0.686 -1.839,-0.696 -2.5,-1.382l-152.876,-186.066l161.583,52.015c-16.138,0 -36.615,-0.003 -37.535,0.014c-8.909,0.167 -8.474,2.391 -11.564,10.787c-1.475,4.009 -15.59,42.361 -18.377,50.131c-1.673,4.661 -1.76,4.582 -3.507,9.204c-0.159,0.421 -1.328,3.513 -0.228,5.621c0.095,0.182 2.613,2.287 2.785,2.331c0.764,0.194 67.592,0.083 68.375,-0.001c16.392,-1.76 22.953,-2.438 30.772,-27.159c5.943,-18.787 17.195,-39.692 12.879,-46.599c-3.269,-5.232 -9.873,-4.329 -43.601,-4.329l-161.583,-52.015Z" style="fill:#c4060e;fill-opacity:0.99;"/><path d="M126.951,2.434c0.269,-0.162 3.362,-2.021 3.362,-2.021c0.354,-0.123 0.371,-0.43 262.135,-0.388c24.146,0.004 24.089,0.088 31.487,1.05c7.679,1.527 34.7,4.258 40.455,26.323c2.814,10.791 1.695,10.902 0.033,21.911c-1.987,13.155 -18.299,53.607 -21.501,62.661c-4.236,11.976 -15.843,26.102 -25.377,31.235c-39.199,21.105 -61.302,6.968 -61.78,15.612c-0.276,4.998 2.654,2.847 21.29,4.998c40.324,4.655 36.014,24.257 34.552,32.435c-1.616,9.041 -3.829,12.329 -5.127,16.088c-19.607,56.783 -22.83,61.314 -26.125,68.41c-3.344,7.201 -11.818,18.947 -16.978,23.756c-32.963,30.716 -85.118,26.466 -114.678,26.466c-228.212,-0 -228.165,-0.016 -231.268,0.126c-0.517,0.024 -5.467,0.249 -6.472,-0.095c-0.993,-0.34 -2.366,-2.866 -2.179,-3.498c0.369,-1.251 15.478,-16.547 29.386,-56.726c12.697,-36.679 81.529,-220.633 86.048,-240.115c3.413,-14.717 2.734,-24.119 2.738,-28.226l145.164,231.754c5.941,-15.766 6.268,-15.598 11.487,-31.595c5.565,-17.056 -9.034,-15.914 -22.404,-15.913c-61.704,0.002 -61.984,-0.246 -64.69,1.487c-5.341,3.42 -9.8,25.561 -31.451,80.106c-0.167,0.42 -1.472,3.709 -0.098,5.644c2.88,4.055 3.803,2.482 8.746,2.098c10.426,-0.81 37.197,-0.194 65.625,-0.372c17.193,-0.108 20.053,-3.017 32.785,-41.453l-145.164,-231.754l195.144,94.264c10.095,-26.283 14.705,-36.082 7.417,-40.442c-3.533,-2.114 -3.835,-1.821 -68.315,-1.821c-13.788,0 -17.368,-2.563 -21.834,10.496c-6.21,18.159 -13.57,37.671 -14.798,40.929c-0.647,1.715 -7.817,20.725 -7.849,21.521c-0.03,0.752 1.227,4.678 1.461,4.834c0.81,0.542 7.956,0.415 8.649,0.402c27.908,-0.498 53.206,1.334 71.973,-1.477c12.601,-1.887 16.676,-14.636 23.296,-34.443l-195.144,-94.264Z" style="fill:#c4060d;fill-opacity:0.99;"/><path d="M614.375,0.285c14.287,-0.289 14.269,-0.261 187.448,-0.261c42.008,-0 43.184,-0.426 43.984,2.3c0.311,1.058 0.201,2.211 0.512,3.269c-1.313,7.284 -10.246,49.897 -10.25,49.917c-2.015,10.523 -9.917,5.112 -12.693,3.919c-5.409,-2.325 -16.828,-5.068 -30.931,-5.047c-74.829,0.112 -74.779,-0.092 -81.279,0.063c-15.766,0.374 -20.116,11.565 -17.84,19.644c2.462,8.736 3.006,8.474 6.968,16.601c1.813,3.718 1.299,3.879 22.082,46.751c9.548,19.696 9.246,19.822 10.082,21.53c7.906,16.167 7.42,17.173 10.24,17.536c5.651,0.728 5.052,-1.344 9.477,-4.866c0.318,-0.253 3.185,-2.48 3.463,-2.695c18.759,-14.569 25.902,-15.126 37.221,-44.486c3.669,-9.516 7.317,-8.398 18.34,-8.403c33.737,-0.016 33.945,-0.157 35.085,0.865c4.54,4.07 2.171,5.021 0.11,10.773c-5.705,15.922 -5.024,16.165 -13.006,31.16c-2.439,4.582 -9.165,12.368 -10.954,14.176c-10.461,10.572 -35.661,27.626 -48.979,38.446c-5.851,4.754 -13.001,7.216 -8.438,15.605c5.946,10.933 14.72,29.45 15.73,31.113c12.959,21.326 29.271,17.087 39.828,17.451c15.72,0.543 15.221,-2.739 21.833,-3.92c0.938,-0.168 4.188,2.348 2.919,5.62c-0.646,1.666 -1.723,1.069 -10.889,19.505c-4.695,9.444 -4.679,9.368 -9.371,18.758c-3.863,7.731 -4.841,14.677 -13.848,15.31c-2.428,0.17 -112.144,0.06 -121.895,0.05c-26.677,-0.027 -31.237,-10.478 -36.609,-22.813c-1.173,-2.693 -1.064,-3.265 -3.95,-3.408c-3.949,-0.196 -3.546,1.029 -6.595,3.556c-30.275,25.104 -65.527,22.666 -74.721,22.666c-90.746,-0.003 -95.186,0.533 -109.479,-3.169c-39.051,-10.117 -33.227,-41.402 -31.908,-50.502c0.796,-5.489 1.581,-10.911 21.909,-65.776c9.062,-24.458 13.037,-29.35 15.977,-34.332c13.624,-23.087 29.663,-32.004 41.251,-36.615c3.947,-1.571 17.018,-6.773 52.849,-5.227c3.531,0.152 4.084,1.071 6.284,-1.673c4.16,-5.189 -15.687,-29.384 -20.89,-53.326c-3.738,-17.199 8.046,-42.431 18.824,-55.164c17.486,-20.66 44.485,-23.502 52.11,-24.897l-15.009,198.634c-3.033,-6.357 -3.005,-6.309 -6.238,-12.509c-2.748,-5.268 -3.583,-11.802 -6.938,-12.061c-4.152,-0.32 -3.258,1.522 -4.568,5.437c-7.34,21.934 -12.03,32.607 -13.835,38.368c-3.703,11.816 -15.45,40.679 -15.922,46.766c-0.118,1.525 -0.909,11.736 15.599,11.056c30.926,-1.275 31.044,0.781 40.703,-1.304c5.208,-1.124 20.144,-7.515 20.819,-13.07c0.224,-1.844 0.368,-3.027 -8.834,-21.476c-10.314,-20.679 -10.467,-20.537 -20.785,-41.206l15.009,-198.634Z" style="fill:#c4060e;fill-opacity:0.99;"/><path d="M304.948,362.784c35.475,-0 45.85,-0.929 52.889,5.498c8.178,7.466 -0.524,27.378 -3.04,34.08c-16.61,44.235 -17.877,62.978 -49.818,66.014c-4.34,0.413 -80.768,0.54 -81.483,0.021c-3.308,-2.401 -2.194,-3.245 -0.257,-6.798c7.377,-13.525 13.362,-34.143 26.095,-68.325c9.608,-25.795 6.8,-28.075 12.182,-30.208c0.857,-0.34 5.026,-0.282 43.432,-0.282Z" style="fill:#fafbfc;"/><path d="M745.573,362.784c70.465,-0 70.464,-0.003 71.853,0.026c27.739,0.583 21.299,16.841 17.825,26.769c-8.218,23.485 -11.009,28.735 -20.788,31.992c-7.888,2.628 -7.125,4.856 -5.316,18.207c1.278,9.435 1.041,9.398 2.179,18.876c0.034,0.285 2.378,8.598 -3.123,9.882c-3.306,0.772 -28.894,0.172 -31.406,0.114c-0.729,-0.017 -6.735,-0.158 -8.116,-4.162c-0.886,-2.569 -0.882,-2.559 -2.168,-33.902c-0.038,-0.922 -0.394,-9.6 -8.714,-7.567c-4.985,1.218 -5.903,5.195 -6.709,7.245c-7.427,18.907 -9.91,29.229 -10.537,31.837c-2.07,8.604 -4.881,6.549 -13.732,6.562c-27.932,0.043 -27.948,0.025 -28.332,-0.253c-3.328,-2.413 -2.224,-3.261 -0.285,-6.826c8.567,-15.753 13.421,-35.819 28.668,-74.775c7.366,-18.821 3.495,-21.781 9.54,-23.878c0,0 8.427,-0.135 9.16,-0.147Z" style="fill:#fafbfc;"/><path d="M592.448,362.783c0.962,-0.003 11.03,-0.034 12.025,0.32c0.213,0.076 2.208,2.101 2.303,2.344c0.661,1.681 -0.847,8.326 -1.007,9.035c-2.217,9.772 -5.58,7.118 -13.344,6.258c-5.521,-0.612 -39.35,-0.297 -40.601,-0.192c-12.234,1.032 -11.103,10.628 -10.053,13.06c1.298,3.006 15.811,1.529 31.945,1.922c28.854,0.704 20.881,17.16 16.594,29.12c-13.921,38.834 -16.634,44.012 -54.112,44.012c-54.392,0 -54.632,0.165 -56.056,-0.95c-2.961,-2.318 -1.935,-6.446 -0.714,-12.3c2.114,-10.136 6.578,-4.488 19.29,-4.286c32.889,0.523 34.784,0.136 37.742,-0.468c8.97,-1.831 13.76,-15.665 2.805,-16.004c-28.788,-0.889 -55.847,6.495 -45.754,-22.502c13.537,-38.889 16.755,-40.193 26.329,-45.526c7.994,-4.453 8.5,-3.845 72.607,-3.845Z" style="fill:#fafbfc;"/><path d="M1108.073,362.784c0.987,-0.002 12.142,-0.026 12.331,0.033c3.684,1.141 4.158,1.361 4.338,5.183c0.008,0.164 -1.317,7.473 -1.711,9.224c-0.51,2.268 -0.09,2.648 -2.165,3.718c-3.147,1.624 -3.275,1.133 -6.698,0.434c-8.877,-1.813 -45.34,-0.83 -46.682,-0.606c-7.528,1.253 -11.544,9.837 -7.279,13.453c1.828,1.549 6.099,1.246 7.248,1.25c24.89,0.08 44.92,-2.177 44.944,13.204c0.006,3.776 -10.08,37.493 -18.615,47.939c-11.33,13.866 -18.256,12.044 -79.463,12.049c-13.32,0.001 -20.923,3.118 -17.832,-9.824c1.758,-7.362 0.929,-10.514 8.407,-9.265c7.743,1.293 7.685,1.537 15.676,1.573c35.899,0.162 37.497,0.297 40.404,-5.114c7.462,-13.892 -6.416,-11.368 -9.155,-11.371c-30.2,-0.037 -49.813,3.589 -40.458,-22.813c9.17,-25.883 13.23,-38.168 24.49,-44.382c9.815,-5.417 10.36,-4.681 72.219,-4.681Z" style="fill:#fafcfc;"/><path d="M167.448,362.783c1.499,0.016 9.097,-0.615 12.988,1.535c2.695,1.489 3.017,9.653 9.769,59.857c1.915,14.24 0.535,19.516 2.961,20.798c1.562,0.825 1.687,0.355 2.862,-0.964c1.663,-1.867 1.747,-1.801 2.361,-4.254c1.526,-6.102 1.144,-6.223 16.854,-49.5c8.443,-23.259 6.764,-23.973 8.276,-25.494c0.894,-0.9 2.358,-2.372 15.698,-2.272c2.505,0.019 3.13,-0.117 3.44,2.337c0.542,4.303 -1.364,4.188 -3.72,9.29c-3.523,7.627 -24.596,66.62 -26.673,72.435c-6.469,18.111 -6.106,22.024 -16.684,22.108c-37.485,0.3 -37.606,0.563 -40.519,-0.861c-4.027,-1.969 -3.54,-7.107 -8.612,-43.628c-4.955,-35.686 -2.333,-40.705 -7.316,-38.358c-2.446,1.152 -2.358,1.416 -3.039,4.042c-0.992,3.828 -3.55,13.695 -15.883,46.805c-10.266,27.561 -8.268,28.4 -10.026,30.246c-0.822,0.863 -2.243,2.355 -14.769,1.983c-5.726,-0.17 -5.201,-3.279 -5.116,-3.781c0.284,-1.685 3.149,-2.494 7.877,-16.011c0.777,-2.221 25.634,-69.965 27.164,-75.193c0.655,-2.239 0.261,-8.94 4.922,-10.886c0.691,-0.288 5.407,-0.234 37.188,-0.235Z" style="fill:#f9fbfb;"/><path d="M998.698,362.784c6.262,-0.012 11.568,-0.457 13.283,1.122c0.312,0.287 3.646,2.128 -0.066,13.819c-1.952,6.149 -8.688,2.732 -22.591,2.69c-20.584,-0.062 -26.399,-0.499 -28.641,2.832c-0.689,1.023 -7.505,14.635 -6.248,19.412c0.689,2.619 1.64,2.693 25.511,2.487c13.09,-0.113 13.685,-3.282 16.441,-0.616c0.457,0.442 1.173,0.703 1.399,1.297c0.382,1.005 0.64,1.685 -4.083,12.804c-3.534,8.318 -6.391,4.141 -20.021,3.973c-1.76,-0.022 -17.097,-0.211 -21.996,0.243c-0.753,0.07 -6.016,0.557 -7.924,5.158c-0.07,0.17 -6.558,17.757 -6.663,18.261c-0.453,2.177 0.039,2.139 1.612,3.728c1.541,1.557 1.984,1.165 22.489,1.151c16.062,-0.011 15.931,-1.596 21.868,-1.788c0.373,-0.012 3.429,-0.111 3.574,3c0.079,1.694 -6.272,13.855 -9.969,15.332c-4.832,1.93 -49.449,0.607 -77.979,0.997c-7.861,0.107 -12.468,0.288 -8.953,-6.708c3.007,-5.985 3.331,-5.789 5.972,-12.635c11.863,-30.746 22.212,-60.654 24.049,-65.962c5.221,-15.087 3.34,-16.214 6.551,-19.087c1.935,-1.732 2.312,-1.51 72.386,-1.51Z" style="fill:#f9fafb;"/><path d="M408.073,362.783c13.877,-0.138 15.755,-0.654 16.215,1.807c0.942,5.042 -2.003,4.379 -6.219,16.184c-21.862,61.205 -22.936,61.159 -22.091,65.287c1.115,5.45 6.493,5.266 33.969,5.086c16.152,-0.106 17.392,-1.982 22.875,-17.117c1.455,-4.016 14.433,-39.833 18.267,-50.177c4.303,-11.608 3.239,-11.879 4.459,-16.137c1.736,-6.057 7.264,-4.751 13.752,-5.048c4.282,-0.196 6.165,-2.276 6.79,1.989c0.467,3.187 0.21,3.252 -1.634,5.906c-2.74,3.945 -3.568,7.262 -5.69,12.898c-20.052,53.276 -23.328,75.166 -42.904,82.242c-5.2,1.88 -10.929,3.95 -69.055,2.929c-1.472,-0.026 -12.781,-0.225 -17.749,-4.86c-10.52,-9.815 -2.612,-23.585 16.77,-77.341c6.669,-18.496 4.6,-19.427 6.969,-21.779c2.402,-2.385 9.706,-1.869 25.273,-1.869Z" style="fill:#f9fbfc;"/><path d="M704.948,362.784c6.019,-0.006 15.101,-0.691 16.111,1.721c1.596,3.812 -0.554,10.828 -1.029,12.752c-1.859,7.525 -6.491,3.283 -18.206,3.17c-11.78,-0.114 -14.45,-1.49 -18.358,9.632c-0.332,0.945 -21.816,59.719 -22.588,62.251c-3.641,11.94 -1.39,16.267 -12.173,16.353c-31.304,0.25 -31.922,0.771 -33.521,-1.384c-2.243,-3.022 1.951,-5.936 5.357,-14.876c1.521,-3.992 10.84,-28.447 18.303,-50.161c5.753,-16.737 7.854,-17.214 5.225,-20.332c-1.341,-1.591 -7.229,-1.515 -7.87,-1.507c-17.567,0.228 -17.222,2.66 -18.729,2.543c-0.522,-0.041 -0.326,-1.036 -0.694,-1.408c-0.505,-0.511 -1.548,-0.48 -1.828,-1.141c-0.566,-1.339 1.985,-5.759 2.249,-6.217c3.98,-6.895 4.905,-9.716 9.862,-11.131c1.068,-0.305 1.036,-0.264 77.888,-0.264Z" style="fill:#fafbfc;"/><path d="M889.323,362.783c11.451,-0.083 11.433,-0.22 12.428,-0.224c3.27,-0.014 4.192,-0.592 4.959,2.615c0.3,1.254 -1.995,5.315 -2.238,5.744c-5.22,9.235 -13.239,34.364 -21.518,56.455c-13.503,36.025 -11.177,37.048 -13.496,39.445c-2.407,2.487 -11.365,1.845 -17.634,1.845c-19.805,-0 -22.137,0.693 -23.665,-1.625c-2.612,-3.962 1.682,-3.664 7.788,-20.966c2.896,-8.204 20.816,-57.249 22.634,-62.224c4.026,-11.019 3.841,-13.617 4.59,-16.156c1.018,-3.447 4.039,-4.521 4.531,-4.696c0.792,-0.281 14.867,-0.213 21.622,-0.213Z" style="fill:#fafbfc;"/><path d="M92.448,362.783c11.477,-0.224 11.404,-0.254 12.395,-0.242c2.52,0.029 3.241,-0.332 3.675,2.146c0.555,3.168 0.281,3.233 -1.474,5.939c-4.404,6.793 -9.127,22.647 -18.284,47.21c-16.934,45.423 -15.012,46.225 -16.73,48.336c-2.551,3.133 -4.78,2.485 -23.332,2.49c-12.424,0.004 -22.908,2.036 -16.99,-7.395c4.6,-7.331 19.483,-51.395 26.919,-71.147c7.781,-20.67 4.948,-21.985 8.537,-25.487c2.419,-2.36 9.769,-1.851 25.284,-1.851Z" style="fill:#fafbfc;"/><path d="M286.176,451.133c-11.326,0.082 -11.309,0.36 -12.226,0.02c-3.766,-1.397 -3.624,-4.511 -3.601,-5.003c0.021,-0.458 8.266,-22.677 16.851,-46.491c5.528,-15.333 5.791,-18.992 14.62,-19.225c12.909,-0.34 17.309,0.137 18.018,3.478c0.861,4.059 0.184,4.184 -16.321,49.237c-3.825,10.441 -4.693,11.785 -5.29,12.711c-3.606,5.586 -10.974,5.128 -12.05,5.272Z" style="fill:#242224;"/><path d="M773.698,405.16c-7.163,-0.218 -7.845,1.273 -10.638,-1.776c-0.932,-1.017 -2.241,-2.447 3.913,-16.789c3.207,-7.473 8.943,-6.206 19.226,-6.18c0.68,0.002 6.85,0.017 8.393,1.321c1.911,1.615 1.334,4.684 1.257,5.097c-0.316,1.681 -3.973,12.506 -6.663,15.444c-0.156,0.171 -3.162,2.098 -3.363,2.158c-3.78,1.123 -3.844,0.562 -12.125,0.726Z" style="fill:#232022;"/><path d="M967.448,439.988c-2.084,-0.048 -4.17,0.035 -6.255,-0.013c-10.673,-0.247 -6.086,-5.113 -5.616,-5.534c1.63,-1.459 21.436,-1.78 23.142,0.463c0.203,0.267 0.037,3.311 -0.207,3.598c-1.108,1.302 -10.172,1.47 -11.065,1.486Z" style="fill:#6b6a6b;"/></svg>