<?xml version="1.0" encoding="utf-8"?>
<!-- Generator: Adobe Illustrator 27.3.1, SVG Export Plug-In . SVG Version: 6.00 Build 0)  -->
<svg version="1.1" id="Layer_1" xmlns="http://www.w3.org/2000/svg" xmlns:xlink="http://www.w3.org/1999/xlink" x="0px" y="0px"
	 viewBox="0 0 900 290" style="enable-background:new 0 0 900 290;" xml:space="preserve">
<g>
	<path style="fill-rule:evenodd;clip-rule:evenodd;" d="M881.09,234.04v-0.73c-1.17-0.06-1.17-0.28-1.17-1.09v-2.83h0.61
		c1.09,1.82,2.01,4.64,2.83,4.64h2.65v-0.39l-3.27-4.62c1.37-0.42,2.16-1.65,2.16-2.82c0-1.93-1.37-2.85-3.1-2.85h-5.73v0.78
		c1.2,0,1.23,0.28,1.23,1.09v7c0,0.81-0.03,1.03-1.23,1.09v0.73H881.09z M879.91,224.25h0.78c0.89,0,1.34,0.44,1.34,2.07
		c0,1.03-0.25,2.19-1.46,2.19h-0.67V224.25z M880.76,218.88c-5.71,0-9.85,4.39-9.85,10.07c0,5.74,4.14,10.07,9.85,10.07
		c5.73,0,9.84-4.33,9.84-10.07C890.6,223.27,886.49,218.88,880.76,218.88z M873.37,228.95c0-4.62,3.02-8.28,7.38-8.28
		c4.33,0,7.38,3.64,7.38,8.28c0,4.59-3.05,8.28-7.38,8.28C876.39,237.23,873.37,233.54,873.37,228.95z"/>
	<path style="fill-rule:evenodd;clip-rule:evenodd;" d="M115.42,122.7V52.57h-8.87c-2.44,6.18-3.33,9.67-5.55,9.67
		c-2.44,0-15.75-13.97-32.6-13.97c-29.28,0-59,34.39-59,96.72s29.5,96.73,62.1,96.73c40.15,0,48.13-42.99,48.13-80.07h-9.31
		c-0.22,21.49-2.66,67.17-33.94,67.17c-21.51,0-31.49-29.83-31.49-83.82c0-59.65,7.09-83.83,27.5-83.83
		c18.41,0,31.72,29.29,35.04,61.53H115.42z M237.54,237.42v-73.61h-7.98c-3.11,19.88-13.31,62.33-44.58,62.33
		c-12.86,0-16.41-4.57-16.41-15.59v-63.4c20.63,0,26.39,7.79,30.16,30.63h7.99v-75.77h-7.99c-3.77,24.45-9.54,32.24-30.16,32.24
		V79.44c0-11.02,3.55-15.59,15.08-15.59c29.28,0,39.48,34.39,43.03,59.65h7.98V52.57H119.77v11.28c13.75,0,17.3,4.57,17.3,15.59
		v131.11c0,11.02-3.55,15.59-17.3,15.59v11.28H237.54z M292.01,237.42v-11.28c-13.53,0-20.63-8.06-20.63-22.03V97.44h0.44
		l70.53,141.59h18.19V79.44c0-11.02,4.43-15.59,18.63-15.59V52.57h-48.35v11.28c15.09,0,19.52,4.57,19.52,15.59v95.11h-0.66
		L287.35,52.57h-45.69v11.28c10.65,0,14.42,6.18,19.52,16.39v123.86c0,13.97-7.1,22.03-19.74,22.03v11.28H292.01z M475.93,237.42
		v-11.28c-16.19,0-19.74-7.79-19.74-18.81V63.86c24.62,0,32.16,30.09,34.38,58.03h7.98V52.57H382.34v69.32h7.98
		c2.22-27.94,9.76-58.03,34.38-58.03v143.47c0,11.01-3.55,18.81-19.74,18.81v11.28H475.93z M504.81,52.57v10.21
		c12.2,1.34,17.74,3.49,17.74,15.58v116.07c0,26.33,15.09,47.29,49.68,47.29c32.39,0,50.13-17.46,50.13-51.32V78.37
		c0-12.09,6.65-15.58,17.74-15.58V52.57h-48.35v10.21c13.31,0.27,19.96,4.57,19.96,18.27v112.3c0,23.92-14.64,35.46-30.61,35.46
		c-18.63,0-27.06-17.19-27.06-38.42V77.02c0-11.55,4.43-14.24,18.63-14.24V52.57H504.81z M713.09,237.42v-11.28
		c-13.75,0-17.3-4.57-17.3-15.59v-60.18h2.89c16.41,0,17.74,10.21,19.52,53.19c0.89,24.73,9.98,38.16,29.72,38.16
		c20.63,0,27.72-14.78,27.72-39.23v-13.43h-7.98v7.79c0,15.05-1.77,23.38-7.99,23.38c-5.1,0-5.32-8.33-6.21-19.35
		c-2.66-34.12-14.64-49.7-33.49-53.73v-0.54c25.29-4.03,43.25-16.12,43.25-46.48c0-29.29-16.64-47.56-45.25-47.56H647v11.28
		c13.75,0,17.3,4.57,17.3,15.59v131.11c0,11.02-3.54,15.59-17.3,15.59v11.28H713.09z M695.79,79.44c0-11.02,3.55-15.59,12.2-15.59
		c15.08,0,19.74,13.97,19.74,38.69c0,23.64-10.43,34.93-26.84,34.93h-5.11V79.44z M857.65,237.42v-11.28
		c-16.64,0-21.51-3.77-21.51-12.89v-55.35l27.72-80.07c3.33-9.67,6.44-13.97,14.42-13.97V52.57h-42.58v11.28
		c11.97,0,16.86,1.88,16.86,8.06c0,2.95-1.55,8.33-4.21,16.39l-16.63,48.63l-19.96-52.66c-2.66-6.98-4.43-11.28-4.43-13.7
		c0-5.38,3.55-6.72,14.64-6.72V52.57h-65.21v11.28c8.21,0,11.97,1.61,16.64,13.97l31.27,81.41v54.54c0,8.07-5.76,12.36-21.96,12.36
		v11.28H857.65z"/>
</g>
</svg>
