<?xml version="1.0" encoding="utf-8"?>
<!-- Generator: Adobe Illustrator 27.3.1, SVG Export Plug-In . SVG Version: 6.00 Build 0)  -->
<svg version="1.1" id="Layer_1" xmlns="http://www.w3.org/2000/svg" xmlns:xlink="http://www.w3.org/1999/xlink" x="0px" y="0px"
	 viewBox="0 0 1000 290" style="enable-background:new 0 0 1000 290;" xml:space="preserve">
<g>
	<path style="fill-rule:evenodd;clip-rule:evenodd;" d="M953.87,171.21h-8.78v1.48h3.47v9.61h1.83v-9.61h3.47V171.21L953.87,171.21z
		 M968.32,171.21h-2.8l-3.26,8.43l-3.31-8.43h-2.83v11.09h1.83v-9.26l3.69,9.26h1.16l3.63-9.26l0.05,9.26h1.83V171.21L968.32,171.21
		z M46,129.24l6.51-11.51c3.49-5.59,8.83-10.25,14.52-10.01h109.13l-13.52,21.53H46L46,129.24z M76.54,136.24l-6.51,11.51
		c-3.41,5.8-1.49,11.51,4.51,11.51h70.08L130.1,182.3H40.99c-13.9-0.08-20.58-11.55-12.52-25.53c3.98-6.21,9.19-14.77,12.52-20.53
		H76.54L76.54,136.24z M258.75,129.24l12.51-21.53h36.54l-12.52,21.53H258.75L258.75,129.24z M482.52,129.24l5.51-21.53h-36.04
		l-6.01,21.53H482.52L482.52,129.24z M547.09,129.24l22.03-21.53h-44.05l-22.02,21.53H547.09L547.09,129.24z M496.03,136.24
		l-21.02,21.03l5.01-21.03h-36.54l-12.01,46.06h62.07l46.56-46.06H496.03L496.03,136.24z M700.78,129.24l7.01-11.01
		c3.15-6,8.49-10.67,14.02-10.51h29.03h54.06c12.58-0.16,19.25,9.31,14.02,21.53H700.78L700.78,129.24z M814.41,136.24
		c-6.21,10.4-14.53,24.19-14.52,24.03l-6.51,11.51c-3.61,5.78-8.95,10.45-14.52,10.51h-29.54h-53.56
		c-13.73-0.06-20.41-11.53-12.01-25.53c3.64-6.19,8.86-14.76,12.51-20.53h35.04l-6.51,11.51c-3.24,5.82-1.33,11.53,4.51,11.51h14.52
		h15.52c4.44,0.02,5.96-1.95,8.01-5.51l10.01-17.52H814.41L814.41,136.24z M833.93,129.24l12.52-21.53h36.54l12.02,21.53H833.93
		L833.93,129.24z M919.53,129.24l12.51-21.53h36.54l-12.51,21.53H919.53L919.53,129.24z M829.43,136.24L802.9,182.3h36.54
		l24.03-42.05L888,182.3h36.54l26.53-46.06h-36.04l-8.51,15.02l-8.51-15.02H829.43L829.43,136.24z M178.16,136.24h27.53h48.56h33.04
		h3.5l-26.53,46.06h-36.54l13.27-23.03h-48.56l-13.26,23.03h-32.04l26.53-46.06H178.16L178.16,136.24z M328.72,160.77h80.21
		l-12.51,21.53h-80.09h-29.54h-7.01l26.53-46.06h8.01h28.53h81.1l-10.51,17.02h-80.39L328.72,160.77L328.72,160.77z M440.47,107.71
		l-12.51,21.53H310.81l12.51-21.53H440.47L440.47,107.71z M585.02,160.77l-12.4,21.53h-37.04l26.53-46.06h19.02h18.02h81.6
		l-8.01,14.02c-3.39,5.86-9.71,10.52-15.52,10.51h-1.5v21.53h-38.04v-21.53H585.02L585.02,160.77z M566.62,129.24l12.51-21.53h93.61
		c12.86-0.16,17.9,9.28,12.51,21.53H566.62L566.62,129.24z M178.16,129.24l12.51-21.53h32.04l-12.51,21.53H178.16L178.16,129.24z"/>
</g>
</svg>
