<?xml version="1.0" encoding="utf-8"?>
<!-- Generator: Adobe Illustrator 27.3.1, SVG Export Plug-In . SVG Version: 6.00 Build 0)  -->
<svg version="1.1" id="Layer_1" xmlns="http://www.w3.org/2000/svg" xmlns:xlink="http://www.w3.org/1999/xlink" x="0px" y="0px"
	 viewBox="0 0 1000 290" style="enable-background:new 0 0 1000 290;" xml:space="preserve">
<g>
	<g>
		<path style="fill-rule:evenodd;clip-rule:evenodd;" d="M973.92,213.12c5.74,0,10.36-4.64,10.36-10.39
			c0-5.7-4.62-10.34-10.36-10.34c-5.76,0-10.4,4.64-10.4,10.34C963.52,208.48,968.17,213.12,973.92,213.12z M973.92,211.88
			c-5.05,0-9.13-4.07-9.13-9.14c0-5.02,4.08-9.09,9.13-9.09c5.03,0,9.1,4.07,9.1,9.09C983.03,207.81,978.95,211.88,973.92,211.88z
			 M975.58,203.19c2.07-0.06,3.67-0.89,3.67-3.17c0-0.98-0.44-2.01-1.31-2.5c-0.87-0.52-1.85-0.57-2.83-0.57h-5.05v11.59h1.41v-5.35
			h2.61l3.31,5.35h1.68L975.58,203.19z M971.48,202.08v-4.1h3.32c1.44,0,3.02,0.22,3.02,2.01c0,2.36-2.53,2.09-4.16,2.09H971.48z"/>
	</g>
	<path style="fill-rule:evenodd;clip-rule:evenodd;" d="M917.4,94.28c6.82,0,15.36,1.66,21.37,10.71c0,0,4.11,5.59,4.11,6.86
		c0,0.29,1.53,2.81,1.53,6.15c0,0.77,0,0.55,0,1.1c0,2.2,0.18,4.61-4.83,4.61c-6.2,0-5.32,0-12.74,0c-7.12,0-5.32-6.37-10.76-6.37
		c-0.33,0-0.81,0-1.1,0c-3.87,0-5.71,2.92-5.71,6.37c0,5.58,10.1,5.74,10.1,9.66c0,0-2.07,6.81-3.52,7.03c0,0.15-2.85,5.6-2.85,5.71
		l-4.61,4.18c-1.02-0.66-1.41,0-1.76,0c0,0-8.21-1.65-13.84-9.01c-3.49-4.57-6.88-8.83-7.03-15.15c-0.04-1.93,0-3.23,0-5.05
		c0-2.33,1.13-14.18,12.52-21.09C903.63,96.75,909.12,94.28,917.4,94.28z M799.89,95.82h9.44c8.79,0,7.75,5.4,7.69,5.71l-0.07,86.98
		c0,2.28-1.27,7.03-4.32,7.03c-3.34,0-6.79,0-12.52,0c-2.04,0-8.15-1.1-6.81-4.83l-0.08-88.37
		C793.22,95.3,798.09,96.72,799.89,95.82z M833.28,134.26l30.75-0.07c0.42,0.48,3.52,1.66,3.52,6.88c0,4.53,0,8.37,0,10.33
		c0,0-1.14,3.95-4.17,5.05h-30.97c-5.38,0.48-6.81-1.82-6.81-6.59v-10.1C825.59,136.08,827.19,134.27,833.28,134.26z M930.36,135.58
		c1.69,0,10.8,5.36,13.17,10.1c0,0,6.15,8.72,6.15,16.03c0,2.63,0,4.18,0,6.81c0,0-3.04,9.93-3.3,10.54l-5.27,6.81
		c-0.97,1.96-11.72,8.58-15.15,9.66c-4.49,1.43-8.15,1.88-12.96,1.98c-4.17,0.08-16.3-5.69-19.77-9.66
		c-4.61-5.29-8.79-14.08-8.79-19.33c0-2.62,1.63-4.61,4.17-4.61h10.55c11.8,0,6.17,10.76,18.01,10.76c6.24,0,9.89-6.02,9.89-8.79
		v-2.42c0-7.18-7.25-9.11-7.25-12.08c0-0.35,2.37-6.13,4.39-8.79C925.68,140.68,927.79,135.58,930.36,135.58z M681.29,135.36
		c1.47,0,4.68,3.05,10.98,7.25c2.44,1.62,8.19,4.85,9.23,9c0,0-0.12,36.16-0.15,36.9c-0.15,3.23-0.91,4.17-0.73,4.39
		c-2.44,2.23-5.12,1.63-5.49,2.2c-0.39,0-10.83-0.66-13.4,0c-0.55-1.32-3.22-0.48-3.22-7.47c0-4.15,0.15-41.49,0.15-45.91
		C678.65,139.04,678.6,135.36,681.29,135.36z M656.9,171.82c0.2,0,4.54,0.72,4.39,5.93c0,0.35,0,8.1,0,11.86
		c0,3.58-2.04,4.61-4.17,4.61c-2.24,0-2.55,0.66-2.86,0.66c0,0-13.77,0.03-14.5,0c-6.78-0.35-9.33-1.25-9.44-6.59
		c0,0-0.02-9.09,0-9.45c0.51-5.53,2.31-6.96,5.27-7.03C640.98,171.71,647.31,171.82,656.9,171.82z M540.27,93.19
		c2.68,0,6.75-0.04,7.25,0c1.47,0.13,15.15,2.9,15.15,6.37c0,1.17-4.83,9.67-4.83,9.67c-1.21,1.05-3.84,7.03-7.25,7.03
		c0,0-7.69-1.54-7.91-1.54c-2.98,0-2.28,0-6.15,0c-12.71,2.18-12.71,4.92-17.06,9.08c-0.74,0.71-7.32,7.74-7.32,15.74
		c0,0.06,0,5.69,0,5.71c0,1.23,1.01,7.12,1.1,7.47c3.78,12.48,7.91,12.3,7.91,16.47c0,0.18-1.62,2.18-4.17,8.13
		c0,0-4.22,6.37-5.93,6.37c-3.05,0-9.93-5.36-14.5-14.5c-3.54-7.07-6.81-12.45-6.81-21.3c0-0.13-0.53-0.26,0-10.54
		c0.55-10.59,9.62-22.64,12.96-27.02c1.63-2.15,6.35-5.07,6.59-5.27C521.96,93.98,538.43,93.19,540.27,93.19z M572.34,104.17
		c3.87,0,11.75,11.18,12.3,11.64c1.45,1.25,7.03,13.1,7.03,15.82c0,1.03,1.76,8.39,1.76,8.56c0,2.66,0,3.17,0,5.49
		c0,0-1.53,10.5-1.53,11.86c0,0-4.61,10.2-5.49,10.33c-0.13,1.97-4.28,8.12-13.84,16.47c-2.35,2.04-21.24,9.66-23.5,9.66
		c-2.08,0-2.79,0.66-3.73,0.66c-4.24,0-8.72-0.66-14.5-0.66c-0.81,0-10.32-2.48-10.32-4.83c0-3.36,2.61-6.11,4.17-9.23
		c1.76-3.51,5.01-6.81,6.37-6.81h3.52c0.07,0,4.08,0.88,6.59,0.88c0,0,10.59-1.49,16.92-5.71c9.84-6.54,12.82-15.29,13.17-23.28
		c0.03-0.55,0-5.18,0-5.27c-1.87-13.31-9.66-14.46-9.66-19.55c0,0,0.62-4.07,4.39-9.01C567.62,109.02,569.71,104.17,572.34,104.17z
		 M396.19,94.28c0,0,11.34,0.37,14.5,0.37c0.31-0.04,4.4,2.89,4.39,5.57c0,0-0.29,79.62-0.29,85.44c0,8.15-2.58,6.37-4.1,7.69
		c-12.67,0-13.07,0.2-14.5,0c-2.83-0.4-4.61-3.05-4.61-5.05c-0.02-6.43-0.07-77.47-0.07-86.32
		C391.51,94.74,394.88,95.43,396.19,94.28z M427.38,132.28c0,0,18.63,0.29,18.67,0.29c3.54-0.09,4.81,2.43,4.39,7.61v7.91
		c0.26,0.59,0.04,7.52-4.17,7.32c0,0-15.35-0.08-17.13-0.08c-7.4,0-6.81-6.55-6.81-7.47c0-0.83-0.04-8.02,0-8.57
		C422.7,135.84,424.15,132.28,427.38,132.28z M137.68,93.11c1.8,0,4.17,0.34,4.17,2.49c0,2.48-49.64,84.12-49.64,84.12
		c-4.28,9.99-8.83,11.55-9.44,12.08c-0.57,0-6.46,0-9.01,0c-0.02,0-3.52-1.27-3.52-2.19c0-2.35,9.56-16.37,11.86-21.74l38-62.82
		c2.43-3.26,5.12-11.97,11.64-12.3C134.05,92.64,135.37,93.11,137.68,93.11z M158.76,92.75c8.85,0,14.12,0,20.43,0
		c0.13,0,2.42,2.57,2.42,2.64c0,3.32-53.37,90.6-53.37,91.81c0,0-3.75,5.8-10.1,4.84h-12.74c-0.83,0.2-9.44-0.38-9.44-2.42
		c0-2.79,8.9-15.38,12.08-21.74c0.55-1.13,36.81-62.71,38-62.6c-0.02-0.33,0-0.37,0-0.66c0-1.47,3.07-4.61,3.07-4.61
		C153.01,94.11,152.88,92.75,158.76,92.75z M245.96,92.97c0.48,0,6.15,0.46,6.15,2.86c0,1.95-26.6,44.57-26.62,44.86
		c-0.9,0.59-26.91,51.8-34.44,51.56c-1.1-0.02-36.9,0-52.06,0c-0.13,0-3.3-1.16-3.3-2.63c0-1.37,43.93-75.12,43.93-75.12
		c11.42-19.75,12.52-21.26,18.01-21.53C197.64,92.97,231.82,92.97,245.96,92.97z M113.96,92.97c1.6,0,2.85,1.63,2.85,2.86
		c0,0-12.39,22.6-19.11,31.41c-0.02,0.04-30.66,50.82-30.97,52.06c0,0-5.75,11.86-10.32,11.86c-1.34,0-2.86-0.64-2.86-1.97
		c0-2.4,8.15-14.83,14.06-25.04c3.32-5.73,38.26-64.27,40.64-66.99C108.25,97.14,110.07,92.97,113.96,92.97z M303.94,193.12
		c7.91,0,13.51,0,19.11,0c5.73,0,6.77-7.14,10.54-12.3c1.07-1.45,44.81-75.31,44.81-75.99c0,0,4.39-6.41,4.39-7.47
		c0-3.95-5.67-3.47-8.35-3.51c-43.69-0.86-36.77,0.72-52.27,0c-0.2,0-44.51,0.07-47.72,0.07l-9.82-0.07
		c-2.09,0.83-46.34,74.24-46.34,74.24c-1.85,3.56-11.64,18.93-11.64,21.53c0,2.32,4.22,3.66,7.25,3.66c14.8,0,41.34,0,50.74,0
		L303.94,193.12z M529.42,143.25c0-6.83,5.53-12.36,12.35-12.36c6.82,0,12.36,5.53,12.36,12.36c0,6.82-5.53,12.35-12.36,12.35
		C534.95,155.6,529.42,150.07,529.42,143.25z M471.09,194c6.74,0,9.66-1.47,9.66-8.35c0-29.65,0-19.48,0-38
		c0,0,0.29-44.3,0.29-48.54c0-3.4-5.21-5.49-11.49-4.61l-4.39-0.22c-4.99,0-8.18,2.46-7.98,8.88c0,0,0.07,75.5,0.07,84.91
		c0,6.79,7.21,5.87,7.91,5.93H471.09z M604.19,95.38c-3.4,0.44-3.87,4.92-3.73,10.54v50.96c0,0-0.86,0.13-0.88,2.85
		c0,0.74-0.02,26.78,0,29.44c0.02,2.42,1.78,5.27,4.61,5.27h5.27c6,0.66,5.78,0,9.23,0c2.66,0,4.39-2.44,4.39-3.52
		c0-5.24,0-8.89,0-10.76c0,0,0.57-0.02,0.66-2.85c0-0.11,0-47.49,0-77.1c0-5.32-3.03-5.05-5.94-5.05c-3.25,0-6.76,0-8.34,0
		L604.19,95.38z M743.88,211.5c-3.85,0-5.98-2.93-5.93-6.07c0-0.28,0.07-24.9,0.07-25.92c0-4.15-2.91-3.95-3.37-3.95
		c-0.98,0-4.35,2.41-7.24,2.41c-2.51,0-5.98-2.85-7.69-2.85c-1.67,0-2.62,3.78-2.85,11.64c-0.16,5.36,0,13.64,0,18.89
		c0,0,1.44,4.83-8.79,4.83c-6.5,0-110.56,0-117.51,0c-9.8,0-3.99-9.22-9.44-9.22c-2.46,0-18.06,10.76-35.14,10.76
		c0,0-8.91,0.7-9.23,0.66c-5.14-0.86-8.06-1.62-13.18-2.63c-1.54-1.1-1.25-0.07-12.08-4.39c-0.33-0.13-9.11-5.5-11.42-5.5
		c-2.66,0-1.93,4.61-3.51,7.25c-1.39,2.31-3.56,2.42-7.47,2.49c-18.01,0.38-40.04-0.03-41.95-0.07c-3.8-0.11-5.51-2.44-5.49-5.49
		c0.02-3.19-0.66-23.24-0.66-26.14c0-4.92-1.65-6.37-6.15-6.37c-4.17,0-4.09,5.93-4.17,11.64c-0.26,15.93,0,20.38,0,20.43
		c0,1.01-1.67,5.7-5.05,5.86c-14.94,0.7-24.45,0-45.69,0c-4.79,0-5.27-7.11-5.27-14.21c0-17.33,0-24.4,0-41.73
		c0-0.28-0.13-4.61-1.76-4.61c-1.71,0-4.06,4.65-10.76,15.15c-8.94,13.97-15.16,25.9-22.62,37.12c-0.61,0.92-3.47,7.29-7.91,7.47
		c0,0-17.43,0.53-21.47,0l-45.52-0.22c-2.61,0.51-224.25,0.6-234.8,0.07c0,0-4.83-0.82-4.83-2.93c0-3.32,12.32-22.32,13.84-25.26
		c3.58-6.92,12.65-20.27,14.72-24.6c0.22-0.46,12.21-21.26,14.72-24.6c0,0,6.17-10.78,7.25-11.86c0.04-0.04,6.85-11.69,6.81-12.08
		c0.44-0.18,10.15-16.14,10.76-17.35c7.99-15.42,11.55-11.64,13.62-11.64c33.08,0,64.71,0,157.92,0l95.32,0c0,0,27.61,0,66.33,0
		c3.12,0,5.05,2.83,5.05,6.81c0,2.33,0,19.22,0,23.94c0,5.23,2.68,7.03,6.37,7.03c0,0,4.17-0.37,4.17-5.49
		c0-1.27,0.66-24.69,0.66-27.02c0-2.24,1.34-4.9,3.52-4.9c0.86,0,17.57,0.78,19.11,0.07h11.55c0.28,0.04,2.51,0,17.66,0
		c0,0,0.04,0.59,0.66,0.88c5.21,2.48,1.93,8.79,6.15,8.79c0.22,0,10.06-4.61,10.32-5.27c0.59,0.02,7.29-3.3,10.76-3.3
		c0,0,7.52-2.01,13.93-3.38c0.68-0.15,12.87,0.75,15.29,0.97c19.49,1.78,27.34,11.2,30.53,11.2c4.46,0,1.47-9.01,7.69-9.01
		c0,0,26.86,0,41.95,0c9.01,0,7.91,4.74,7.91,8.35v60.84c0.02,2.92,1.21,6.81,4.17,6.81c8.65,0,8.06,0,14.06,0
		c1.71,0,3.52-1.65,3.52-5.27c0,0,0.66-0.42,0.66-2.85c0-23.48,0.66-53.18,0.66-56.89c0-3.05,0.66-6.68,0.66-7.69
		c0,0,1.23-3.51,7.03-3.51c0.99,0,4.88,0,11.4,0c3.28,0,12.5,6.88,18.69,11.64c10.63,8.21,18.27,13.84,19.11,13.84
		c0.97,0,2.33,3.95,8.79,3.95c3.64,0,32.28-21.31,32.28-21.31l12.3-7.25h99.06c3.03,0,6.19-0.07,7.69-0.07
		c5.91,0,4.13,6.66,7.69,6.66c1.63,0,1.01,0,2.42,0c0.24,0,5.59-3.68,6.81-3.95c4.35-0.97,10.81-3.93,10.98-3.95
		c4.35-0.68,12.28-0.66,12.74-0.66c0,0,12.48,1.9,20.06,6.66c15.22,9.55,20.88,24.37,21.46,35.95c0.02,0.68,0,6.44,0,10.54
		c0,0-1.54,1.76-1.54,6.15c0,2.61,5.96,13.42,6.15,21.96c0.04,2.72,0,4.64,0,6.59c0,27.68-27.55,48.39-48.76,47
		c0,0-9-0.53-10.1-0.66l-10.32-3.29c0,0-9.5-5.49-10.98-5.49c-3.72,0-1.67,7.53-8.35,7.69C874.85,211.64,748.89,211.5,743.88,211.5z
		 M760.57,195.76c0.71,0.09,2.75,0,12.3,0c3.75,0,4.31-5.89,5.12-7.03c0,0-0.08-84.43-0.08-86.32c0,0-0.92-4.39-2.41-4.39
		c-2.48,0-12.12,7.93-14.94,9.23c0,0-16.29,12.13-22.83,16.03c-2.59,1.54-5.78,5.27-9.89,5.27c-2.52,0-22.38-14.43-23.06-14.93
		c-14.19-10.96-14.71-10.41-16.25-11.64c-0.07-0.04-5.43-4.61-6.81-4.61c-3.01,0-3.01,3.52-3.08,5.93
		c-0.57,16.25,0.09,10.79,0,16.69c-0.06,4.37,4.48,6.94,10.76,11.42c0,0,27.54,20.38,27.6,20.43c2.79,2.53,8.56,5.93,11.5,5.93
		c2.55,0,18.69-13.4,22.19-13.4c2.46,0,2.85,2.08,2.85,4.61c0,0.16,0.04,36.88,0,41.73c-0.03,2.35,1.25,3.19,2.63,4.17
		L760.57,195.76z M833.28,95.82l30.75-0.07c0.42,0.48,3.52,1.66,3.52,6.88c0,4.52,0,8.37,0,10.32c0,0-1.14,3.95-4.17,5.05h-30.97
		c-5.38,0.49-6.81-1.82-6.81-6.59v-10.1C825.59,97.65,827.19,95.84,833.28,95.82z M833.28,173.06l30.75,0.29
		c0.42,0.48,3.52,1.65,3.52,6.88c0,4.53,0,8.37,0,10.32c0,0-1.14,3.95-4.17,5.05h-30.97c-5.38,0.49-6.81-1.82-6.81-6.59v-10.1
		C825.59,175.25,827.19,173,833.28,173.06z"/>
</g>
</svg>
