<?xml version="1.0" encoding="UTF-8"?>
<svg id="Layer_1" xmlns="http://www.w3.org/2000/svg" width="745" height="247" version="1.1" viewBox="0 0 745 247">
  <!-- Generator: Adobe Illustrator 29.0.1, SVG Export Plug-In . SVG Version: 2.1.0 Build 192)  -->
  <path d="M158.5,53.3c-2.7-2.9-6.8-3.8-11-2.5-47.7,14.8-95.7,27.2-134.3,10.9.6,1.5,1.3,2.9,2.1,4.3v68.5c-1,2.3-1.1,4.9-.1,7.2.7,2,2.2,5.1-.9,6-5,1.5-5.4-7.4-10.3-8.2,0,1.2.9,1.7,1.3,2.7.3,1,.6,2.1.7,3.1.3,1.7.9,3.4,1.7,4.9,1.8,3.9,5.8,5.2,10.1,4.1,4.1-1,5.9-5,5.4-9-.3-2.1-1.5-3.6-2.5-5.4s-1.8-3.2-1.8-5.5v-63.4c16,19.6,54.9,31.2,76.9,35.7l-28.9,76.9h48.8l44.8-119.2c1.4-4.1.7-8.2-2-11.1ZM230.4,30.5c-2.8-2.9-6.8-3.8-11.1-2.4l-35,11.1-54.3,144.4h49l53.3-141.9c1.6-4.2.9-8.3-1.9-11.2ZM304.2,19c1.7-4.3,1-8.4-1.7-11.3-2.8-2.9-6.8-3.8-11.1-2.4l-35,11.1-63.9,169.3c-6,16.8-4.3,50.5,59.8,56.4-28.8-19-6.3-68.9,1.6-89.9,12.1-32.1,34.9-92.4,50.3-133.2ZM287.3,103.1h53l10-27h-52.3l-10.7,27ZM284.8,112.7l-27.4,70.1h53.8l25.9-70.1s-52.3,0-52.3,0ZM366.3,75.9l-40.6,106.9h51l39.1-106.9h-49.5ZM734,87.6c-6.6-5.8-16.1-8.9-24.5-9.7-9.5-.9-19.1,1.1-27.5,5.8-2.5-4.6-4.2-7.8-10.3-7.8h-40.6l-42.1,107.7h54.8l34.8-87.5c1.7-4.5,14.1-4.8,13.4,0l-9.2,26.8h53l4.2-8.3c2.8-9.1,1.7-20.5-6-27ZM433.4,75.8l-40.6,106.8h51l39.1-106.8h-49.5ZM578.4,171.5h-49.7c-3.8,0-6.7-3.5-6.9-7.2l6.8-21.4h62.8l12.9-34c5.2-13.6,0-33.1-16.3-33.1h-73.2c-15.1,0-24,13.9-28.9,27.6l-16.4,45.5c-6.6,18.5,10.6,34.8,27.8,34.8h76.7c3.3,0,6.2-2.9,6.8-6.1.4-2.3-.5-4.7-2.4-6.1ZM546.9,94.6c2.1-6.6,12.3-6.1,10.3,0l-12.5,36.7h-11.1l13.3-36.7ZM260.3,221.5h3.6v-20.8h-3.6v20.8ZM306.3,215.1l-11.1-14.4h-3.4v20.8h3.6v-14.8l11.5,14.8h3v-20.8h-3.6v14.4ZM353.3,203.7c-1-1-2.2-1.7-3.5-2.2-1.5-.5-3-.8-4.5-.8h-7.8v20.9h7.8c1.6,0,3.1-.3,4.5-.8,1.3-.5,2.5-1.2,3.5-2.2,1-.9,1.8-2.1,2.3-3.3.5-1.3.8-2.7.8-4.1h0c0-1.5-.3-2.9-.8-4.2-.6-1.3-1.3-2.4-2.3-3.3ZM352.6,211.2c0,.9-.1,1.9-.5,2.8-.4.8-.9,1.6-1.5,2.2-.7.7-1.4,1.2-2.3,1.5-1,.3-2,.5-3,.5h-4.1c0,.1,0-14.1,0-14.1h4.1c1-.1,2,.1,3,.5.9.4,1.7.9,2.3,1.5.7.6,1.2,1.4,1.5,2.2.3.9.5,1.8.5,2.8h0ZM397,212.7c.1,1.5-.4,3.1-1.4,4.3-1.1,1-2.5,1.5-3.9,1.4-1.5.1-2.9-.5-3.9-1.5-1-1.2-1.5-2.8-1.4-4.4v-11.9h-3.6v12c-.1,1.4.2,2.7.6,4,.4,1.1,1,2.1,1.8,2.9.8.7,1.8,1.3,2.8,1.7,1.1.4,2.4.6,3.6.6s2.5-.2,3.8-.5c1-.4,2-1,2.8-1.8s1.4-1.8,1.8-2.9c.4-1.3.6-2.7.6-4.1v-11.8h-3.6v12ZM440.7,211.7c-.6-.5-1.3-.9-2.1-1.2-.9-.3-1.9-.7-2.9-.9s-1.9-.5-2.5-.7c-.5-.2-1-.4-1.5-.7-.4-.2-.6-.5-.8-.8-.1-.4-.2-.7-.2-1.1h0c0-.8.3-1.5.9-1.9.7-.5,1.6-.8,2.5-.7.9,0,1.9.1,2.8.5,1,.4,1.9,1,2.8,1.6l2-2.8c-1-.9-2.2-1.5-3.4-2-1.3-.5-2.7-.7-4.1-.7s-2,.2-2.9.5c-.8.2-1.5.7-2.2,1.2-1.3,1.1-2,2.7-2,4.4h0c0,.9.2,1.7.5,2.5.3.7.7,1.2,1.3,1.7.7.5,1.4.9,2.2,1.2,1,.4,2,.7,3,.9.8.1,1.6.3,2.4.6.5.2,1,.4,1.4.7s.6.6.8.9c.1.3.2.7.2,1h0c0,.9-.4,1.6-1,2-.8.5-1.8.8-2.7.7-1.2,0-2.4-.2-3.5-.7-1.2-.5-2.2-1.2-3.1-2l-2.2,2.6c1.2,1.1,2.6,1.9,4.1,2.5,1.5.5,3,.8,4.6.8s2-.2,3-.3c.8-.2,1.6-.6,2.3-1.2.6-.5,1.2-1.2,1.5-2s.5-1.7.5-2.6h0c0-.8-.1-1.6-.4-2.3s-.8-1.2-1.3-1.7ZM467.6,204.1h6.6v17.4h3.7v-17.4h6.6v-3.4h-16.9v3.4h0ZM524.8,212.7c.6-.3,1.2-.8,1.6-1.3s.8-1.1,1-1.8c.3-.7.4-1.5.4-2.3h0c0-1-.2-1.8-.5-2.6-.3-.7-.7-1.4-1.3-2-.7-.7-1.6-1.2-2.5-1.5-1.1-.3-2.3-.5-3.5-.5h-9.3v20.8h3.6v-7.2h4.6l5.1,7.2h4.4l-5.6-7.9c.7-.2,1.4-.5,2-.9ZM514.4,211v-7h5.3c1.1,0,2.3.3,3.2.9.7.6,1.2,1.6,1.1,2.6h0c0,1-.4,2-1.2,2.6-.9.6-2,1-3.1.9h-5.3ZM554.7,221.5h3.6v-20.8h-3.6v20.8ZM589.7,212.7h10.4v-3.3h-10.4v-5.4h11.8v-3.3h-15.4v20.9h15.5v-3.3h-11.9v-5.6h0ZM641.3,211.7c-.6-.5-1.3-.9-2.1-1.2-.9-.3-1.9-.7-2.9-.9s-1.9-.5-2.5-.7c-.5-.2-1-.4-1.5-.7-.4-.2-.6-.5-.8-.8,0-.4-.2-.7-.2-1.1h0c0-.8.3-1.5.9-1.9.7-.5,1.6-.8,2.5-.7.9,0,1.9.1,2.8.5,1,.4,1.9,1,2.8,1.6l2-2.8c-1-.9-2.2-1.5-3.4-2-1.4-.5-2.8-.7-4.2-.6-.9,0-1.9.2-2.8.5-.8.2-1.5.7-2.2,1.2-1.3,1.1-2,2.7-2,4.4h0c0,.9.2,1.7.5,2.5.3.7.7,1.2,1.3,1.7.7.5,1.4.9,2.2,1.2,1,.4,2,.7,3,.9.8.1,1.6.3,2.4.6.5.2,1,.4,1.4.7.3.2.5.5.7.8,0,.3.2.7.2,1h0c0,.9-.4,1.6-1,2-.8.5-1.8.8-2.7.7-1.2,0-2.4-.2-3.5-.7-1.2-.5-2.2-1.2-3.1-2l-2.2,2.6c1.2,1.1,2.6,1.9,4.1,2.5s3.1.8,4.7.8,2-.2,3-.3c.8-.2,1.6-.6,2.3-1.2.6-.5,1.2-1.2,1.5-2s.5-1.7.5-2.6h0c0-.8,0-1.6-.4-2.3s-.8-1.2-1.3-1.7Z"/>
  <path d="M664.2,174.6c.4,0,1.1-.1,1.7-.1.9,0,1.5.2,1.9.5.3.3.5.8.5,1.3,0,.9-.6,1.5-1.3,1.7h0c.5.2.8.7,1,1.4.2.9.4,1.6.5,1.8h-.9c-.1-.2-.3-.8-.5-1.6-.2-.9-.6-1.3-1.3-1.3h-.8v2.9h-.9v-6.6ZM665,177.6h.9c.9,0,1.5-.5,1.5-1.3s-.6-1.2-1.5-1.3c-.4,0-.7,0-.9,0v2.5Z"/>
  <path d="M666,184c-3.4,0-6.1-2.7-6.1-6.1s2.7-6.1,6.1-6.1,6.1,2.7,6.1,6.1-2.7,6.1-6.1,6.1ZM666,172.5c-3,0-5.4,2.4-5.4,5.4s2.4,5.4,5.4,5.4,5.4-2.4,5.4-5.4-2.4-5.4-5.4-5.4Z"/>
</svg>