<svg id="Layer_1" data-name="Layer 1" xmlns="http://www.w3.org/2000/svg" viewBox="0 0 372.1 78.5"><defs><style>.cls-1{fill:#939596;}.cls-2{fill:#dbdcdd;}</style></defs><title>LogoNRC</title><path class="cls-1" d="M373.34,114.5a3.83,3.83,0,0,0,3.74-3.1l9.61-49s-54,6.54-65.8,52.09Z" transform="translate(-18.91 -36)"/><path class="cls-1" d="M316.73,36l70.42,0a3.83,3.83,0,0,1,3.78,4.56l-1.85,10.61c-41.35-12.57-64.7-8.86-73.91-6.28Z" transform="translate(-18.91 -36)"/><path class="cls-1" d="M312.09,62.15l1.27-7.46.06-.15c14.93-8.77,42.92-5.65,61.4-2.2l.48.13c-36.14-2.85-54.63,4.43-63,9.56Z" transform="translate(-18.91 -36)"/><path class="cls-1" d="M306.37,93.39l3.15-17.9,0-.1c13.81-11.36,38.26-15.95,56.14-17.8l.15.14a115,115,0,0,0-59.25,35.39Z" transform="translate(-18.91 -36)"/><path class="cls-2" d="M97,114.3H78.07l-32.47-56-10.18,56H18.91l14-78.16H51.74L84.24,93.27,94.45,36.14H111Z" transform="translate(-18.91 -36)"/><path class="cls-2" d="M184.92,114.3H168.4l3.4-18.93a4.27,4.27,0,0,0-.88-3.31,3.65,3.65,0,0,0-3-1.42H127.79l-4.44,23.64H106.82l14-78.29,68.58.13a7.6,7.6,0,0,1,6.27,2.8,8,8,0,0,1,1.54,6.73l-4.7,27.25a11.92,11.92,0,0,1-11.39,9.45,7.51,7.51,0,0,1,6.63,3.31,5.27,5.27,0,0,1,.83,2.83q.36,3.19.35,3.31Zm-8.46-45,2.12-11.84a3.94,3.94,0,0,0-.77-3.32,3.78,3.78,0,0,0-3.14-1.42H134.45L130.52,74l40.37,0a5.42,5.42,0,0,0,3.56-1.4A5.61,5.61,0,0,0,176.47,69.35Z" transform="translate(-18.91 -36)"/><path class="cls-2" d="M286.7,36.14l-3,16.63h-56.8a5.28,5.28,0,0,0-3.61,1.42,5.81,5.81,0,0,0-2,3.31L215,93a3.93,3.93,0,0,0,.77,3.31,3.77,3.77,0,0,0,3.13,1.42h56.8l-3,16.57H204.1a7.65,7.65,0,0,1-6.21-2.78,7.8,7.8,0,0,1-1.6-6.69l10.65-59.22a11.27,11.27,0,0,1,4-6.69,10.79,10.79,0,0,1,7.16-2.78Z" transform="translate(-18.91 -36)"/></svg>