<?xml version="1.0" encoding="utf-8"?>
<!-- Generator: Adobe Illustrator 27.3.1, SVG Export Plug-In . SVG Version: 6.00 Build 0)  -->
<svg version="1.1" id="Layer_1" xmlns="http://www.w3.org/2000/svg" xmlns:xlink="http://www.w3.org/1999/xlink" x="0px" y="0px"
	 viewBox="0 0 650 290" style="enable-background:new 0 0 650 290;" xml:space="preserve">
<g>
	<g>
		<path style="fill-rule:evenodd;clip-rule:evenodd;" d="M19.74,32.29c35.17,0.7,70.34,1.39,105.51,2.09
			c0.7-4.44,1.39-8.87,2.09-13.31c8.78,0,17.56,0,26.33,0c0.32-2.05,0.64-4.1,0.97-6.15c38.53,0,77.05,0,115.58,0
			c-0.49,3.11-0.98,6.22-1.46,9.33c10.62,0,21.24,0,31.85,0c-0.71,4.52-1.42,9.04-2.13,13.57c13.65,0.27,27.3,0.54,40.95,0.81
			c9.28,0.18,14.26,7.07,14.43,13.23c0.13,4.58-1.94,9.62-6.85,11.98c-12.29,5.91-23.89,9.32-35.48,13.41
			c-7.75,2.74-15.54,5.98-16.32,10.98c-0.53,3.4-0.96,8.45,8,10.21h22.08L270.47,242.9h-41.87l49.99-131.73
			c-46.36,0-92.72,0-139.08,0c-8.86,0-11.63-4.35-10.32-12.73c1.91-12.14-4.52-13.63-11.65-15.03c-16-3.83-41.32-8.05-63.33-17.55
			c-15.07-6.5-28.59-15.61-36.53-28.19C16.09,34.25,15.97,32.22,19.74,32.29L19.74,32.29z M52.04,13.16h51.47l-3.08,17.18
			c-17.1-0.34-34.19-0.68-51.28-1.02L52.04,13.16L52.04,13.16z M91.12,82.12L69.82,200.83l41.89-76.03h46.78L92.3,242.9H10.8
			l31.7-177.76C56.41,73.33,75.43,79.56,91.12,82.12L91.12,82.12z M430.61,141.34c4.53-11.83,15.74-17.71,29.75-17.71
			c16.19,0,25.02,9.1,28.44,17.71c2.11-5.51,4.22-11.02,6.33-16.54c13.83,0,27.67,0,41.5,0c-15.07,39.37-30.14,78.74-45.21,118.1
			c-13.83,0-27.67,0-41.5,0c0.27-0.71,0.54-1.41,0.81-2.12c-4.72,1.7-17.07,4.37-30.24,4.37c-13.51,0-27.27-6.15-22.31-19.11
			C408.54,198.99,420.25,168.39,430.61,141.34L430.61,141.34z M477.37,168.88l-14.97,39.46c-1.31,3.46-5.01,7.23-9.46,7.23
			c-4.34,0-6.88-4.77-5.31-8.9l15.33-40.39c1.31-3.47,5.1-6.26,9.43-6.26C476.74,160.02,479.07,164.38,477.37,168.88L477.37,168.88z
			 M317.08,149.36c6.06-15.96,11.79-24.56,31.61-24.56c18.94,0,35.41,0,54.34,0c15.22,0,21.28,6.05,15.24,21.94
			c-3.22,8.5-6.45,16.99-9.67,25.49h-41.87l3.39-8.92c1.82-4.81-0.67-9.48-5.33-9.48c-4.63,0-8.68,2.99-10.09,6.7l-16.39,43.19
			c-1.67,4.41,1.03,9.52,5.68,9.52c4.76,0,8.71-4.03,10.11-7.73l3.05-8.04h41.87c-3.46,9.13-6.93,18.26-10.39,27.39
			c-4.73,12.46-14.71,18.05-30.02,18.05c-17.35,0-36.89,0-54.23,0c-15.46,0-19.01-9.99-13.17-25.38
			C298.72,197.72,309.56,169.16,317.08,149.36L317.08,149.36z M216.98,242.9h-42.53l1.54-4.05c-7.77,2.74-16.44,4.88-25.15,4.88
			c-17,0-29.65-6.56-24.77-19.4c12.7-33.45,24.78-66.07,37.48-99.52c14.18,0,28.35,0,42.53,0c-9.94,26.18-19.89,51.56-29.83,77.74
			c-3.99,11.34,9.06,13.2,12.86,3.21l30.74-80.95h41.98L216.98,242.9L216.98,242.9z M543.29,124.8h41.87l-1.54,4.05
			c7.66-2.74,16.21-4.05,24.78-4.05c16.73,0,29.15,6.56,24.27,19.4c-12.69,33.45-24.76,65.25-37.45,98.7c-13.95,0-27.91,0-41.87,0
			c9.94-26.18,19.87-51.56,29.81-77.74c3.99-11.34-8.31-13.2-12.1-3.21l-30.72,80.95h-41.87L543.29,124.8L543.29,124.8z"/>
	</g>
	<g>
		<path d="M634.34,231.59c0,6.39-5.01,11.39-11.53,11.39c-6.45,0-11.6-5.01-11.6-11.39c0-6.24,5.15-11.26,11.6-11.26
			C629.33,220.33,634.34,225.34,634.34,231.59z M614.09,231.59c0,5.01,3.71,8.99,8.79,8.99c4.94,0,8.58-3.98,8.58-8.92
			c0-5.01-3.64-9.06-8.65-9.06C617.8,222.6,614.09,226.65,614.09,231.59z M621.02,237.49h-2.61v-11.26
			c1.03-0.21,2.47-0.34,4.33-0.34c2.13,0,3.09,0.34,3.91,0.82c0.62,0.48,1.1,1.37,1.1,2.47c0,1.24-0.96,2.19-2.33,2.6v0.14
			c1.1,0.41,1.71,1.24,2.06,2.75c0.34,1.72,0.55,2.4,0.83,2.81h-2.81c-0.34-0.41-0.55-1.44-0.9-2.75c-0.21-1.24-0.89-1.78-2.33-1.78
			h-1.24V237.49z M621.09,231.11h1.24c1.44,0,2.6-0.48,2.6-1.65c0-1.03-0.75-1.72-2.4-1.72c-0.69,0-1.16,0.07-1.44,0.14V231.11z"/>
	</g>
</g>
</svg>
