<?xml version="1.0" encoding="UTF-8" standalone="no"?><!DOCTYPE svg PUBLIC "-//W3C//DTD SVG 1.1//EN" "http://www.w3.org/Graphics/SVG/1.1/DTD/svg11.dtd"><svg width="100%" height="100%" viewBox="0 0 3372 1738" version="1.1" xmlns="http://www.w3.org/2000/svg" xmlns:xlink="http://www.w3.org/1999/xlink" xml:space="preserve" xmlns:serif="http://www.serif.com/" style="fill-rule:evenodd;clip-rule:evenodd;stroke-linejoin:round;stroke-miterlimit:2;"><g id="Western_Star_Trucks_logo.svg.png"><path d="M2442.341,264.313c12.146,-2.098 12.182,-1.834 49.528,-1.834c477.214,0 477.166,-0.048 480.553,0.389c12.901,1.663 16.782,8.055 16.929,8.214c2.616,2.833 2.407,2.965 3.784,6.546c0.383,0.996 2.454,6.381 1.219,13.283c-0.226,1.26 -1.02,2.411 -1.066,3.69c-0.032,0.885 1.106,1.676 0.841,2.521c-0.206,0.657 -1.619,-0.205 -4.387,7.403c-1.038,2.852 -30.173,69.685 -31.199,71.762c-0.198,0.401 -0.712,0.629 -0.816,1.064c-0.149,0.625 0.339,1.327 0.102,1.924c-0.186,0.468 -0.958,0.461 -1.22,0.891c-1.624,2.654 -0.391,3.053 -1.785,5.81c-0.23,0.454 -0.969,0.465 -1.233,0.9c-0.305,0.503 0.291,0.703 -2.801,6.801c-1.691,3.336 -1.393,3.397 -3.062,6.681c-0.156,0.307 -2.066,5.179 -2.204,5.629c-0.299,0.976 -0.255,2.067 -0.715,2.978c-0.23,0.456 -0.974,0.464 -1.242,0.899c-0.617,1.003 0.384,1.385 -5.916,13.477c-1.413,2.713 -0.878,2.892 -2.222,5.603c-2.424,4.891 -14.836,34.763 -19.879,46.057c-11.035,24.715 -11.143,24.652 -12.002,26.842c-0.429,1.096 -3.908,9.97 -5.739,13.544c-0.556,1.085 -0.516,1.08 -9.981,23.007c-5.455,12.636 -5.997,12.353 -7.349,16.126c-0.343,0.957 -0.394,2.026 -0.878,2.919c-0.237,0.437 -1.162,0.403 -1.189,0.9c-0.074,1.344 1.086,0.987 1.011,2.343c-0.773,0.857 -1.255,-0.286 -2,0.54c-0.16,0.177 -0.221,0.245 -1.017,2.807c-0.306,0.983 -0.319,2.069 -0.784,2.988c-0.226,0.446 -0.932,0.483 -1.191,0.91c-1.61,2.646 -0.438,3.052 -1.831,5.792c-0.228,0.449 -0.956,0.466 -1.214,0.898c-0.419,0.704 -1.812,6.057 -7.779,19.243c-2.599,5.744 -31.29,71.389 -33.053,75.677c-3.659,8.897 -3.563,8.872 -3.949,9.608c-0.225,0.43 -0.924,0.477 -1.134,0.916c-1.598,3.35 -1.305,3.417 -2.842,6.797c-3.484,7.661 -2.631,7.945 -2.96,8.594c-0.229,0.452 -0.965,0.458 -1.231,0.889c-1.624,2.636 -0.381,3.069 -1.785,5.802c-0.236,0.46 -1.034,0.436 -1.264,0.899c-0.89,1.793 -1.227,3.816 -1.995,5.664c-0.021,0.05 -2.821,6.202 -3.066,6.742c-3.676,8.077 -3.45,8.107 -6.917,16.31c-0.863,2.041 -8.648,19.258 -8.989,20.143c-4.08,10.59 -12,27.342 -12.933,29.736c-4.753,12.2 -15.751,35.725 -16.024,36.413c-2.086,5.24 -1.56,5.382 -1.779,5.816c-0.23,0.456 -0.983,0.447 -1.253,0.881c-1.655,2.665 -0.382,3.076 -1.784,5.807c-0.234,0.457 -0.986,0.455 -1.254,0.893c-0.525,0.858 -0.699,1.887 -1.03,2.836c-0.274,0.784 -1.701,4.87 -4.038,9.557c-4.289,8.599 -3.41,8.929 -3.783,9.671c-0.227,0.451 -0.957,0.47 -1.219,0.901c-0.431,0.709 -0.011,0.872 -3.829,9.645c-15.722,36.125 -15.851,36.05 -17.083,39.244c-3.281,8.506 -12.332,28.354 -12.905,29.755c-6.653,16.264 -7.625,15.795 -7.978,17.275c-0.15,0.626 0.362,1.327 0.13,1.927c-0.183,0.473 -0.961,0.468 -1.225,0.901c-1.947,3.188 -1.111,3.525 -2.812,6.805c-0.183,0.353 -9.985,22.846 -10.057,22.978c-1.482,2.699 -0.777,2.962 -2.197,5.654c-0.221,0.419 -0.857,0.498 -1.093,0.909c-1.55,2.708 -0.407,3.081 -1.812,5.81c-0.232,0.45 -0.999,0.44 -1.23,0.891c-4.724,11.62 -4.556,11.633 -9.599,23.177c-1.703,3.898 -20.662,47.296 -21.239,48.747c-0.614,1.542 -5.648,14.18 -7.981,19.147c-5.765,12.27 -5.568,12.334 -6.084,13.391c-4.21,8.621 -3.444,8.92 -3.818,9.662c-0.224,0.446 -0.935,0.475 -1.196,0.901c-1.602,2.623 -0.389,3.044 -1.8,5.808c-0.232,0.454 -0.986,0.443 -1.252,0.878c-1.625,2.662 -0.341,3.078 -1.773,5.811c-0.241,0.459 -1.039,0.433 -1.271,0.896c-0.896,1.791 -1.231,3.817 -2.008,5.663c-0.85,2.021 -1.126,1.816 -1.941,3.919c-3.218,8.306 -3.286,8.214 -6.74,16.4c-8.315,19.707 -9.744,21.748 -11.973,26.874c-0.662,1.521 -7.655,17.599 -8.215,19.038c-5.517,14.176 -11.72,26.525 -12.983,29.717c-3.983,10.073 -4.721,9.678 -4.939,10.586c-0.15,0.624 0.356,1.326 0.118,1.922c-0.189,0.473 -0.974,0.457 -1.242,0.889c-1.648,2.664 -0.396,3.063 -1.784,5.811c-0.229,0.453 -1.01,0.437 -1.233,0.893c-1.621,3.309 -1.239,3.388 -2.803,6.807c-6.293,13.757 -5.42,14.097 -6.018,15.265c-0.236,0.461 -0.998,0.452 -1.272,0.891c-1.649,2.639 -0.389,3.046 -1.798,5.799c-0.231,0.452 -1.226,0.389 -1.233,0.898c-0.012,0.902 1.485,1.578 1.189,2.43c-1.008,2.895 -2.713,1.615 -3.925,4.41c-0.426,0.983 -3.909,9.014 -5.219,12.328c-4.576,11.578 -12.198,27.833 -12.937,29.73c-4.258,10.936 -15.685,35.742 -15.962,36.438c-1.494,3.756 -1.822,3.556 -1.903,3.893c-0.15,0.62 0.342,1.317 0.109,1.911c-0.184,0.47 -0.952,0.475 -1.213,0.907c-1.933,3.197 -1.068,3.503 -2.753,6.821c-3.062,6.03 -2.361,6.268 -5.326,12.286c-4.241,8.608 -3.374,8.935 -3.749,9.676c-0.231,0.457 -0.976,0.464 -1.245,0.899c-0.527,0.852 -0.72,1.871 -1.05,2.817c-2.927,8.383 -3.888,7.937 -6.984,16.293c-0.274,0.443 -0.947,0.531 -1.221,0.974c-1.498,2.419 -0.392,5.716 -10.631,13.302c-4.465,3.308 -5.124,1.932 -6.872,3.099c-0.395,0.264 -0.083,1.187 -0.539,1.319c-0.865,0.25 -1.773,-0.443 -2.672,-0.391c-1.219,0.071 -2.374,0.603 -3.586,0.754c-0.852,0.106 -15.12,0.106 -16.435,0.106c-608.207,-0.014 -608.169,0.144 -618.633,-0.565c-0.402,-0.275 -0.165,-1.071 -0.566,-1.346c-2.494,-1.708 -3.022,-0.271 -5.571,-1.823c-0.532,-0.324 -0.616,-1.124 -1.11,-1.504c-0.706,-0.542 -1.704,-0.623 -2.393,-1.186c-0.569,-0.465 -0.723,-1.309 -1.264,-1.805c-0.594,-0.545 -1.514,-0.668 -2.069,-1.253c-0.581,-0.612 -0.606,-1.642 -1.225,-2.216c-0.558,-0.519 -1.643,-0.279 -2.108,-0.883c-1.838,-2.389 -0.135,-3.046 -1.727,-5.648c-0.282,-0.462 -1.038,-0.483 -1.32,-0.945c-1.742,-5.284 -1.619,-5.302 -1.881,-5.706c-0.293,-0.45 -1.083,-0.418 -1.346,-0.886c-1.527,-2.719 0.083,-3.293 -1.775,-5.782c-0.367,-0.492 -1.382,-0.195 -1.691,-0.725c-1.599,-2.74 0.547,-3.41 -1.37,-5.971c-0.388,-0.519 -1.505,-0.104 -1.826,-0.667c-1.592,-2.802 0.757,-3.525 -1.207,-6.036c-0.41,-0.524 -1.663,-0.01 -1.893,-0.634c-0.271,-0.736 0.911,-1.413 0.85,-2.195c-0.038,-0.489 -0.871,-0.544 -1.097,-0.979c-0.465,-0.895 -0.262,-2.113 -0.911,-2.885c-0.445,-0.529 -1.748,0.078 -1.996,-0.567c-0.288,-0.752 0.981,-1.43 0.923,-2.233c-0.036,-0.502 -0.918,-0.53 -1.154,-0.974c-0.473,-0.89 -0.573,-1.933 -0.899,-2.887c-0.323,-0.945 -0.457,-2.002 -1.046,-2.808c-0.344,-0.472 -1.276,-0.272 -1.571,-0.776c-1.578,-2.701 0.327,-3.33 -1.503,-5.92c-0.356,-0.504 -1.402,-0.184 -1.704,-0.721c-1.548,-2.754 0.523,-3.399 -1.32,-5.987c-0.357,-0.501 -1.488,-0.146 -1.697,-0.725c-0.251,-0.695 0.755,-1.38 0.671,-2.114c-0.054,-0.475 -0.805,-0.577 -1.027,-1c-1.408,-2.674 -0.798,-2.883 -2.181,-5.618c-6.134,-12.121 -5.432,-12.399 -6.019,-13.419c-0.245,-0.426 -0.858,-0.566 -1.079,-1.005c-1.368,-2.716 -0.459,-3.043 -1.994,-5.685c-0.246,-0.424 -0.869,-0.551 -1.088,-0.99c-0.323,-0.647 0.377,-0.889 -3.097,-8.494c-3.344,-7.321 -3.656,-7.152 -3.944,-7.789c-0.819,-1.814 -1.317,-3.761 -2.136,-5.575l-1.671,-0.731c-0.911,-1.324 -0.008,-1.619 -0.898,-2.914c-1.112,-1.617 -1.59,-0.617 -1.626,-0.756c-0.198,-0.758 1.059,-1.432 0.856,-2.189c-0.156,-0.584 -1.321,-0.251 -1.646,-0.761c-0.544,-0.853 -0.136,-2.123 -0.721,-2.949c-0.393,-0.555 -1.517,-0.185 -1.897,-0.749c-0.563,-0.837 -0.039,-2.128 -0.602,-2.965c-0.888,-5.662 -0.65,-5.709 -0.956,-6.096c-0.425,-0.537 -1.736,0.051 -1.968,-0.594c-0.274,-0.763 1.016,-1.432 0.948,-2.24c-0.043,-0.51 -0.965,-0.495 -1.213,-0.943c-0.233,-0.421 -0.143,-0.421 -1.927,-5.695c-0.314,-0.505 -1.295,-0.265 -1.608,-0.77c-1.666,-2.683 0.24,-3.328 -1.542,-5.9c-0.35,-0.506 -1.389,-0.188 -1.701,-0.719c-1.604,-2.726 0.481,-3.389 -1.352,-5.973c-0.361,-0.509 -1.427,-0.16 -1.736,-0.703c-1.568,-2.76 0.621,-3.432 -1.297,-6c-0.383,-0.513 -1.581,-0.072 -1.799,-0.674c-0.26,-0.72 0.861,-1.402 0.775,-2.162c-0.056,-0.492 -0.899,-0.526 -1.13,-0.964c-0.471,-0.892 -0.273,-2.1 -0.903,-2.888c-0.415,-0.52 -1.668,0.003 -1.898,-0.621c-0.272,-0.737 0.935,-1.415 0.857,-2.197c-0.05,-0.502 -0.931,-0.516 -1.17,-0.961c-0.477,-0.888 -0.576,-1.932 -0.898,-2.887c-0.319,-0.946 -0.44,-2.006 -1.024,-2.816c-0.343,-0.475 -1.275,-0.28 -1.574,-0.784c-1.585,-2.683 0.263,-3.307 -1.506,-5.912c-0.338,-0.498 -1.355,-0.222 -1.643,-0.751c-0.497,-0.912 -0.209,-2.072 -0.446,-3.083c-0.745,-3.173 -1.517,-2.729 -2.076,-3.848c-0.451,-0.903 -0.489,-1.962 -0.817,-2.917c-0.935,-2.73 -4.883,-11.28 -5.332,-12.25c-2.851,-6.174 -2.7,-6.211 -2.958,-6.741c-0.214,-0.44 -0.853,-0.564 -1.074,-1c-1.373,-2.705 -0.469,-3.001 -2.003,-5.689c-0.241,-0.422 -0.846,-0.561 -1.063,-0.996c-1.376,-2.754 -0.476,-3.058 -2.005,-5.688c-0.245,-0.422 -0.857,-0.556 -1.075,-0.992c-0.323,-0.647 0.42,-0.913 -3.107,-8.482c-0.147,-0.316 -1.59,-3.412 -1.965,-3.893c-0.362,-0.465 -1.263,-0.23 -1.625,-0.695c-0.218,-1.161 0.816,-0.992 0.6,-2.144c-0.093,-0.497 -0.941,-0.507 -1.181,-0.952c-0.477,-0.887 -0.578,-1.93 -0.886,-2.888c-0.307,-0.957 -0.371,-2.043 -0.959,-2.858c-0.352,-0.488 -1.339,-0.228 -1.643,-0.747c-1.598,-2.732 0.446,-3.406 -1.425,-5.938c-0.381,-0.515 -1.415,-0.169 -1.796,-0.685c-1.221,-5.555 -1.015,-5.598 -1.316,-5.986c-0.4,-0.516 -1.631,-0.035 -1.848,-0.651c-0.261,-0.739 0.941,-1.418 0.844,-2.196c-0.063,-0.51 -0.98,-0.48 -1.232,-0.928c-1.507,-2.678 -0.111,-3.219 -1.903,-5.709c-0.347,-0.482 -1.29,-0.271 -1.602,-0.776c-1.653,-2.67 0.238,-3.318 -1.52,-5.906c-0.343,-0.505 -1.34,-0.22 -1.683,-0.725c-1.286,-5.522 -1.109,-5.558 -1.388,-5.961c-0.35,-0.505 -1.391,-0.185 -1.699,-0.717c-1.596,-2.753 0.489,-3.42 -1.361,-5.971c-0.368,-0.508 -1.432,-0.156 -1.747,-0.699c-1.593,-2.745 0.551,-3.427 -1.332,-5.986c-0.375,-0.51 -1.39,-0.189 -1.765,-0.698c-0.121,-1.038 -0.242,-2.076 -0.363,-3.114c-0.352,-0.982 -4,-11.155 -4.942,-12.075c-0.515,-0.503 -4.664,-1.028 -5.402,-0.643c-0.822,0.43 -2.14,3.39 -2.282,3.709c-6.128,13.763 -5.314,14.041 -5.91,15.202c-0.237,0.461 -0.974,0.487 -1.246,0.927c-0.526,0.848 -0.728,1.858 -1.063,2.797c-1.876,5.269 -8.029,17.175 -9.197,20.08c-1.524,3.792 -1.88,3.547 -1.965,3.885c-0.153,0.607 0.373,1.292 0.141,1.874c-0.193,0.484 -0.982,0.484 -1.259,0.925c-0.528,0.84 -0.736,1.844 -1.068,2.779c-0.278,0.783 -1.617,4.552 -4.088,9.549c-3.021,6.109 -2.789,6.194 -3.068,6.714c-0.232,0.431 -1.132,0.45 -1.129,0.939c0.004,0.871 1.141,1.477 1.145,2.348c-2.836,3.142 -3.312,2.828 -5.055,7.261c-4.055,10.31 -13.707,30.132 -17.478,39.049c-7.919,18.725 -8.54,18.433 -9.201,20.071c-0.62,1.537 -5.135,12.728 -8.135,19.051c-8.735,18.412 -8.527,18.432 -9.318,20.011c-7.328,14.638 -6.433,15.026 -7.105,16.278c-0.231,0.43 -0.88,0.512 -1.132,0.93c-1.6,2.657 -0.444,3.049 -1.862,5.748c-0.243,0.463 -1.001,0.465 -1.278,0.908c-1.625,2.606 -0.376,3.037 -1.821,5.764c-0.244,0.461 -1.038,0.445 -1.27,0.912c-0.89,1.793 -1.227,3.815 -1.995,5.664c-0.158,0.381 -5.482,12.402 -5.959,13.48c-1.387,3.131 -14.116,31.874 -17.529,39.047c-20.094,42.228 -19.433,46.428 -26.774,54.522c-2.996,3.303 -2.314,3.748 -2.6,4.001c-0.653,0.577 -1.638,0.601 -2.423,0.979c-3.32,1.599 -2.757,2.273 -3.522,2.709c-0.849,0.484 -1.875,0.556 -2.801,0.869c-9.518,3.214 -9.662,2.434 -19.707,2.432c-614.546,-0.142 -614.548,0.011 -622.084,-0.338c-5.787,-2.675 -7.07,-3.536 -7.64,-3.919c-3.166,-2.127 -3.704,-1.441 -5.878,-4.558c-2.14,-3.068 -2.409,-2.786 -4.535,-5.859c-0.324,-0.469 -0.83,-0.802 -1.116,-1.295c-1.352,-2.334 -1.006,-2.482 -1.168,-2.648c-0.75,-0.771 -1.176,0.24 -1.915,-0.519c-0.167,-0.818 1.075,-1.515 0.908,-2.333c-0.116,-0.567 -1.251,-0.292 -1.545,-0.79c-1.615,-2.737 0.312,-3.337 -1.451,-5.953c-0.343,-0.509 -1.36,-0.19 -1.703,-0.699c-1.209,-5.571 -1.01,-5.609 -1.303,-6.004c-0.383,-0.515 -1.486,-0.093 -1.814,-0.645c-0.536,-0.9 -0.201,-2.091 -0.423,-3.115c-0,-0 -1.692,-5.302 -1.839,-5.763c-0.761,-1.25 -1.522,-2.501 -2.284,-3.751c-0.883,-1.323 0.122,-1.657 -0.755,-2.972c-0.561,-0.841 -1.185,0.183 -1.691,-0.694c-1.583,-2.747 0.587,-3.408 -1.27,-6.034c-0.362,-0.513 -1.448,-0.115 -1.766,-0.657c-1.613,-2.743 0.64,-3.454 -1.298,-6.019c-0.389,-0.515 -1.44,-0.12 -1.829,-0.634c-0.958,-4.534 -0.873,-4.475 -2.174,-8.932c-0.711,-1.27 -1.422,-2.54 -2.133,-3.81c-0.725,-1.396 -0.116,-1.547 -0.842,-2.945c-0.226,-0.435 -0.939,-0.467 -1.158,-0.906c-1.373,-2.745 -0.308,-3.102 -1.85,-5.779c-0.244,-0.423 -0.887,-0.525 -1.104,-0.963c-0.451,-0.909 -0.516,-1.965 -0.828,-2.931c-0.309,-0.956 -0.425,-2.032 -1.033,-2.833c-0.362,-0.477 -1.454,-0.138 -1.653,-0.703c-0.25,-0.708 0.752,-1.416 0.644,-2.159c-0.07,-0.479 -0.879,-0.519 -1.098,-0.951c-0.459,-0.905 -0.235,-2.121 -0.863,-2.918c-0.415,-0.526 -1.686,0.021 -1.915,-0.608c-0.274,-0.751 0.924,-1.435 0.878,-2.233c-0.027,-0.477 -0.849,-0.536 -1.061,-0.965c-0.451,-0.91 -0.23,-2.129 -0.866,-2.921c-0.424,-0.528 -1.703,0.048 -1.946,-0.584c-0.287,-0.745 0.906,-1.438 0.861,-2.235c-0.027,-0.476 -0.833,-0.55 -1.042,-0.978c-1.367,-2.789 -0.34,-3.127 -1.946,-5.737c-0.264,-0.429 -0.984,-0.455 -1.213,-0.905c-0.463,-0.911 -0.463,-1.991 -0.757,-2.969c-0.291,-0.965 -0.392,-2.049 -0.998,-2.855c-0.362,-0.481 -1.467,-0.125 -1.669,-0.692c-0.252,-0.71 0.749,-1.417 0.653,-2.164c-0.061,-0.472 -0.844,-0.536 -1.056,-0.962c-0.453,-0.91 -0.267,-2.106 -0.876,-2.92c-0.384,-0.513 -1.581,-0.063 -1.806,-0.663c-0.268,-0.717 0.81,-1.411 0.745,-2.174c-0.04,-0.466 -0.808,-0.551 -1.014,-0.972c-1.344,-2.753 -0.434,-3.047 -1.997,-5.725c-0.243,-0.416 -0.871,-0.523 -1.084,-0.956c-0.45,-0.914 -0.496,-1.98 -0.834,-2.941c-1.633,-4.634 -1.821,-4.498 -6.016,-13.428c-2.376,-5.058 -1.758,-5.278 -2.061,-5.653c-0.388,-0.481 -1.346,-0.174 -1.734,-0.655c-0.948,-1.31 0.146,-1.696 -0.795,-2.997c-1.278,-1.765 -1.796,-0.488 -1.836,-0.638c-0.215,-0.82 1.254,-1.486 1.063,-2.312c-0.143,-0.615 -1.61,-0.087 -1.761,-0.7c-0.199,-0.809 1.19,-1.462 1.027,-2.279c-0.116,-0.583 -1.511,-0.145 -1.627,-0.728c-1.246,-5.561 -1.073,-5.593 -1.345,-6.003c-0.335,-0.507 -1.375,-0.175 -1.684,-0.699c-1.607,-2.725 0.488,-3.386 -1.338,-6.001c-0.355,-0.508 -1.412,-0.154 -1.727,-0.687c-1.622,-2.745 0.65,-3.485 -1.352,-5.984c-0.42,-0.525 -1.514,-0.047 -1.934,-0.571l-1.247,-6.084c-0.722,-1.412 -0.051,-1.569 -0.771,-2.977c-0.226,-0.441 -0.974,-0.437 -1.201,-0.878c-1.401,-2.718 -0.264,-3.077 -1.814,-5.798c-0.243,-0.426 -0.898,-0.516 -1.122,-0.953c-0.463,-0.9 -0.55,-1.948 -0.865,-2.909c-0.313,-0.955 -0.42,-2.031 -1.02,-2.838c-0.354,-0.477 -1.334,-0.207 -1.628,-0.723c-1.593,-2.788 0.515,-3.457 -1.375,-5.999c-0.385,-0.518 -1.613,-0.038 -1.823,-0.648c-0.258,-0.746 0.906,-1.43 0.835,-2.217c-0.044,-0.485 -0.897,-0.507 -1.119,-0.941c-0.462,-0.904 -0.236,-2.12 -0.857,-2.924c-0.402,-0.521 -1.651,0.002 -1.876,-0.617c-0.271,-0.746 0.895,-1.436 0.842,-2.228c-0.032,-0.476 -0.843,-0.539 -1.057,-0.966c-1.375,-2.751 -0.436,-3.063 -1.951,-5.738c-0.238,-0.42 -0.863,-0.535 -1.078,-0.967c-0.451,-0.909 -0.537,-1.959 -0.854,-2.923c-0.314,-0.954 -0.444,-2.02 -1.04,-2.828c-0.346,-0.468 -1.305,-0.22 -1.586,-0.73c-1.53,-2.774 0.481,-3.413 -1.395,-6.001c-0.365,-0.504 -1.528,-0.101 -1.736,-0.688c-0.254,-0.718 0.802,-1.408 0.726,-2.166c-0.048,-0.473 -0.831,-0.547 -1.043,-0.972c-0.454,-0.908 -0.277,-2.105 -0.896,-2.91c-0.392,-0.509 -1.598,-0.024 -1.824,-0.626c-0.273,-0.727 0.834,-1.43 0.76,-2.204c-0.045,-0.475 -0.85,-0.532 -1.061,-0.96c-1.352,-2.734 -0.422,-3.04 -1.951,-5.746c-0.236,-0.419 -0.847,-0.549 -1.057,-0.981c-0.319,-0.653 0.339,-0.888 -3.055,-8.554c-0.476,-1.075 -5.88,-13.28 -5.961,-13.433c-0.217,-0.408 -0.727,-0.616 -0.926,-1.033c-2.413,-5.066 -1.757,-5.301 -2.002,-5.72c-0.247,-0.422 -0.92,-0.488 -1.137,-0.926c-0,-0 -2.543,-7.956 -2.765,-8.648c-0.312,-0.506 -1.296,-0.263 -1.608,-0.768c-1.653,-2.68 0.306,-3.369 -1.539,-5.892c-0.374,-0.512 -1.407,-0.155 -1.781,-0.667c-0.888,-1.32 0.113,-1.657 -0.77,-2.969c-0.555,-0.825 -1.149,0.142 -1.724,-0.739c-0.558,-0.855 -0.147,-2.125 -0.705,-2.98c-0.904,-5.679 -0.675,-5.721 -0.974,-6.116c-0.405,-0.535 -1.71,0.049 -1.927,-0.587c-0.266,-0.777 1.011,-1.457 0.947,-2.276c-0.039,-0.502 -0.958,-0.476 -1.198,-0.919c-0,-0 -1.722,-5.302 -1.872,-5.764c-0.253,-0.461 -1.065,-0.405 -1.317,-0.866c-1.504,-2.743 0.109,-3.321 -1.713,-5.831c-0.355,-0.49 -1.368,-0.187 -1.67,-0.712c-1.578,-2.746 0.544,-3.416 -1.332,-6.009c-0.37,-0.511 -1.469,-0.108 -1.775,-0.66c-1.569,-2.83 0.785,-3.532 -1.198,-6.062c-0.41,-0.523 -1.676,0.019 -1.899,-0.607c-0.27,-0.758 0.95,-1.443 0.884,-2.245c-0.041,-0.491 -0.919,-0.496 -1.146,-0.932c-0.468,-0.9 -0.548,-1.953 -0.859,-2.919c-0.308,-0.957 -0.407,-2.033 -0.995,-2.848c-0.343,-0.476 -1.304,-0.234 -1.596,-0.743c-1.565,-2.731 0.426,-3.371 -1.406,-5.98c-0.355,-0.505 -1.42,-0.153 -1.717,-0.694c-1.537,-2.806 0.653,-3.46 -1.237,-6.042c-0.371,-0.507 -1.552,-0.074 -1.763,-0.666c-0.258,-0.726 0.828,-1.42 0.75,-2.187c-0.048,-0.476 -0.853,-0.531 -1.07,-0.958c-0.459,-0.905 -0.267,-2.112 -0.892,-2.912c-0.404,-0.516 -1.639,0.001 -1.866,-0.613c-0.273,-0.739 0.898,-1.432 0.821,-2.216c-0.048,-0.49 -0.909,-0.511 -1.13,-0.951c-0.457,-0.907 -0.198,-2.134 -0.827,-2.931c-0.431,-0.547 -1.746,0.014 -1.988,-0.639c-0.278,-0.747 0.956,-1.405 0.932,-2.202c-0.014,-0.471 -0.821,-0.549 -1.025,-0.974c-0.21,-0.437 0.341,-0.605 -1.955,-5.74c-6.666,-14.91 -6.398,-15.003 -7.003,-16.286c-0.204,-0.432 -0.848,-0.537 -1.059,-0.966c-1.356,-2.755 -0.414,-3.063 -1.943,-5.744c-0.237,-0.416 -0.857,-0.529 -1.067,-0.959c-0.32,-0.653 0.455,-0.922 -3.026,-8.573c-0.189,-0.416 -0.68,-0.648 -0.863,-1.067c-0.804,-1.837 -1.272,-3.809 -2.076,-5.646c-0.557,-0.811 -1.103,0.074 -1.645,-0.717c-0.898,-1.309 0.018,-1.641 -0.863,-2.939c-0.344,-0.506 -1.529,-0.182 -1.662,-0.78c-0.178,-0.796 1.176,-1.444 0.988,-2.238c-0.142,-0.599 -1.551,-0.136 -1.693,-0.735c-1,-5.626 -0.782,-5.666 -1.077,-6.06c-0.393,-0.526 -1.655,-0.007 -1.867,-0.629c-0.259,-0.761 0.97,-1.442 0.889,-2.242c-0.051,-0.502 -0.968,-0.468 -1.21,-0.911c-1.492,-2.728 -0.053,-3.255 -1.843,-5.765c-0.343,-0.48 -1.301,-0.241 -1.605,-0.747c-1.623,-2.696 0.333,-3.345 -1.454,-5.959c-0.345,-0.504 -1.394,-0.165 -1.695,-0.697c-1.573,-2.772 0.622,-3.432 -1.288,-6.021c-0.379,-0.514 -1.481,-0.095 -1.802,-0.646c-0.529,-0.906 -0.182,-2.095 -0.398,-3.121c-0.099,-0.468 -1.765,-5.66 -1.842,-5.768c-0.337,-0.478 -1.282,-0.256 -1.582,-0.758c-1.63,-2.727 0.316,-3.345 -1.435,-5.966c-0.337,-0.505 -1.38,-0.175 -1.679,-0.703c-1.577,-2.783 0.536,-3.423 -1.277,-6.027c-0.352,-0.506 -1.418,-0.147 -1.716,-0.686c-1.529,-2.764 0.305,-3.259 -1.293,-6.03c-0.262,-0.453 -1.104,-0.405 -1.291,-0.894c-0.23,-0.6 0.357,-1.29 0.214,-1.917c-0.103,-0.449 -0.693,-0.64 -0.894,-1.055c-0.439,-0.906 -0.382,-2.055 -0.999,-2.851c-0.38,-0.491 -1.525,-0.091 -1.736,-0.675c-0.259,-0.717 0.793,-1.417 0.708,-2.174c-0.053,-0.476 -0.849,-0.539 -1.061,-0.968c-1.368,-2.763 -0.429,-3.052 -1.931,-5.747c-0.232,-0.417 -0.841,-0.544 -1.05,-0.973c-1.353,-2.772 -0.421,-3.075 -1.944,-5.742c-0.238,-0.417 -0.857,-0.535 -1.069,-0.967c-0.448,-0.913 -0.527,-1.965 -0.844,-2.932c-0.313,-0.956 -0.445,-2.023 -1.045,-2.83c-0.348,-0.468 -1.4,-0.169 -1.597,-0.718c-0.248,-0.693 0.692,-1.405 0.576,-2.133c-0.076,-0.475 -0.854,-0.539 -1.071,-0.968c-0.456,-0.905 -0.272,-2.101 -0.883,-2.909c-0.387,-0.511 -1.586,-0.051 -1.809,-0.652c-0.268,-0.722 0.823,-1.417 0.756,-2.184c-0.041,-0.471 -0.825,-0.547 -1.034,-0.971c-1.365,-2.781 -0.476,-3.072 -1.971,-5.737c-0.231,-0.412 -0.825,-0.548 -1.032,-0.973c-0.445,-0.916 -0.538,-1.965 -0.866,-2.929c-0.323,-0.952 -0.553,-1.962 -1.086,-2.815c-0.267,-0.428 -1.052,-0.416 -1.225,-0.89c-0.225,-0.614 0.345,-1.319 0.184,-1.953c-0.115,-0.45 -0.734,-0.611 -0.942,-1.026c-0.451,-0.901 -0.392,-2.049 -0.998,-2.854c-0.362,-0.481 -1.467,-0.12 -1.67,-0.687c-0.255,-0.711 0.735,-1.421 0.645,-2.171c-0.056,-0.465 -0.809,-0.549 -1.02,-0.967c-1.376,-2.736 -0.657,-2.98 -2.077,-5.695c-3.152,-6.026 -2.514,-6.296 -2.895,-6.743c-0.415,-0.487 -1.413,-0.096 -1.827,-0.583c-0.181,-0.793 1.054,-1.485 0.873,-2.278c-0.13,-0.57 -1.263,-0.286 -1.571,-0.783c-0.535,-0.865 -0.132,-2.148 -0.746,-2.96c-0.412,-0.545 -1.545,-0.068 -1.957,-0.613c-0.12,-0.73 -1.39,-8.464 -1.804,-9.072c-0.342,-0.503 -1.377,-0.175 -1.685,-0.699c-1.604,-2.732 0.545,-3.44 -1.401,-5.962c-0.394,-0.511 -1.441,-0.105 -1.835,-0.616c-0.928,-1.318 0.234,-1.693 -0.7,-3.018c-1.296,-1.84 -1.819,-0.461 -1.858,-0.613c-0.214,-0.84 1.292,-1.508 1.103,-2.353c-0.139,-0.62 -1.626,-0.062 -1.781,-0.678c-0.204,-0.813 1.192,-1.47 1.034,-2.294c-0.111,-0.579 -1.502,-0.146 -1.614,-0.726c-1.236,-5.571 -1.065,-5.602 -1.334,-6.014c-0.327,-0.501 -1.357,-0.187 -1.647,-0.71c-1.533,-2.761 0.213,-3.231 -1.33,-6.021c-0.247,-0.446 -1.012,-0.434 -1.245,-0.887c-0.467,-0.904 -0.446,-1.988 -0.741,-2.962c-0.291,-0.962 -0.402,-2.042 -1.013,-2.841c-0.371,-0.484 -1.322,-0.211 -1.693,-0.695c-0.17,-1.194 0.864,-0.983 0.695,-2.167c-0.07,-0.487 -0.913,-0.503 -1.139,-0.941c-0.465,-0.901 -0.232,-2.12 -0.855,-2.921c-0.408,-0.524 -1.672,0.012 -1.896,-0.614c-0.27,-0.755 0.93,-1.44 0.877,-2.24c-0.031,-0.48 -0.87,-0.522 -1.086,-0.952c-0.456,-0.907 -0.228,-2.128 -0.863,-2.92c-0.424,-0.53 -1.711,0.048 -1.949,-0.588c-0.282,-0.753 0.929,-1.441 0.887,-2.245c-0.025,-0.478 -0.84,-0.547 -1.054,-0.975c-0.452,-0.908 -0.557,-1.95 -0.882,-2.911c-0.321,-0.95 -0.462,-2.008 -1.054,-2.818c-0.339,-0.465 -1.273,-0.249 -1.554,-0.751c-1.546,-2.764 0.422,-3.404 -1.443,-5.976c-0.367,-0.506 -1.542,-0.094 -1.745,-0.685c-0.251,-0.728 0.833,-1.417 0.757,-2.183c-0.047,-0.475 -0.854,-0.528 -1.068,-0.955c-0.455,-0.908 -0.267,-2.105 -0.873,-2.92c-0.379,-0.51 -1.566,-0.064 -1.787,-0.659c-0.266,-0.717 0.804,-1.413 0.734,-2.175c-0.043,-0.471 -0.814,-0.558 -1.022,-0.982c-1.348,-2.736 -0.477,-3.036 -1.988,-5.727c-0.231,-0.412 -0.827,-0.546 -1.034,-0.972c-0.446,-0.916 -0.542,-1.965 -0.866,-2.931c-0.318,-0.952 -0.471,-2.005 -1.058,-2.82c-0.33,-0.458 -1.327,-0.222 -1.515,-0.754c-0.241,-0.681 0.62,-1.396 0.501,-2.108c-0.078,-0.465 -0.801,-0.563 -1.018,-0.982c-1.402,-2.716 -0.748,-2.905 -2.114,-5.676c-2.994,-6.072 -2.719,-6.188 -2.985,-6.712c-3.102,-6.094 -2.617,-6.245 -2.913,-6.754c-0.246,-0.421 -0.891,-0.517 -1.109,-0.953c-0.454,-0.91 -0.516,-1.969 -0.832,-2.936c0,0 -1.85,-5.229 -2.011,-5.684c-0.295,-0.494 -1.247,-0.284 -1.542,-0.778c-1.611,-2.696 0.252,-3.308 -1.498,-5.933c-0.334,-0.501 -1.341,-0.21 -1.656,-0.723c-1.637,-2.673 0.411,-3.371 -1.46,-5.928c-0.374,-0.512 -1.412,-0.143 -1.786,-0.655c-0.93,-1.317 0.217,-1.691 -0.707,-3c-1.284,-1.819 -1.822,-0.482 -1.858,-0.634c-0.202,-0.849 1.334,-1.502 1.147,-2.354c-0.137,-0.626 -1.653,-0.037 -1.806,-0.659c-0.203,-0.826 1.226,-1.478 1.074,-2.316c-0.105,-0.583 -1.518,-0.139 -1.623,-0.722c-1.266,-5.557 -1.097,-5.587 -1.367,-5.999c-0.329,-0.501 -1.343,-0.194 -1.652,-0.708c-1.624,-2.701 0.391,-3.341 -1.4,-5.981c-0.34,-0.502 -1.375,-0.179 -1.676,-0.705c-1.571,-2.743 0.56,-3.405 -1.31,-6.01c-0.367,-0.512 -1.461,-0.119 -1.767,-0.67c-1.557,-2.796 0.757,-3.503 -1.203,-6.055c-0.399,-0.519 -1.646,0.002 -1.865,-0.615c-0.267,-0.752 0.918,-1.443 0.852,-2.238c-0.041,-0.486 -0.893,-0.511 -1.117,-0.944c-0.223,-0.43 -0.141,-0.426 -1.906,-5.747c-0.239,-0.453 -1,-0.455 -1.238,-0.908c-0.474,-0.899 -0.498,-1.971 -0.793,-2.944c-0.292,-0.965 -0.377,-2.05 -0.968,-2.868c-0.348,-0.481 -1.339,-0.205 -1.627,-0.724c-1.546,-2.788 0.524,-3.433 -1.34,-6.009c-0.367,-0.506 -1.543,-0.085 -1.75,-0.675c-0.255,-0.724 0.83,-1.414 0.747,-2.177c-0.053,-0.481 -0.869,-0.529 -1.089,-0.961c-0.461,-0.903 -0.275,-2.1 -0.885,-2.91c-0.386,-0.513 -1.587,-0.06 -1.808,-0.663c-0.265,-0.724 0.835,-1.413 0.767,-2.181c-0.042,-0.473 -0.834,-0.543 -1.046,-0.968c-0,-0 -1.778,-5.275 -1.932,-5.734c-0.686,-1.281 -1.372,-2.563 -2.058,-3.844c-0.738,-1.398 -0.236,-1.534 -0.953,-2.892c-0.225,-0.427 -0.872,-0.528 -1.082,-0.963c-0.44,-0.911 -0.459,-1.975 -0.796,-2.929c-1.818,-5.146 -2.206,-4.915 -2.999,-6.721c-4.961,-11.301 -4.598,-11.44 -5.124,-12.373c-0.234,-0.416 -0.839,-0.546 -1.047,-0.976c-0.317,-0.654 0.385,-0.877 -3.04,-8.56c-3.279,-7.355 -3.589,-7.141 -3.867,-7.778c-0.802,-1.84 -1.251,-3.819 -2.053,-5.659l-1.712,-0.669c-0.943,-1.295 0.156,-1.684 -0.794,-2.988c-1.283,-1.76 -1.809,-0.484 -1.846,-0.636c-0.205,-0.842 1.303,-1.499 1.12,-2.346c-0.133,-0.617 -1.62,-0.061 -1.77,-0.675c-0.2,-0.817 1.196,-1.471 1.044,-2.298c-0.106,-0.578 -1.297,-0.235 -1.603,-0.738c-0.532,-0.874 -0.061,-2.173 -0.669,-2.996c-0.41,-0.554 -1.572,-0.035 -1.981,-0.59c-1.398,-7.837 -1.115,-7.924 -1.869,-9.059c-0.333,-0.501 -1.363,-0.189 -1.659,-0.712c-1.564,-2.764 0.547,-3.41 -1.292,-6.02c-0.358,-0.508 -1.435,-0.128 -1.738,-0.67c-1.552,-2.773 0.712,-3.487 -1.261,-6.034c-0.401,-0.517 -1.645,-0.005 -1.862,-0.623c-0.264,-0.752 0.944,-1.438 0.859,-2.23c-0.053,-0.501 -0.958,-0.479 -1.196,-0.922c-1.469,-2.734 -0.046,-3.27 -1.838,-5.772c-0.343,-0.479 -1.308,-0.232 -1.606,-0.74c-1.595,-2.721 0.385,-3.361 -1.411,-5.976c-0.346,-0.504 -1.349,-0.195 -1.696,-0.699c-1.184,-5.582 -0.988,-5.627 -1.278,-6.025c-0.37,-0.508 -1.557,-0.071 -1.764,-0.665c-0.255,-0.73 0.863,-1.421 0.768,-2.188c-0.061,-0.491 -0.922,-0.498 -1.154,-0.935c0,0 -1.723,-5.298 -1.873,-5.759c-0.7,-1.276 -1.4,-2.551 -2.1,-3.827c-0.719,-1.399 -0.158,-1.54 -0.873,-2.931c-0.221,-0.43 -0.9,-0.498 -1.112,-0.933c-1.341,-2.747 -0.339,-3.07 -1.872,-5.765c-0.237,-0.418 -0.855,-0.539 -1.065,-0.97c-0.319,-0.653 0.429,-0.918 -3.023,-8.559c-0.143,-0.316 -1.618,-3.583 -1.867,-3.917c-0.352,-0.473 -1.267,-0.239 -1.619,-0.712c-0.172,-1.131 0.745,-0.941 0.565,-2.119c-0.072,-0.472 -0.828,-0.557 -1.039,-0.986c-1.345,-2.74 -0.458,-3.019 -1.958,-5.737c-0.227,-0.411 -0.81,-0.553 -1.014,-0.975c-0.315,-0.655 0.406,-0.896 -3.055,-8.558c-0.143,-0.316 -1.554,-3.44 -1.898,-3.901c-0.345,-0.463 -1.384,-0.169 -1.58,-0.713c-0.249,-0.692 0.681,-1.411 0.557,-2.136c-0.082,-0.478 -0.868,-0.533 -1.087,-0.965c-0.457,-0.904 -0.257,-2.106 -0.873,-2.91c-0.397,-0.517 -1.626,-0.025 -1.849,-0.637c-0.269,-0.738 0.872,-1.43 0.81,-2.213c-0.037,-0.472 -0.851,-0.52 -1.059,-0.945c-1.348,-2.745 -0.368,-3.084 -1.943,-5.756c-0.247,-0.419 -0.899,-0.503 -1.117,-0.937c-0.46,-0.913 -0.52,-1.98 -0.84,-2.951c-0.314,-0.951 -0.406,-2.052 -1.061,-2.809c-0.421,-0.486 -1.428,-0.067 -1.848,-0.554c-0.167,-0.81 1.057,-1.505 0.89,-2.315c-0.116,-0.562 -1.237,-0.296 -1.53,-0.79c-1.605,-2.712 0.246,-3.328 -1.491,-5.932c-0.334,-0.501 -1.358,-0.194 -1.658,-0.716c-1.576,-2.739 0.488,-3.395 -1.364,-5.985c-0.361,-0.505 -1.417,-0.149 -1.731,-0.684c-1.612,-2.745 0.654,-3.512 -1.363,-5.985c-0.425,-0.521 -1.514,-0.036 -1.94,-0.557c-0.157,-0.824 1.143,-1.491 0.986,-2.314c-0.109,-0.572 -1.271,-0.263 -1.573,-0.761c-0.531,-0.876 -0.17,-2.115 -0.7,-2.991c-0.862,-1.321 0.1,-1.639 -0.763,-2.963c-0.544,-0.834 -1.153,0.122 -1.639,-0.72c-1.577,-2.731 0.46,-3.37 -1.347,-5.998c-0.346,-0.503 -1.386,-0.167 -1.694,-0.693c-1.612,-2.752 0.553,-3.451 -1.382,-5.977c-0.391,-0.51 -1.436,-0.106 -1.826,-0.617c-0.959,-1.319 0.308,-1.708 -0.658,-3.036c-0.692,-0.951 -1.346,0.307 -2.007,-0.63c-0.598,-0.847 0.004,-2.207 -0.595,-3.055c-0.068,-0.54 0.421,-2.354 -0.78,-6.155c-0.073,-0.231 -0.705,-2.232 -1.045,-2.845c-0.231,-0.417 -0.849,-0.533 -1.06,-0.961c-1.35,-2.736 -0.384,-3.036 -1.939,-5.743c-0.242,-0.422 -0.876,-0.531 -1.093,-0.966c-0.451,-0.909 -0.525,-1.962 -0.841,-2.927c-0.313,-0.954 -0.443,-2.021 -1.044,-2.826c-0.352,-0.471 -1.412,-0.169 -1.609,-0.723c-0.247,-0.695 0.71,-1.403 0.593,-2.13c-0.077,-0.478 -0.87,-0.53 -1.09,-0.962c-0.46,-0.903 -0.275,-2.098 -0.882,-2.909c-0.381,-0.509 -1.571,-0.062 -1.789,-0.659c-0.264,-0.722 0.821,-1.416 0.75,-2.181c-0.044,-0.474 -0.833,-0.547 -1.044,-0.974c-0.45,-0.91 -0.27,-2.103 -0.879,-2.915c-0.384,-0.512 -1.574,-0.067 -1.802,-0.665c-0.271,-0.711 0.792,-1.407 0.723,-2.164c-0.043,-0.467 -0.805,-0.558 -1.01,-0.98c-0.445,-0.915 -0.557,-1.959 -0.886,-2.921c-0.324,-0.948 -0.49,-1.994 -1.074,-2.809c-0.326,-0.454 -1.306,-0.241 -1.491,-0.769c-0.237,-0.677 0.629,-1.391 0.49,-2.094c-0.095,-0.477 -0.874,-0.53 -1.097,-0.962c-0.463,-0.901 -0.303,-2.081 -0.891,-2.905c-0.353,-0.495 -1.484,-0.129 -1.684,-0.704c-0.249,-0.715 0.773,-1.412 0.687,-2.164c-0.054,-0.469 -0.834,-0.535 -1.045,-0.958c-0.455,-0.909 -0.299,-2.09 -0.892,-2.915c-0.36,-0.501 -1.49,-0.13 -1.71,-0.706c-0.263,-0.688 0.713,-1.385 0.63,-2.116c-0.052,-0.463 -0.774,-0.578 -0.98,-0.995c-1.344,-2.729 -0.672,-2.954 -2.115,-5.674c-4.412,-8.317 -6.469,-18.394 -6.807,-20.054l-1.07,-3.344c3.431,-8.746 4.086,-9.644 4.621,-10.379c2.14,-2.938 1.853,-3.148 4.605,-5.473c0.859,-0.726 4.844,-4.092 12.889,-5.618c3.247,-0.616 3.234,-0.548 467.347,-0.548c60.762,0 62.761,-1.153 74.398,7.025c6.321,4.442 14.477,26.838 25.119,50.881c15.965,36.067 15.221,36.329 16.683,39.427c0.21,0.445 0.94,0.473 1.163,0.912c1.384,2.729 0.3,3.092 1.896,5.764c0.252,0.422 0.917,0.497 1.139,0.936c0.462,0.916 0.515,1.987 0.83,2.963c0.306,0.947 0.389,2.042 1.031,2.803c0.42,0.497 1.433,0.117 1.853,0.614c0.108,1.289 -0.997,0.994 -0.888,2.297c0.041,0.486 0.924,0.468 1.155,0.898c0.23,0.428 -0.531,0.694 2.07,5.709c1.691,3.261 1.346,3.341 3.06,6.662c3.154,6.108 2.51,6.301 2.817,6.804c0.264,0.433 1,0.445 1.228,0.899c0.458,0.914 0.418,2.004 0.717,2.981c1.137,3.709 4.82,10.529 7.141,16.222c3.004,7.365 10.878,24.781 11.847,26.926c8.559,18.932 7.754,19.216 16.235,38.173c9.432,21.083 8.868,21.312 9.769,23.105c6.081,12.112 5.312,12.447 5.922,13.453c0.263,0.434 0.999,0.447 1.228,0.9c1.399,2.763 0.166,3.157 1.794,5.806c0.266,0.432 1.042,0.425 1.23,0.896c0.237,0.592 -0.261,1.291 -0.109,1.91c0.108,0.44 0.638,0.663 0.84,1.069c1.352,2.714 0.874,2.868 2.252,5.606c6.11,12.137 5.227,12.488 5.828,13.5c0.255,0.43 0.966,0.467 1.188,0.915c0.452,0.913 0.428,1.995 0.732,2.968c0.127,0.406 2.064,5.291 2.228,5.623c6.514,13.154 15.646,35.815 18.944,43.159c16.161,35.988 15.211,36.328 16.701,39.412c0.217,0.449 0.96,0.468 1.185,0.913c1.384,2.742 0.213,3.12 1.823,5.796c0.259,0.431 0.976,0.463 1.203,0.912c0.461,0.911 0.425,2.003 0.759,2.967c1.632,4.714 2.13,4.427 3.086,6.694c0.782,1.855 1.205,3.849 1.987,5.704c0.235,0.452 1.013,0.431 1.248,0.883c1.426,2.743 0.182,3.166 1.768,5.824c0.258,0.432 0.992,0.44 1.22,0.889c1.391,2.744 0.223,3.125 1.825,5.797c0.253,0.422 0.935,0.479 1.156,0.919c0.042,0.085 0.92,3.865 3.054,8.576c15.127,33.389 14.506,33.593 15.949,36.429c3.954,7.768 5.565,13.402 6.869,16.341c7.458,16.802 7.601,16.667 14.959,33.58c3.939,9.055 3.804,9.622 3.822,9.643c0.435,0.507 1.712,-0.059 1.919,0.576c0.26,0.797 -1.05,1.484 -0.975,2.319c0.046,0.512 1.022,0.429 1.263,0.882c1.44,2.712 0.175,3.129 1.774,5.807c0.261,0.437 1.004,0.443 1.238,0.895c1.422,2.74 0.26,3.126 1.838,5.788c0.25,0.423 0.926,0.486 1.147,0.924c1.394,2.758 0.377,3.101 1.944,5.745c0.245,0.414 0.875,0.518 1.086,0.95c0.235,0.482 0.506,2.686 3.093,8.547c2.655,6.014 2.314,6.153 2.631,6.628c0.476,0.714 1.601,0.623 2.377,0.99c0.807,0.382 1.477,1.348 2.365,1.256c0.691,-0.072 3.945,-7.602 4.24,-8.285c1.614,-3.735 2.087,-3.482 2.134,-3.829c0.086,-0.64 -0.588,-1.231 -0.502,-1.871c0.334,-0.516 1.268,-0.398 1.601,-0.914c0.546,-0.844 0.371,-2.013 0.859,-2.892c0.258,-0.464 1.207,-0.427 1.276,-0.954c0.162,-1.224 -1.03,-0.907 -0.863,-2.163c0.423,-0.519 1.484,-0.113 1.907,-0.632c0.632,-0.776 0.447,-1.977 0.931,-2.853c0.25,-0.453 1.121,-0.479 1.194,-0.992c0.167,-1.169 -0.922,-0.92 -0.752,-2.107c0.398,-0.508 1.414,-0.176 1.811,-0.684c0.616,-0.788 0.469,-1.969 0.949,-2.846c0.246,-0.45 1.087,-0.504 1.16,-1.012c0.105,-0.724 -0.975,-1.395 -0.712,-2.078c0.23,-0.596 1.393,-0.198 1.783,-0.704c1.928,-2.504 -0.187,-3.199 1.393,-5.925c0.318,-0.549 1.38,-0.217 1.761,-0.724c1.906,-2.542 -0.188,-3.233 1.399,-5.929c0.321,-0.546 1.381,-0.211 1.758,-0.719c1.889,-2.548 -0.193,-3.239 1.414,-5.92c0.325,-0.543 1.379,-0.217 1.753,-0.727c1.845,-2.523 -0.188,-3.202 1.435,-5.906c0.321,-0.534 1.355,-0.235 1.714,-0.744c1.8,-2.554 -0.206,-3.227 1.444,-5.905c0.532,-0.863 1.129,0.102 1.716,-0.738c0.896,-1.281 -0.061,-1.628 0.834,-2.908c0.093,-0.482 1.157,-6.031 1.157,-6.031c0.396,-0.579 1.589,-0.054 2.012,-0.613c1.948,-2.571 -0.609,-3.381 1.21,-6.006c0.4,-0.578 1.591,-0.053 2.019,-0.611c0.298,-0.389 0.088,-0.431 1.23,-5.992c0.435,-0.55 1.575,-0.074 2.009,-0.624c0.624,-0.79 0.242,-2.068 0.786,-2.915c0.328,-0.511 1.49,-0.238 1.622,-0.831c0.174,-0.785 -1.219,-1.464 -0.944,-2.22c0.232,-0.638 1.498,-0.066 1.956,-0.566c0.667,-0.729 0.764,-1.824 1.088,-2.757c0.33,-0.951 0.403,-2.001 0.874,-2.89c0.241,-0.455 0.911,-0.556 1.181,-0.994c1.605,-2.602 0.623,-2.948 2.028,-5.638c0.234,-0.449 0.874,-0.576 1.135,-1.009c1.569,-2.605 0.638,-2.95 2.042,-5.628c0.235,-0.448 0.87,-0.581 1.129,-1.015c1.559,-2.615 0.628,-2.946 2.04,-5.627c0.236,-0.448 1.071,-0.514 1.128,-1.018c0.085,-0.739 -1.046,-1.402 -0.771,-2.093c0.247,-0.618 1.464,-0.158 1.877,-0.679c0.622,-0.784 0.457,-1.973 0.928,-2.857c0.239,-0.449 1.047,-0.518 1.135,-1.019c0.124,-0.704 -0.859,-1.397 -0.595,-2.062c0.227,-0.569 1.316,-0.227 1.697,-0.708c0.218,-0.275 0.043,-0.302 1.994,-3.908c1.448,-2.676 0.741,-2.929 2.157,-5.573c0.236,-0.44 1.013,-0.544 1.079,-1.038c0.097,-0.716 -0.925,-1.392 -0.661,-2.064c0.231,-0.587 1.37,-0.213 1.754,-0.714c0.608,-0.793 0.491,-1.958 0.968,-2.837c0.242,-0.446 1.057,-0.522 1.127,-1.025c0.1,-0.722 -0.962,-1.391 -0.7,-2.07c0.229,-0.594 1.386,-0.206 1.773,-0.712c0.608,-0.795 0.472,-1.968 0.949,-2.847c0.242,-0.447 1.072,-0.505 1.143,-1.008c0.102,-0.726 -0.966,-1.396 -0.707,-2.081c0.225,-0.594 1.382,-0.21 1.766,-0.716c1.905,-2.512 -0.216,-3.209 1.389,-5.933c0.325,-0.551 1.397,-0.2 1.784,-0.71c1.914,-2.524 -0.174,-3.204 1.407,-5.919c0.315,-0.541 1.359,-0.232 1.727,-0.739c1.849,-2.542 -0.188,-3.216 1.421,-5.919c0.32,-0.538 1.364,-0.225 1.729,-0.733c1.835,-2.554 -0.183,-3.23 1.435,-5.908c0.322,-0.533 1.352,-0.238 1.712,-0.745c1.806,-2.542 0.083,-3.164 1.672,-5.878c0.25,-0.427 1.257,-0.167 1.332,-0.657c0.24,-1.572 -1.026,-1.342 -0.788,-2.9c-0.144,-1.222 -0.289,-2.444 -0.433,-3.666c-0.601,-0.602 -0.702,-1.593 -1.303,-2.195c-1.987,-1.989 -2.86,-0.287 -5.029,-2.052c-0.592,-0.482 -0.228,-1.605 -0.747,-2.165c-0.251,-0.27 -0.418,-0.023 -3.754,-2.671c-10.383,-8.24 -11.189,-6.98 -12.079,-7.702c-1.213,-0.985 -2.219,-5.51 2.311,-6.196c2.003,-0.303 5.537,0.692 26.497,0.512c0.517,-0.004 4.396,-0.038 6.437,-0.582c2.957,-0.789 3.274,-2.496 3.578,-2.728l0.833,-2.784c0.383,-0.519 1.292,-0.45 1.675,-0.969c0.584,-0.791 0.745,-1.821 1.07,-2.75c0.332,-0.947 0.423,-1.99 0.899,-2.874c0.244,-0.455 0.914,-0.559 1.183,-0.999c1.577,-2.575 0.592,-2.938 2.024,-5.63c0.24,-0.451 1.101,-0.498 1.158,-1.006c0.084,-0.749 -1.085,-1.411 -0.808,-2.111c0.248,-0.626 1.486,-0.139 1.907,-0.664c0.626,-0.782 0.448,-1.976 0.918,-2.861c0.239,-0.45 0.912,-0.561 1.142,-1.016c1.681,-3.324 1.331,-3.421 3.099,-6.677c1.43,-2.633 0.744,-2.88 2.18,-5.559c0.235,-0.439 0.996,-0.551 1.069,-1.044c0.104,-0.702 -0.872,-1.378 -0.612,-2.038c0.228,-0.577 1.336,-0.242 1.708,-0.739c0.599,-0.801 0.494,-1.959 0.969,-2.84c0.239,-0.444 1.039,-0.524 1.115,-1.023c0.108,-0.712 -0.904,-1.39 -0.645,-2.062c0.224,-0.58 1.346,-0.227 1.721,-0.724c0.602,-0.798 0.489,-1.96 0.966,-2.838c0.242,-0.447 1.051,-0.522 1.13,-1.024c0.111,-0.706 -0.904,-1.376 -0.649,-2.044c0.223,-0.582 1.343,-0.244 1.716,-0.743c0.598,-0.801 0.482,-1.962 0.96,-2.84c0.243,-0.446 1.06,-0.511 1.139,-1.012c0.111,-0.712 -0.91,-1.385 -0.658,-2.06c0.217,-0.58 1.339,-0.24 1.705,-0.74c1.891,-2.575 -0.129,-3.214 1.436,-5.911c0.311,-0.537 1.341,-0.245 1.705,-0.748c1.85,-2.557 -0.117,-3.211 1.451,-5.898c0.309,-0.529 1.32,-0.263 1.673,-0.764c0,-0 1.367,-5.416 1.486,-5.887c0.352,-0.502 1.318,-0.268 1.669,-0.77c1.789,-2.553 -0.028,-3.206 1.609,-5.832c0.318,-0.51 1.299,-0.288 1.618,-0.798c0.159,-0.45 1.99,-5.625 1.99,-5.625c0.254,-0.456 1.179,-0.466 1.216,-0.987c0.057,-0.806 -1.283,-1.461 -0.989,-2.214c0.332,-0.847 2.37,0.637 2.927,-3.453c0.145,-1.063 -0.163,-2.156 -0.018,-3.219c0.921,-1.209 1.841,-2.418 2.762,-3.627c0.336,-0.502 1.299,-0.279 1.635,-0.781c0.27,-0.403 0.114,-0.432 1.543,-5.859c0.54,-0.805 1.093,0.043 1.645,-0.778c0.27,-0.402 0.115,-0.431 1.559,-5.849c0.876,-1.821 0.46,-4.093 1.337,-5.915c0.288,-0.598 1.472,-0.178 1.855,-0.72c0.582,-0.823 0.177,-2.091 0.73,-2.933c0.341,-0.52 1.543,-0.168 1.699,-0.77c0.199,-0.766 -1.148,-1.421 -0.933,-2.183c0.171,-0.607 1.381,-0.208 1.751,-0.719c0.935,-1.29 -0.015,-1.65 0.889,-2.923c0.583,-0.822 1.127,0.081 1.699,-0.725c2.58,-6.636 9.714,-20.345 10.656,-22.659c0.377,-0.925 0.566,-1.931 1.04,-2.81c0.235,-0.435 0.969,-0.564 1.044,-1.053c0.106,-0.691 -0.831,-1.367 -0.573,-2.017c0.226,-0.57 1.312,-0.265 1.675,-0.758c0.593,-0.805 0.499,-1.957 0.973,-2.838c0.238,-0.443 1.029,-0.529 1.106,-1.026c0.109,-0.707 -0.888,-1.384 -0.631,-2.052c0.221,-0.577 1.332,-0.242 1.701,-0.738c0.597,-0.801 0.485,-1.962 0.964,-2.839c0.243,-0.446 1.06,-0.512 1.138,-1.014c0.11,-0.711 -0.914,-1.382 -0.662,-2.056c0.218,-0.582 1.342,-0.243 1.71,-0.743c1.878,-2.547 -0.111,-3.194 1.445,-5.903c0.307,-0.534 1.323,-0.262 1.684,-0.761c1.851,-2.561 -0.116,-3.217 1.456,-5.901c0.312,-0.533 1.335,-0.247 1.696,-0.749c1.828,-2.533 -0.032,-3.187 1.568,-5.861c0.307,-0.513 1.251,-0.312 1.61,-0.79c0.287,-0.383 0.143,-0.418 1.932,-5.661c0.277,-0.447 0.962,-0.528 1.239,-0.975c1.617,-2.606 0.532,-2.995 1.978,-5.645c0.25,-0.459 0.942,-0.545 1.217,-0.991c1.601,-2.597 0.514,-2.984 1.956,-5.657c0.244,-0.453 0.968,-0.501 1.216,-0.952c0.75,-1.362 0.149,-1.527 0.9,-2.891c0.081,-0.488 1.018,-6.096 1.018,-6.096c0.686,-1.002 1.353,0.363 2.086,-0.583c0.985,-1.272 -0.322,-1.695 0.671,-2.978c0.338,-0.504 1.309,-0.27 1.647,-0.774c0.27,-0.403 0.112,-0.433 1.522,-5.87c0.547,-0.822 1.103,0.029 1.638,-0.776c0.269,-0.404 0.113,-0.432 1.539,-5.864c0.878,-1.812 0.554,-4.056 1.432,-5.868c0.281,-0.58 1.411,-0.229 1.778,-0.758c0.574,-0.826 0.223,-2.074 0.773,-2.916c0.334,-0.511 1.495,-0.203 1.651,-0.794c0.198,-0.751 -1.089,-1.416 -0.871,-2.161c0.042,-0.143 0.555,0.893 1.718,-0.725c0.919,-1.278 -0.02,-1.637 0.897,-2.913l1.706,-0.729c1.567,-3.345 1.32,-3.397 3.114,-6.649c0.284,-0.515 -0.058,-0.649 3.165,-6.638c1.439,-2.675 0.799,-2.906 2.221,-5.549c0.235,-0.436 0.996,-0.547 1.064,-1.037c0.099,-0.713 -0.9,-1.394 -0.635,-2.064c0.23,-0.582 1.357,-0.217 1.735,-0.716c0.604,-0.797 0.484,-1.963 0.962,-2.842c0.243,-0.447 1.068,-0.513 1.139,-1.017c0.102,-0.726 -0.967,-1.402 -0.701,-2.085c0.231,-0.594 1.392,-0.191 1.783,-0.695c0.612,-0.79 0.482,-1.962 0.958,-2.841c0.241,-0.445 1.056,-0.514 1.131,-1.015c0.106,-0.714 -0.926,-1.382 -0.672,-2.058c0.219,-0.586 1.349,-0.242 1.722,-0.744c0.597,-0.803 0.469,-1.969 0.948,-2.847c0.244,-0.448 1.074,-0.502 1.153,-1.006c0.113,-0.714 -0.918,-1.385 -0.669,-2.063c0.214,-0.581 1.336,-0.245 1.702,-0.744c1.858,-2.531 -0.136,-3.199 1.446,-5.906c0.314,-0.537 1.343,-0.245 1.711,-0.746c1.847,-2.511 -0.001,-3.169 1.623,-5.818c0.32,-0.521 1.246,-0.358 1.637,-0.828c1.843,-2.213 0.525,-2.827 2.218,-5.183c0.389,-0.541 1.226,-0.608 1.658,-1.114c0.545,-0.638 0.614,-1.606 1.187,-2.219c0.534,-0.572 1.445,-0.669 2.014,-1.206c0.53,-0.499 0.643,-1.356 1.2,-1.825c0.335,-0.282 0.585,0.172 4.83,-2.587c7.414,-4.819 8.072,-4.205 89.661,-4.205c361.479,0 361.522,-0.111 369.038,0.894c17.682,2.366 25.14,23.667 25.58,24.647c1.648,3.673 18.274,38.146 19.972,42.713c0.346,0.93 0.547,1.937 1.077,2.776c0.285,0.451 1.029,0.49 1.283,0.959c1.439,2.661 0.233,3.081 1.91,5.672c0.293,0.453 1.048,0.481 1.305,0.955c1.442,2.658 0.234,3.08 1.908,5.672c0.29,0.448 1.032,0.486 1.285,0.956c1.434,2.67 0.271,3.101 1.921,5.674c0.285,0.444 1.01,0.495 1.26,0.96c1.438,2.683 0.322,3.082 1.964,5.654c0.282,0.441 1.019,0.498 1.228,0.978c0.233,0.536 -0.2,1.191 -0.039,1.753c0.021,0.073 25.165,52.49 27.354,57.054c1.377,2.87 14.916,31.094 16.783,36.08c0.349,0.931 0.563,1.933 1.088,2.778c0.276,0.444 0.994,0.5 1.239,0.962c1.428,2.695 0.278,3.097 1.923,5.681c0.285,0.448 1.016,0.497 1.268,0.964c1.435,2.663 0.282,3.074 1.953,5.649c0.291,0.448 1.02,0.502 1.274,0.972c1.439,2.667 0.328,3.066 1.96,5.651c0.277,0.439 0.967,0.521 1.21,0.979c0.611,1.153 -0.137,1.462 6.41,14.999c2.564,5.301 26.84,55.499 31.491,66.532c0.492,1.167 10.183,20.209 12.584,26.625c0.348,0.93 0.588,1.92 1.111,2.764c0.276,0.447 0.969,0.538 1.218,1.001c0.481,0.893 0.515,1.967 0.887,2.91c1.174,2.971 2.462,3.314 3.123,3.904c0.462,0.412 0.711,1.075 1.257,1.369c0.861,0.465 1.954,0.364 2.815,0.829c23.122,1.033 23.641,-0.337 29.728,-0.367c6.557,-0.032 8.755,3.743 3.153,7.081c-1.316,0.784 -12.458,7.424 -16.085,10.378c-0.528,0.43 -0.749,1.173 -1.295,1.581c-1.252,0.936 -9.431,3.714 -4.397,13.847c9.032,18.183 8.724,18.324 9.562,19.877c4.527,8.39 12.001,26.381 13.632,29.419c3.814,7.103 3.709,7.082 7.213,14.41c11.153,23.322 10.476,23.609 11.644,25.525c0.267,0.437 0.963,0.536 1.159,1.01c0.221,0.532 -0.192,1.177 -0.022,1.727c0.147,0.475 0.691,0.733 0.918,1.175c0.447,0.871 0.431,2.002 1.085,2.73c0.449,0.5 1.694,-0.015 1.92,0.618c0.268,0.748 -1.019,1.415 -0.911,2.202c0.075,0.541 1.072,0.463 1.344,0.936c1.518,2.643 0.214,3.097 1.852,5.718c0.287,0.459 1.074,0.444 1.342,0.914c1.516,2.661 0.286,3.087 1.869,5.715c0.268,0.444 0.977,0.499 1.232,0.95c0.235,0.417 -0.551,0.718 2.145,5.587c1.801,3.254 1.476,3.372 3.227,6.612c1.756,3.249 1.45,3.359 3.212,6.626c1.006,1.864 5.1,9.455 11.373,23.911c1.642,3.784 2.201,3.403 2.336,3.728c0.228,0.55 -0.254,1.209 -0.096,1.783c0.128,0.464 0.68,0.701 0.9,1.13c0.454,0.885 0.725,1.854 1.103,2.774c0.66,1.607 6.046,12.251 8.382,17.27c1.078,1.569 0.849,3.808 1.927,5.377c0.505,0.735 1.66,0.654 2.471,1.025c0.79,0.361 1.468,1.288 2.328,1.17c0.297,-0.041 0.23,-0.16 2.252,-4.044c2.32,-4.455 2.646,-6.662 2.873,-7.175c0.189,-0.426 0.897,-0.539 0.98,-0.997c0.121,-0.665 -0.409,-1.305 -0.44,-1.98c-0.048,-1.042 -0.268,-2.193 0.205,-3.123c0.299,-0.588 1.45,-0.261 1.799,-0.82c0.544,-0.87 0.057,-2.147 0.599,-3.018c0.324,-0.522 1.569,-0.094 1.708,-0.692c0.187,-0.81 -1.199,-1.463 -1.021,-2.275c0.131,-0.599 1.346,-0.231 1.682,-0.743c0.557,-0.849 0.208,-2.092 0.746,-2.953c0.309,-0.495 1.417,-0.2 1.576,-0.761c0.209,-0.737 -0.929,-1.432 -0.744,-2.175c0.136,-0.545 1.181,-0.325 1.486,-0.797c0.551,-0.853 0.323,-2.076 0.907,-2.907c0.347,-0.494 1.307,-0.246 1.654,-0.741c0.804,-1.832 1.259,-3.805 2.064,-5.637c0.185,-0.422 0.756,-0.622 0.879,-1.066c0.169,-0.607 -0.278,-1.299 -0.057,-1.889c0.17,-0.454 0.871,-0.516 1.115,-0.935c1.559,-2.669 0.548,-2.998 1.908,-5.762c0.213,-0.432 1.051,-0.471 1.086,-0.951c0.058,-0.785 -1.127,-1.462 -0.855,-2.201c0.231,-0.628 1.49,-0.114 1.901,-0.642c0.623,-0.799 0.415,-2.008 0.87,-2.913c0.216,-0.43 0.989,-0.49 1.076,-0.963c0.132,-0.719 -0.76,-1.447 -0.509,-2.133c0.195,-0.533 1.211,-0.255 1.548,-0.711c0.268,-0.362 1.725,-3.603 1.868,-3.919c3.453,-7.675 2.692,-7.915 3.007,-8.57c0.206,-0.43 0.857,-0.518 1.076,-0.941c0.707,-1.367 0.188,-1.502 0.917,-2.91c0.685,-1.28 1.371,-2.561 2.056,-3.841c0.155,-0.459 1.932,-5.739 1.932,-5.739c0.221,-0.428 1.02,-0.482 1.079,-0.959c0.093,-0.756 -0.949,-1.461 -0.691,-2.177c0.208,-0.577 1.354,-0.172 1.716,-0.668c1.878,-2.575 -0.202,-3.203 1.296,-6.019c0.28,-0.527 1.3,-0.232 1.636,-0.724c1.79,-2.625 -0.111,-3.225 1.441,-5.971c0.284,-0.502 1.274,-0.249 1.557,-0.751c0.149,-0.461 1.867,-5.765 1.867,-5.765c0.225,-0.436 1.082,-0.458 1.126,-0.947c0.072,-0.79 -1.106,-1.482 -0.837,-2.229c0.222,-0.615 1.462,-0.097 1.863,-0.613c0.622,-0.802 0.414,-2.012 0.876,-2.916c0.22,-0.429 1.048,-0.463 1.098,-0.942c0.08,-0.773 -1.026,-1.465 -0.772,-2.2c0.206,-0.594 1.397,-0.155 1.764,-0.666c0.288,-0.4 0.092,-0.443 1.256,-6.03c0.339,-0.501 1.329,-0.214 1.667,-0.715c1.78,-2.631 -0.142,-3.277 1.487,-5.952c0.307,-0.505 1.259,-0.27 1.608,-0.748c0.198,-0.271 0.934,-2.605 1.007,-2.834c1.316,-4.172 0.698,-5.28 0.813,-6.155c0.568,-0.842 0.012,-2.15 0.581,-2.992c0.383,-0.568 1.53,-0.16 1.925,-0.72c0.587,-0.834 0.149,-2.113 0.682,-2.982c0.307,-0.501 1.452,-0.171 1.601,-0.739c0.201,-0.768 -1.017,-1.465 -0.823,-2.235c0.034,-0.135 0.557,0.841 1.571,-0.74c0.85,-1.326 -0.053,-1.628 0.8,-2.958c0.357,-0.506 1.37,-0.178 1.727,-0.684c0.956,-1.355 0.555,-1.459 1.914,-9.014c0.593,-0.828 -0.027,-2.174 0.566,-3.003c0.41,-0.573 1.609,-0.044 2.023,-0.614c0.602,-0.828 0.065,-2.142 0.61,-3.008c0.331,-0.526 1.58,-0.101 1.725,-0.705c0.193,-0.808 -1.213,-1.473 -1.011,-2.28c0.037,-0.146 0.564,0.99 1.755,-0.689c0.925,-1.304 -0.083,-1.669 0.836,-2.965l1.667,-0.695c2.685,-6.13 2.381,-6.193 5.133,-12.351c0.181,-0.406 0.692,-0.634 0.803,-1.064c0.157,-0.609 -0.267,-1.3 -0.042,-1.887c0.175,-0.456 0.893,-0.509 1.124,-0.939c0.731,-1.362 0.189,-1.509 0.934,-2.898c0.679,-1.281 1.358,-2.563 2.037,-3.844c1.815,-5.309 1.742,-5.301 1.96,-5.733c0.215,-0.425 0.994,-0.495 1.05,-0.968c0.089,-0.752 -0.941,-1.458 -0.679,-2.169c0.214,-0.579 1.362,-0.171 1.726,-0.668c0.599,-0.818 0.436,-2.003 0.894,-2.908c0.216,-0.427 1.009,-0.486 1.066,-0.961c0.091,-0.752 -0.937,-1.449 -0.689,-2.164c0.199,-0.574 1.331,-0.204 1.683,-0.699c1.835,-2.578 -0.05,-3.197 1.476,-5.967c0.273,-0.495 1.241,-0.267 1.514,-0.762c2.302,-6.782 2.958,-6.493 2.976,-6.711c0.064,-0.77 -1.041,-1.465 -0.768,-2.187c0.23,-0.607 1.444,-0.126 1.838,-0.641c0.616,-0.806 0.428,-2.006 0.88,-2.915c0.212,-0.427 1.009,-0.493 1.052,-0.968c0.071,-0.769 -1.023,-1.462 -0.761,-2.189c0.215,-0.597 1.407,-0.149 1.785,-0.659c1.906,-2.571 -0.213,-3.237 1.303,-6.021c0.286,-0.526 1.291,-0.236 1.645,-0.719c0.596,-0.813 0.69,-1.896 0.981,-2.862c0.293,-0.975 0.3,-2.052 0.768,-2.956c0.234,-0.452 0.998,-0.45 1.233,-0.901c0.145,-0.464 1.813,-5.799 1.813,-5.799c0.224,-0.439 0.953,-0.453 1.179,-0.891c0.724,-1.401 0.086,-1.556 0.81,-2.956c0.506,-0.908 0.019,-2.165 0.526,-3.073c0.285,-0.512 1.494,-0.158 1.598,-0.734c0.15,-0.83 -1.253,-1.483 -1.05,-2.301c0.153,-0.618 1.64,-0.053 1.786,-0.673c0.197,-0.835 -1.279,-1.504 -1.077,-2.337c0.036,-0.148 0.569,1.162 1.799,-0.642c0.903,-1.324 -0.216,-1.68 0.696,-3.018c0.395,-0.515 1.454,-0.096 1.849,-0.611c1.947,-2.54 -0.209,-3.242 1.378,-5.974c0.303,-0.521 1.33,-0.205 1.664,-0.707c0.346,-0.52 1.716,-8.335 1.844,-9.063c0.639,-0.884 1.225,0.295 1.889,-0.625c0.289,-0.4 0.101,-0.443 1.377,-6.02c0.399,-0.516 1.463,-0.083 1.862,-0.598c0.3,-0.388 0.1,-0.43 1.393,-5.97c0.347,-0.502 1.341,-0.206 1.688,-0.708c1.795,-2.597 -0.129,-3.253 1.494,-5.928c0.307,-0.506 1.301,-0.246 1.608,-0.752c0.783,-1.858 1.091,-3.893 1.874,-5.75c0.18,-0.426 0.858,-0.544 0.97,-0.993c0.161,-0.645 -0.445,-1.354 -0.227,-1.983c0.166,-0.479 0.96,-0.467 1.227,-0.897c1.621,-2.611 0.564,-2.984 1.95,-5.74c0.216,-0.43 1.031,-0.48 1.081,-0.959c0.08,-0.774 -1.029,-1.481 -0.753,-2.208c0.228,-0.601 1.436,-0.106 1.826,-0.617c0.617,-0.808 0.422,-2.011 0.876,-2.92c0.212,-0.425 1.008,-0.481 1.058,-0.953c0.081,-0.763 -0.977,-1.461 -0.724,-2.185c0.204,-0.584 1.362,-0.182 1.726,-0.682c0.596,-0.819 0.42,-2.007 0.884,-2.907c0.223,-0.433 1.016,-0.474 1.106,-0.953c0.135,-0.715 -0.766,-1.429 -0.528,-2.116c0.185,-0.534 1.19,-0.293 1.521,-0.752c0.588,-0.814 0.742,-1.868 1.061,-2.82c0.324,-0.965 0.416,-2.016 0.866,-2.928c0.211,-0.428 0.819,-0.551 1.055,-0.966c1.528,-2.694 0.623,-2.976 1.975,-5.731c0.209,-0.425 0.98,-0.508 1.027,-0.979c0.119,-1.191 -0.832,-0.979 -0.713,-2.162c0.375,-0.507 1.393,-0.166 1.767,-0.673c0.603,-0.816 0.428,-2.007 0.883,-2.914c0.214,-0.427 0.989,-0.491 1.062,-0.964c0.177,-1.145 -0.767,-0.946 -0.582,-2.139c0.348,-0.469 1.251,-0.248 1.599,-0.717c0.6,-0.808 0.729,-1.876 1.038,-2.834c0.312,-0.968 0.373,-2.025 0.823,-2.937c0.215,-0.436 1.097,-0.471 1.1,-0.958c0.005,-0.858 -1.347,-1.519 -1.081,-2.335c0.469,-1.438 1.932,-2.33 2.962,-3.437c2.09,-2.244 1.349,-2.64 1.971,-3.859c0.491,-0.916 0.01,-2.161 0.501,-3.076c0.272,-0.507 1.474,-0.185 1.553,-0.755c0.118,-0.853 -1.342,-1.492 -1.126,-2.326c0.168,-0.645 1.505,-0.094 1.895,-0.634c0.29,-0.401 0.098,-0.445 1.335,-6.045c0.409,-0.515 1.478,-0.064 1.887,-0.579c1.994,-2.51 -0.218,-3.22 1.359,-5.988c0.3,-0.526 1.335,-0.2 1.677,-0.701c1.786,-2.615 -0.256,-3.248 1.317,-6.013c0.489,-0.859 1.103,0.117 1.644,-0.708c0.868,-1.324 -0.1,-1.645 0.767,-2.968c0.753,-1.255 1.505,-2.511 2.258,-3.766c0.148,-0.461 1.848,-5.76 1.848,-5.76c0.223,-1.022 -0.093,-2.205 0.436,-3.108c0.318,-0.543 1.402,-0.144 1.771,-0.654c1.881,-2.603 -0.276,-3.273 1.294,-6.021c0.302,-0.529 1.351,-0.188 1.689,-0.694c0.274,-0.409 0.098,-0.443 1.334,-6.009c0.106,-0.581 1.512,-0.14 1.618,-0.721c0.152,-0.836 -1.267,-1.491 -1.064,-2.316c0.152,-0.621 1.436,-0.142 1.797,-0.67c1.801,-2.639 -0.396,-3.333 1.322,-5.996c0.342,-0.529 1.625,-0.07 1.761,-0.685c0.186,-0.838 -1.298,-1.498 -1.093,-2.332c0.154,-0.626 1.447,-0.119 1.823,-0.642c0.923,-1.285 -0.14,-1.652 0.781,-2.983c0.575,-0.831 1.151,0.193 1.741,-0.659c0.147,-0.461 1.842,-5.764 1.842,-5.764c0.229,-0.437 1.062,-0.449 1.149,-0.935c0.208,-1.161 -0.803,-0.997 -0.594,-2.162c0.351,-0.464 1.247,-0.238 1.598,-0.701c0.393,-0.518 1.77,-3.577 1.912,-3.893c3.444,-7.652 2.704,-7.914 3.022,-8.568c0.208,-0.427 0.818,-0.55 1.05,-0.965c1.498,-2.686 0.575,-3.009 1.938,-5.75c0.213,-0.428 0.985,-0.493 1.061,-0.965c0.183,-1.143 -0.754,-0.953 -0.564,-2.144c0.349,-0.468 1.256,-0.232 1.605,-0.7c0.211,-0.283 1.709,-3.606 1.851,-3.922c3.452,-7.66 2.697,-7.92 3.013,-8.575c0.208,-0.429 0.856,-0.519 1.078,-0.942c0.713,-1.362 0.199,-1.498 0.934,-2.901c0.486,-0.916 0.067,-2.145 0.554,-3.061c0.263,-0.495 1.172,-0.319 1.487,-0.782c1.733,-2.548 0.411,-3.023 1.845,-5.776c0.229,-0.439 1.094,-0.446 1.151,-0.938c0.09,-0.777 -1.051,-1.473 -0.788,-2.209c0.215,-0.6 1.418,-0.128 1.804,-0.635c1.957,-2.569 -0.252,-3.228 1.277,-6.032c0.292,-0.536 1.346,-0.19 1.697,-0.689c0,-0 1.182,-5.544 1.285,-6.026c0.338,-0.5 1.328,-0.209 1.666,-0.709c0.274,-0.405 0.109,-0.437 1.483,-5.932c0.379,-0.477 1.254,-0.344 1.633,-0.821c1.844,-2.32 0.435,-2.968 2.161,-5.322c0.407,-0.554 1.292,-0.586 1.74,-1.108c0.558,-0.651 0.581,-1.668 1.172,-2.289c0.559,-0.588 1.528,-0.635 2.128,-1.182c0.544,-0.496 0.632,-1.386 1.2,-1.854c0.695,-0.572 1.72,-0.612 2.444,-1.147c0.762,-0.562 0.193,-1.007 1.095,-1.464c2.684,-1.359 2.934,-0.576 5.57,-1.91Z" style="fill:#231f20;fill-opacity:1;"/><path d="M2146.12,1357.339c289.791,0.001 289.905,0.117 292.491,-0.984c8.155,-3.471 11.037,-14.543 18.315,-30.776c3.069,-6.845 61.718,-141.536 76.77,-175.508c7.884,-17.793 7.442,-17.948 32.979,-75.713c13.26,-29.993 73.097,-167.364 95.137,-217.482c3.467,-7.884 3.326,-7.88 43.19,-98.618c3.805,-8.66 18.207,-42.787 72.041,-164.817c7.425,-16.831 17.133,-41.093 49.077,-112.099c13.612,-30.258 12.54,-30.647 53.054,-121.673c3.842,-8.632 6.283,-13.867 2.198,-17.136c-2.043,-1.635 -2.397,-1.441 -119.491,-1.441c-270.052,0 -270.139,-0.11 -272.83,0.871c-9.048,3.297 -7.311,5.808 -35.375,68.227c-0.644,1.433 -94.828,216.596 -99.319,226.972c-27.19,62.826 -62.576,142.135 -70.272,160.859c-2.86,6.959 -41.911,94.728 -46.236,105.314c-8.39,20.534 -11.12,25.249 -22.613,25.563c-0.929,0.025 -55.728,0.193 -59.154,-0.093c-11.314,-0.944 -11.55,-4.745 -28.28,-39.119c-3.301,-6.782 -3.061,-6.886 -40.08,-85.342c-3.871,-8.204 -25.25,-53.513 -48.62,-102.436c-12.178,-25.492 -11.998,-26.427 -11.529,-28.869c0.825,-4.297 15.176,-12.846 29.261,-23.564c14.364,-10.931 15.409,-11.188 17.007,-11.582c3.141,-0.773 4.984,2.562 5.217,2.982c3.188,5.769 38.773,83.662 65.529,138.27c10.578,21.589 31.165,66.225 33.831,72.005c3.852,8.352 3.045,8.675 5.01,12.128c1.763,3.098 5.339,1.338 5.76,1.131c0.548,-0.27 5.133,-11.367 22.195,-50.036c8.972,-20.333 38.835,-90.543 58.863,-135.187c5.408,-12.055 44.797,-104.46 58.854,-135.189c4.339,-9.484 40.971,-95.711 55.861,-128.475c4.485,-9.87 53.7,-124.492 55.314,-127.151c5.882,-9.686 8.253,-8.28 51.593,-8.28c475.559,0 475.53,-0.036 477.594,0.296c14.392,2.315 3.28,17.594 -7.231,43.388c-0.147,0.361 -113.408,259.242 -115.137,263.478c-0.488,1.196 -214.677,491.74 -215.947,494.537c-14.57,32.094 -37.604,87.787 -75.122,171.494c-7.087,15.811 -6.771,15.922 -23.944,55.58c-3.423,7.904 -13.049,30.134 -43.274,98.588c-5.667,12.834 -10.52,10.973 -49.626,10.973c-583.795,0 -583.746,0.038 -586.244,-0.317c-9.927,-1.412 -10.494,-4.615 -25.473,-37.448c-13.122,-28.764 -29.122,-65.182 -45.965,-102.137c-16.395,-35.973 -93.897,-207.461 -95.284,-210.928c-0.365,-0.912 -0.623,-1.865 -0.967,-2.785c-0.211,-0.566 -2.228,-5.968 -6.786,-3.304c-0.558,0.326 -10.73,24.335 -11.373,25.723c-27.735,59.898 -122.832,271.955 -128.738,284.528c-8.185,17.426 -7.695,17.603 -15.858,34.993c-6.398,13.631 -10.587,11.676 -48.116,11.676c-586.529,0 -586.575,0.062 -589.55,-0.517c-10.535,-2.051 -9.252,-6.381 -28.078,-47.405c-1.529,-3.332 -10.348,-22.549 -18.374,-41.977c-6.087,-14.736 -74.957,-171.322 -78.965,-181.134c-0.019,-0.045 -146.309,-334.905 -148.1,-339.194c-15.93,-38.142 -17.473,-37.43 -33.084,-75.671c-5.826,-14.272 -32.036,-73.271 -34.859,-79.626c-11.61,-26.136 -49.277,-114.152 -75.06,-171.525c-4.353,-9.686 -3.196,-10.183 -53.054,-121.673c-1.977,-4.42 -1.694,-4.493 -24.05,-55.535c-6.645,-15.172 -11.147,-23.694 6.396,-24.054c0.151,-0.003 507.869,-0.107 510.458,0.055c12.333,0.771 11.895,4.16 29.252,43.975c43.544,100.041 87.089,200.081 130.633,300.122c6.761,15.466 73.721,168.649 84.042,193.526c4.198,10.119 14.351,31.303 18.783,43.38c1.034,2.818 0.904,3.477 3.908,3.571c3.973,0.123 3.567,-1.115 5.113,-4.804c11.872,-28.323 70.752,-149.254 80.126,-170.633c4.574,-10.433 19.662,-41.678 21.404,-45.287c0.23,-0.477 2.486,-5.147 3.372,-5.698c0.33,-0.205 4.365,-0.432 4.793,-0.257c0.685,0.279 30.896,22.459 37.466,27.363c8.613,6.429 8.289,8.33 3.669,18.03c-14.74,30.946 -14.145,31.158 -49.672,105.243c-28.205,58.816 -59.641,128.208 -64.084,134.081c-5.465,7.224 -7.553,6.176 -61.891,6.172c-18.067,-0.001 -20.707,-0.233 -27.168,-15.176c-41.238,-95.365 -41.968,-95.012 -48.966,-112.142c-12.173,-29.799 -38.277,-88.344 -41.687,-95.991c-11.686,-26.207 -40.548,-93.521 -42.839,-98.759c-7.469,-17.082 -89.879,-205.556 -93.205,-213.598c-19.764,-47.793 -21.466,-48.552 -25.596,-50.393c-4.476,-1.995 -4.687,-1.809 -118.974,-1.799c-21.598,0.002 -264.386,0.022 -269.975,0.201c-13.995,0.449 -6.517,12.602 -4.848,16.287c9.578,21.148 49.116,114.007 69.146,158.072c0.301,0.661 38.924,90.398 76.104,174.357c4.3,9.709 4.038,9.816 53.077,121.663c37.596,85.748 36.821,86.013 74.984,171.553c5.384,12.067 4.927,12.209 66.011,151.408c1.473,3.356 12.895,29.386 18.135,42.075c0.877,2.124 33.108,74.896 36.176,82.342c0.858,2.082 33.761,77.975 37.056,85.23c6.855,15.093 11.42,12.909 41.705,12.909c515.721,0 515.959,0.754 519.729,-0.801c9.46,-3.903 6.991,-6.764 41.719,-81.491c8.849,-19.04 8.527,-19.17 108.008,-239.193c15.828,-35.007 15.761,-38.465 28.663,-39.21c1.369,-0.079 55.256,-0.281 59.152,0.117c12.562,1.28 13.26,9.302 30.73,48.069c2.517,5.585 30.809,68.37 31.449,69.818c12.066,27.335 77.962,173.038 84.762,188.075c14.393,31.825 19.883,49.375 27.306,52.769c7.164,3.275 7.653,1.218 260.493,1.999Z" style="fill:#fdfdfd;"/><path d="M1919.097,1080.679c-20.961,-17.381 -98.49,-72.382 -185.436,-136.441c-4.805,-3.54 -4.884,-3.361 -9.646,-6.905c-9.602,-7.146 -19.656,-14.257 -21.379,-15.476c-7.53,-5.325 -7.197,-5.703 -14.733,-10.992c-8.78,-6.161 -11.676,-1.186 -25.996,8.908c-0.33,0.233 -80.109,58.576 -97.494,70.936c-8.711,6.193 -38.065,27.928 -41.364,30.37c-7.276,5.388 -28.565,20.543 -31.057,22.318c-1.802,1.283 -15.585,11.541 -16.938,12.548c-14.113,10.504 -22.04,15.707 -30,22.819c-4.948,4.421 -8.734,2.373 -6.808,-3.988c1.061,-3.505 1.886,-3.21 14.841,-43.304c29.19,-90.343 29.38,-90.213 31.767,-98.11c3.133,-10.365 3.361,-10.287 41.331,-128.89c3.774,-11.788 -0.306,-11.858 -11.692,-20.309c-8.398,-6.233 -136.807,-100.178 -151.782,-111.528c-2.185,-1.656 -61.352,-44.954 -62.76,-45.824c-5.365,-3.316 -5.241,-3.393 -8.185,-5.719c-0.461,-0.364 -1.371,-0.316 -1.526,-0.883c-0.521,-1.9 2.5,-5.362 3.217,-5.482c2.326,-0.387 2.266,1.09 29.45,1.091c84.515,-0.003 169.03,-0.006 253.545,-0.009c12.537,-0.071 11.668,-3.634 15.59,-15.5c13.5,-40.839 55.567,-172.85 66.29,-204.017c1.518,-4.411 15.106,-43.906 17.624,-55.583c0.166,-0.772 4.957,-22.98 9.205,-3.56c4.023,18.392 5.05,18.048 71.376,224.256c14.57,45.298 15.561,51.72 20.308,53.475c2.783,1.029 2.843,0.922 224.388,0.939c56.956,0.004 56.907,0.069 62.523,-0.639c4.311,-0.544 5.501,-2.556 7.393,1.361c0.495,1.025 1.336,2.017 1.304,3.155c-0.016,0.55 -11.97,7.798 -24.789,17.575c-14.046,10.714 -23.356,16.446 -60.512,44.423c-0.403,0.303 -72.52,52.982 -74.434,54.44c-6.195,4.718 -55.806,40.968 -56.785,41.709c-16.74,12.672 -23.935,14.769 -21.689,23.379c2.458,9.424 3.203,9.191 37.208,115.919c2.428,7.622 25.839,81.098 30.714,95.153c4.928,14.209 13.337,43.673 19.672,59.27c0.447,1.1 2.227,6.294 2.224,6.39c-0.017,0.453 -0.315,0.173 -4.966,2.725Z" style="fill:#fdfcfc;"/><path d="M1858.01,985.908c-0.888,0.567 -1.483,1.525 -2.371,2.093c-3.112,1.988 -3.439,0.898 -6.164,-1.596c-2.668,-2.442 -10.305,-8.58 -10.712,-8.87c-56.796,-40.531 -139.421,-101.923 -153.093,-111.179c-5.282,-3.576 -7.443,-2.004 -23.954,10.338c-23.767,17.765 -24.18,17.074 -48.104,34.704c-88.763,65.413 -89.319,64.664 -96.712,70.767c-8.15,6.727 -9.504,8.575 -12.096,6.205c-2.397,-2.191 -1.593,-2.684 -0.426,-5.731c12.995,-33.937 21.58,-65.755 32.896,-98.751c0.027,-0.077 18.399,-57.492 19.998,-62.491c9.95,-31.093 13.189,-37.65 8.648,-42.36c-2.507,-2.6 -18.663,-14.256 -20.319,-15.451c-2.48,-1.789 -21.724,-15.673 -30.902,-22.507c-3.294,-2.453 -36.154,-26.922 -41.285,-30.508c-30.126,-21.05 -61.919,-46.696 -74.947,-53.855c-0.408,-0.224 -4.282,-2.353 -1.785,-5.538c1.924,-2.454 9.133,-0.651 18.425,-0.558c2.363,0.024 186.132,0.022 187.702,0c10.516,-0.143 10.67,-3.577 15.129,-17.53c53.089,-166.113 55.067,-165.545 58.008,-180.418c0.143,-0.721 1.651,-8.35 3.49,-8.503c3.968,-0.33 5.069,4.619 5.197,5.193c4.744,21.316 19.27,60.957 55.433,174.617c7.186,22.585 6.355,26.322 17.481,26.632c3.259,0.091 166.633,0.028 181.122,0.023c23.377,-0.009 26.758,-2.836 26.543,2.65c-0.022,0.558 -0.099,2.523 -4.567,5.271c-15.174,9.332 -14.934,9.601 -29.059,20.386c-24.378,18.612 -24.962,17.745 -49.391,36.222c-25.518,19.301 -25.967,18.583 -51.516,37.828c-34.665,26.112 -37.637,24.759 -37.82,31.983c-0.062,2.443 0.065,2.442 8.624,29.302c48.614,152.568 50.984,158.278 56.525,171.63Z" style="fill:#ec1f28;"/><path d="M1685.192,281.302c1.767,-0.345 1.566,-1.208 6.431,-1.256c26.948,-0.265 181.843,0.014 197.655,0.042c14.455,0.026 18.869,-0.788 25.886,14.489c10.503,22.867 141.31,298.468 141.67,299.524c2.192,6.437 -5.484,6.515 -6.204,6.522c-4.214,0.043 -44.301,0.454 -52.676,-0.205c-8.797,-0.692 -8.554,-3.897 -19.233,-26.418c-31.771,-66.984 -63.541,-133.968 -95.312,-200.952c-11.661,-24.631 -12.405,-31.411 -27.086,-31.733c-20.779,-0.456 -146.64,0.778 -151.486,-0.74c-4.713,-1.476 -5.515,-6.546 -13.928,-32.793c-0.508,-1.586 -5.557,-17.337 -5.528,-20.072c0.017,-1.588 0.588,-1.46 0.543,-3.01c-0.053,-1.788 -0.679,-1.622 -0.731,-3.399Z" style="fill:#fdfdfd;"/><path d="M1675.535,280.565c0.845,6.856 0.917,6.808 0.913,7.405c-0.018,2.434 -0.031,4.24 -8.445,29.225c-5.628,16.712 -6.063,22.452 -12.411,23.793c-2.839,0.6 -147.576,0.161 -151.553,0.241c-13.887,0.279 -15.648,10.019 -21.237,21.594c-38.499,79.729 -71.104,150.7 -102.414,215.444c-7.976,16.493 -6.341,22.171 -21.259,22.234c-3.952,0.017 -48.097,0.204 -49.397,0.124c-4.356,-0.267 -5.046,-3.019 -5.167,-3.503c-0.43,-1.717 2.927,-8.358 3.275,-9.045c2.015,-3.986 73.485,-155.447 101.513,-214.293c1.67,-3.507 19.801,-41.572 20.87,-43.841c17.511,-37.14 19.39,-47.629 30.871,-49.507c4.538,-0.742 171.591,-0.177 204.273,-0.349c5.114,-0.027 5.035,0.237 10.169,0.479Z" style="fill:#fdfdfd;"/></g></svg>