<svg width="62" height="80" viewBox="0 0 62 80" fill="none" xmlns="http://www.w3.org/2000/svg">
<path d="M10 6C10 2.68629 12.6863 0 16 0H37.5L52 14.5V74C52 77.3137 49.3137 80 46 80H16C12.6863 80 10 77.3137 10 74V6Z" fill="white"/>
<path d="M37.5 0V10.5C37.5 12.7091 39.2909 14.5 41.5 14.5H52" fill="#22C55E"/>
<path d="M20 23H42" stroke="#22C55E" stroke-width="3" stroke-linecap="round"/>
<path d="M20 32H36" stroke="#22C55E" stroke-width="3" stroke-linecap="round"/>
<path d="M20 41H31" stroke="#22C55E" stroke-width="3" stroke-linecap="round"/>
<rect x="16" y="49" width="30" height="16" rx="8" fill="#22C55E"/>
<path d="M23.5 61V53.9H26.45C27.77 53.9 28.77 54.62 28.77 55.86C28.77 57.08 27.77 57.81 26.45 57.81H25.69V61H23.5ZM25.69 56.12H26.14C26.77 56.12 27.15 56.01 27.15 55.56C27.15 55.11 26.77 55 26.14 55H25.69V56.12Z" fill="#101820"/>
<path d="M31.17 61V55.66H29.63V54.41C30.63 54.35 31.28 54.13 31.83 53.76H33.31V61H31.17Z" fill="#101820"/>
<path d="M36.27 61V59.77L38.41 57.79C39.14 57.12 39.55 56.69 39.55 56.06C39.55 55.46 39.15 55.1 38.52 55.1C37.86 55.1 37.37 55.47 36.91 55.98L35.92 54.98C36.58 54.17 37.46 53.66 38.82 53.66C40.61 53.66 41.78 54.63 41.78 55.97C41.78 57.16 41.05 57.94 39.98 58.9L39 59.75V59.8H41.91V61H36.27Z" fill="#101820"/>
</svg>
