<svg width="168" height="47" viewBox="0 0 168 47" fill="none" xmlns="http://www.w3.org/2000/svg">
<path d="M6.38 32.59L9.33002 22.67L8.27002 22.36L9.52002 18.16L7.57001 17.58L6.32001 21.78L5.26001 21.46L0 39.14L3.51001 41.27L8.22998 36.71L10.68 28.43L6.38 32.59Z" fill="white"/>
<path d="M31.45 32.01C27.32 32.01 23.97 35.36 23.97 39.49C23.97 43.62 27.32 46.97 31.45 46.97C35.58 46.97 38.9299 43.62 38.9299 39.49C38.9299 35.36 35.58 32.01 31.45 32.01ZM31.45 43.31C29.34 43.31 27.6299 41.6 27.6299 39.49C27.6299 37.38 29.34 35.67 31.45 35.67C33.56 35.67 35.27 37.38 35.27 39.49C35.27 41.6 33.57 43.31 31.45 43.31Z" fill="white"/>
<path d="M31.4501 37.14C30.1601 37.14 29.1001 38.19 29.1001 39.49C29.1001 40.79 30.1501 41.84 31.4501 41.84C32.7501 41.84 33.8001 40.79 33.8001 39.49C33.8001 38.19 32.7501 37.14 31.4501 37.14Z" fill="white"/>
<path d="M49.8301 32.01C45.7001 32.01 42.3501 35.36 42.3501 39.49C42.3501 43.62 45.7001 46.97 49.8301 46.97C53.9601 46.97 57.3101 43.62 57.3101 39.49C57.3101 35.36 53.9601 32.01 49.8301 32.01ZM49.8301 43.31C47.7201 43.31 46.0101 41.6 46.0101 39.49C46.0101 37.38 47.7201 35.67 49.8301 35.67C51.9401 35.67 53.6501 37.38 53.6501 39.49C53.6501 41.6 51.9401 43.31 49.8301 43.31Z" fill="white"/>
<path d="M49.83 37.14C48.54 37.14 47.48 38.19 47.48 39.49C47.48 40.79 48.53 41.84 49.83 41.84C51.13 41.84 52.18 40.79 52.18 39.49C52.18 38.19 51.12 37.14 49.83 37.14Z" fill="white"/>
<path d="M68.2 32.01C64.07 32.01 60.72 35.36 60.72 39.49C60.72 43.62 64.07 46.97 68.2 46.97C72.33 46.97 75.6799 43.62 75.6799 39.49C75.6799 35.36 72.33 32.01 68.2 32.01ZM68.2 43.31C66.09 43.31 64.3799 41.6 64.3799 39.49C64.3799 37.38 66.09 35.67 68.2 35.67C70.31 35.67 72.02 37.38 72.02 39.49C72.02 41.6 70.31 43.31 68.2 43.31Z" fill="white"/>
<path d="M68.2001 37.14C66.9101 37.14 65.8501 38.19 65.8501 39.49C65.8501 40.79 66.9001 41.84 68.2001 41.84C69.5001 41.84 70.5501 40.79 70.5501 39.49C70.5501 38.19 69.5001 37.14 68.2001 37.14Z" fill="white"/>
<path d="M86.5801 32.01C82.4501 32.01 79.1001 35.36 79.1001 39.49C79.1001 43.62 82.4501 46.97 86.5801 46.97C90.7101 46.97 94.0601 43.62 94.0601 39.49C94.0501 35.36 90.7101 32.01 86.5801 32.01ZM86.5801 43.31C84.4701 43.31 82.7601 41.6 82.7601 39.49C82.7601 37.38 84.4701 35.67 86.5801 35.67C88.6901 35.67 90.4001 37.38 90.4001 39.49C90.4001 41.6 88.6901 43.31 86.5801 43.31Z" fill="white"/>
<path d="M86.58 37.14C85.29 37.14 84.23 38.19 84.23 39.49C84.23 40.79 85.28 41.84 86.58 41.84C87.88 41.84 88.93 40.79 88.93 39.49C88.93 38.19 87.87 37.14 86.58 37.14Z" fill="white"/>
<path d="M163.76 32.17C163.76 31.41 163.45 30.73 162.96 30.23V22.94C162.96 22.44 162.82 21.97 162.57 21.58C162.4 21.32 162.19 21.08 161.94 20.9C161.69 20.72 161.41 20.57 161.1 20.48C160.95 20.44 160.78 20.41 160.62 20.39L144.21 19V18.52C144.21 17.81 143.64 17.24 142.93 17.24H140.29C140.24 17.24 140.21 17.26 140.16 17.27L138.05 10.91C137.71 9.89003 136.77 9.2 135.7 9.19L122.51 8.98999C121.9 9.00999 121.41 9.49999 121.4 10.11V7.03003L121.03 5.10004C120.82 4.00004 119.75 3.27999 118.65 3.48999L119.37 7.22003V11.92H118.83C118.22 11.92 117.73 12.41 117.73 13.02V18.77H106.92L100.73 21.26H94.6599V20.09V19.38L96.0199 18.87L102.65 16.54H108.47C108.76 16.54 109.05 16.43 109.26 16.23L113.01 12.7C113.24 12.48 113.37 12.18 113.37 11.86V8.69C113.37 7.65 112.73 6.72003 111.76 6.34003L103.18 3.02002H104.11C104.52 3.02002 104.81 2.64 104.72 2.25L104.29 0.47998C104.22 0.19998 103.97 0 103.68 0H97.6999C97.4099 0 97.1599 0.19998 97.0899 0.47998L96.6599 2.22998H94.4399C94.3199 2.22998 94.1899 2.25004 94.0799 2.29004L92.4199 2.84003H7.18992H3.15989C2.80989 2.84003 2.4799 3.02 2.2899 3.31L0.529946 6.02002C0.329946 6.33002 0.309949 6.71999 0.469949 7.04999L2.07993 10.22C2.14993 10.36 2.2499 10.46 2.3599 10.55L16.4699 19.78H19.1699L4.77995 10.37L7.17991 9.77002L12.7999 13.44H15.6699V14.61C15.6699 14.96 15.9499 15.24 16.2999 15.24H20.7799C21.1299 15.24 21.4099 14.96 21.4099 14.61V14.31H27.7699L56.2299 18.91L56.3599 18.09L59.7599 18.64L59.6299 19.46L70.7399 21.26H22.3199H20.8399H15.2499C14.7099 21.26 14.2399 21.61 14.0899 22.13L9.19993 38.66C9.06993 39.11 9.20995 39.59 9.52995 39.89C9.63995 39.99 9.76989 40.08 9.90989 40.13L13.9299 41.73H19.8199V43.21V45.23H21.8499V42.8V41.73H21.8699V35.45L22.3099 35L27.2699 29.98H36.8099L39.5299 34.11H41.7399L44.4599 29.98H55.1999L57.9199 34.11H60.1299L62.8499 29.98H73.5899L76.3099 34.11H78.5199L81.2399 29.98H90.7799L96.1799 35.45V41.09C96.1799 41.44 96.4699 41.73 96.8199 41.73H119.51C120.16 41.73 120.68 41.2 120.68 40.56V38.32H122.8V42.16C122.8 42.79 123.31 43.3 123.94 43.3H141.23C141.86 43.3 142.37 42.79 142.37 42.16V40.78H144.63C144.73 41.65 144.93 42.5 145.21 43.3H148C147.45 42.14 147.13 40.85 147.13 39.49C147.13 34.55 151.15 30.53 156.09 30.53C161.03 30.53 165.05 34.55 165.05 39.49C165.05 40.86 164.73 42.15 164.18 43.3H165.95C166.99 43.3 167.83 42.46 167.83 41.42V38.82V35.4V32.8H163.71C163.73 32.6 163.76 32.39 163.76 32.17ZM15.6799 6.34003H12.7199L12.5599 4.31H15.6799V6.34003ZM76.2099 18.96L60.1299 16.36L59.9999 17.18L56.5999 16.63L56.7299 15.81L47.4399 14.31H76.2399H79.6199L76.2099 18.96ZM86.9299 4.65002C86.6999 4.73002 86.4999 4.87001 86.3599 5.07001L85.4299 6.34003H21.4099V4.31H87.9599L86.9299 4.65002ZM112.75 37.4L108.41 34.49L104.07 37.4L105.49 32.37L101.38 29.14L106.6 28.94L108.4 24.04L110.2 28.94L115.42 29.14L111.31 32.37L112.75 37.4ZM135.33 20.42C135.33 20.98 134.92 21.43 134.42 21.43H132.49C132.27 21.43 132.07 21.28 131.99 21.05L131.44 19.51C131.36 19.28 131.16 19.13 130.94 19.13H127.99C127.49 19.13 127.08 18.68 127.08 18.12V13.41C127.08 12.85 127.49 12.39 128 12.39H128.01L134.43 12.49C134.93 12.49 135.33 12.94 135.33 13.49V20.42Z" fill="white"/>
<path d="M156.07 32.01C151.94 32.01 148.59 35.36 148.59 39.49C148.59 43.62 151.94 46.97 156.07 46.97C160.2 46.97 163.55 43.62 163.55 39.49C163.55 35.36 160.2 32.01 156.07 32.01ZM156.07 43.31C153.96 43.31 152.25 41.6 152.25 39.49C152.25 37.38 153.96 35.67 156.07 35.67C158.18 35.67 159.89 37.38 159.89 39.49C159.89 41.6 158.18 43.31 156.07 43.31Z" fill="white"/>
<path d="M156.07 37.14C154.78 37.14 153.72 38.19 153.72 39.49C153.72 40.79 154.77 41.84 156.07 41.84C157.37 41.84 158.42 40.79 158.42 39.49C158.42 38.19 157.36 37.14 156.07 37.14Z" fill="white"/>
</svg>
