<svg width="72" height="86" viewBox="0 0 72 86" fill="none" xmlns="http://www.w3.org/2000/svg">
<path d="M44.08 57.65V39.25H27.08V47.95H13.08V67.5L16.08 69.06V50.95H27.08V74.77L30.08 76.32V47.95V42.25H41.08V57.65V76.35L44.08 74.8V60.65H55.08V69.11L58.08 67.55V57.65H44.08Z" fill="#22C55E"/>
<path d="M24.54 12.71C23.95 12.71 23.65 13.01 23.65 13.6V21.49C23.65 22.08 23.95 22.38 24.54 22.38H27.31C27.9 22.38 28.2 22.08 28.2 21.49V13.6C28.2 13.01 27.9 12.71 27.31 12.71H24.54Z" fill="#101820"/>
<path d="M48.26 12.1499H46.92C46.63 12.1499 46.49 12.2899 46.49 12.5799V16.7999C46.49 17.0899 46.63 17.2299 46.92 17.2299H48.26C48.55 17.2299 48.69 17.0899 48.69 16.7999V12.5799C48.69 12.2999 48.55 12.1499 48.26 12.1499Z" fill="#101820"/>
<path d="M36.4799 12.71C35.8899 12.71 35.59 13.01 35.59 13.6V21.49C35.59 22.08 35.8899 22.38 36.4799 22.38H39.25C39.84 22.38 40.14 22.08 40.14 21.49V13.6C40.14 13.01 39.84 12.71 39.25 12.71H36.4799Z" fill="#101820"/>
<path d="M57.46 22.9401H58.8C59.09 22.9401 59.23 22.8001 59.23 22.5101V18.2901C59.23 18.0001 59.09 17.8601 58.8 17.8601H57.46C57.17 17.8601 57.03 18.0001 57.03 18.2901V22.5101C57.02 22.8001 57.17 22.9401 57.46 22.9401Z" fill="#101820"/>
<path d="M71.26 6.21001L67.8 5.09C57.39 1.71 46.57 0 35.63 0C24.69 0 13.87 1.71 3.45999 5.09L0 6.21001V63.11C0 65.81 1.49 68.25 3.88 69.49L35.59 85.94L67.37 69.49C69.77 68.25 71.26 65.8 71.26 63.1V6.21001ZM64.62 64.17L58.08 67.56L55.08 69.11L44.08 74.8L41.08 76.35L35.6 79.19L30.08 76.32L27.08 74.76L16.08 69.05L13.08 67.49L6.66 64.16C6.26 63.95 6.01999 63.56 6.01999 63.1V32.31H65.27V63.1C65.26 63.56 65.02 63.96 64.62 64.17ZM55.39 10.29L57.17 11.16L50.35 24.8L48.57 23.93L55.39 10.29ZM48.26 18.97H46.94C45.37 18.97 44.58 18.18 44.58 16.61V12.77C44.58 11.2 45.37 10.41 46.94 10.41H48.26C49.83 10.41 50.62 11.2 50.62 12.77V16.61C50.62 18.19 49.83 18.97 48.26 18.97ZM55.12 18.48C55.12 16.91 55.91 16.12 57.48 16.12H58.8C60.37 16.12 61.16 16.91 61.16 18.48V22.32C61.16 23.89 60.37 24.68 58.8 24.68H57.48C55.91 24.68 55.12 23.89 55.12 22.32V18.48ZM42.68 13.79V21.31C42.68 23.56 41.56 24.68 39.31 24.68H36.42C34.17 24.68 33.05 23.56 33.05 21.31V13.79C33.05 11.54 34.17 10.42 36.42 10.42H39.31C41.56 10.42 42.68 11.54 42.68 13.79ZM30.74 13.79V21.31C30.74 23.56 29.62 24.68 27.37 24.68H24.48C22.23 24.68 21.11 23.56 21.11 21.31V13.79C21.11 11.54 22.23 10.42 24.48 10.42H27.37C29.61 10.42 30.74 11.54 30.74 13.79ZM10.76 12.71V11.37L11.98 10.42H15.99V22.38H18.97V24.67H10.17V22.38H13.48V12.71H10.76Z" fill="#101820"/>
</svg>
