<svg width="49" height="49" viewBox="0 0 49 49" fill="none" xmlns="http://www.w3.org/2000/svg">
<path d="M13.313 39.26C13.683 38.88 14.053 38.51 14.443 38.12C16.113 36.45 17.613 34.8 18.923 33.25C20.113 33.77 21.5531 33.55 22.5231 32.58L23.253 31.85C25.603 33.09 28.283 33.8 31.133 33.8C40.463 33.8 48.033 26.23 48.033 16.9C48.033 7.57001 40.463 0 31.133 0C21.803 0 14.233 7.57001 14.233 16.9C14.233 19.75 14.943 22.42 16.183 24.78L15.453 25.51C14.473 26.49 14.263 27.92 14.783 29.11C13.223 30.41 11.573 31.92 9.91304 33.59C7.83304 35.67 5.83305 37.56 4.17305 39.26C2.73305 40.74 1.55304 42.07 0.823042 43.26C-0.166958 44.87 -0.346975 46.22 0.743025 47.3C2.74303 49.3 5.63303 47.01 9.40303 43.26C10.603 42.04 11.903 40.68 13.313 39.26ZM18.223 16.91C18.223 9.79999 24.013 4.00999 31.123 4.00999C38.233 4.00999 44.0231 9.79999 44.0231 16.91C44.0231 24.02 38.233 29.81 31.123 29.81C24.003 29.8 18.223 24.02 18.223 16.91Z" fill="white"/>
<path d="M26.4531 13.8099V14.5499C26.4531 16.3999 27.2531 17.4799 28.8631 17.7799L32.3831 18.4799C32.7231 18.5299 32.8831 18.7499 32.8831 19.1399V20.3099C32.8831 20.7099 32.6831 20.9099 32.2831 20.9099H26.4531V22.4799L27.8031 23.5199H29.9131V25.9299H32.3231V23.5199H32.6231C34.7231 23.5199 35.7731 22.3399 35.7731 19.9799V19.1599C35.7731 17.3399 34.9731 16.2599 33.3631 15.9299L29.8431 15.2299C29.5031 15.1599 29.3431 14.9399 29.3431 14.5699V13.4799C29.3431 13.0799 29.5431 12.8799 29.9431 12.8799H35.3631V11.3099L34.0131 10.2599H32.3031V7.84985H29.8931V10.2599H29.5931C27.5131 10.2799 26.4531 11.4499 26.4531 13.8099Z" fill="#22C55E"/>
</svg>
