<svg width="71" height="81" viewBox="0 0 71 81" fill="none" xmlns="http://www.w3.org/2000/svg">
<path d="M53.81 63.85V71.64C53.81 73.16 52.57 74.4 51.05 74.4H8.75995C7.23995 74.4 6 73.16 6 71.64V18.87C6 17.35 7.23995 16.11 8.75995 16.11H17.14V16.3C17.14 18.29 18.75 19.9 20.74 19.9H38.69C40.68 19.9 42.29 18.29 42.29 16.3V16.11H50.61L53 10.34C52.37 10.2 51.72 10.11 51.05 10.11H42.3V9.91998C42.3 7.92998 40.69 6.32001 38.7 6.32001H36.68C36.34 2.78001 33.36 0 29.72 0C26.08 0 23.0999 2.77001 22.7599 6.32001H20.74C18.75 6.32001 17.14 7.92998 17.14 9.91998V10.11H8.75995C3.92995 10.11 0 14.04 0 18.87V71.64C0 76.47 3.92995 80.4 8.75995 80.4H51.05C55.88 80.4 59.81 76.47 59.81 71.64V49.35L53.8199 63.84C53.8199 63.84 53.82 63.84 53.81 63.85ZM21.15 10.32H38.3V15.9H21.15V10.32Z" fill="#101820"/>
<path d="M38.2999 10.3201H21.1499V15.9H38.2999V10.3201Z" fill="#22C55E"/>
<path d="M17.8999 23.8999L16.2899 28.2799L11.6299 28.4599L15.2999 31.3399L14.0299 35.83L17.8999 33.2299L21.7799 35.83L20.5099 31.3399L24.1699 28.4599L19.5099 28.2799L17.8999 23.8999Z" fill="#101820"/>
<path d="M27.8799 31.3701H44.3099L45.5499 28.3701H27.8799V31.3701Z" fill="#22C55E"/>
<path d="M17.8999 40.9399L16.2899 45.3099L11.6299 45.4899L15.2999 48.3799L14.0299 52.8599L17.8999 50.2699L21.7799 52.8599L20.5099 48.3799L24.1699 45.4899L19.5099 45.3099L17.8999 40.9399Z" fill="#101820"/>
<path d="M27.8799 48.3999H37.2599L38.4999 45.3999H27.8799V48.3999Z" fill="#22C55E"/>
<path d="M19.5099 62.35L17.8999 57.98L16.2899 62.35L11.6299 62.53L15.2999 65.41L14.0299 69.9L17.8999 67.31L21.7799 69.9L20.5099 65.41L24.1699 62.53L19.5099 62.35Z" fill="#101820"/>
<path d="M27.8799 65.4399H34.8799L34.2999 62.4399H27.8799V65.4399Z" fill="#22C55E"/>
<path d="M64.84 16.27L66.8101 11.5101H66.8L62.01 9.53003H62.0001L60.03 14.28L64.84 16.27Z" fill="#22C55E"/>
<path d="M70.76 12.41C71.46 10.72 70.37 8.66 68.32 7.81L63.54 5.83002C62.94 5.58002 62.3301 5.46997 61.7501 5.46997C60.3301 5.46997 59.06 6.15999 58.57 7.35999L37.9301 57.25C37.6801 57.85 37.6201 58.5 37.7401 59.14L39.83 69.93L48.9301 63.77C49.4701 63.41 49.88 62.9 50.13 62.3L70.76 12.41ZM62.01 9.52997L66.79 11.51H66.8001L64.83 16.26L60.02 14.27L61.9901 9.51996C62.0001 9.52996 62.01 9.52997 62.01 9.52997ZM46.82 59.82L42.01 57.83L58.5001 17.97L63.3101 19.96L46.82 59.82Z" fill="#101820"/>
</svg>
