<svg width="59" height="76" viewBox="0 0 59 76" fill="none" xmlns="http://www.w3.org/2000/svg">
<path d="M47.3776 47.7376L45.7875 51.3176L50.8676 63.2876L43.6876 63.5376L42.3376 63.5876L41.3676 64.5276L36.2076 69.5176L31.1276 57.5476C30.4676 57.8776 29.7475 58.0376 29.0375 58.0376C28.3275 58.0376 27.6076 57.8676 26.9476 57.5476L21.8676 69.5176L16.7076 64.5276L15.7375 63.5876L14.3876 63.5376L7.20758 63.2876L12.2875 51.3176L10.6976 47.7376C10.6176 47.5676 10.4876 47.4376 10.3176 47.3576L10.1876 47.2976L1.99756 66.5976L14.2676 67.0176L23.0975 75.5476L29.0475 61.5376L34.9976 75.5476L43.8276 67.0176L56.0975 66.5976L47.9075 47.2976L47.7776 47.3576C47.5876 47.4276 47.4476 47.5676 47.3776 47.7376Z" fill="#22C55E"/>
<path d="M54.4175 22.4875C54.3075 22.3375 54.2576 22.1575 54.2776 21.9675L54.7575 17.3775C54.9675 15.3275 53.8476 13.3875 51.9676 12.5475L47.7475 10.6675C47.5775 10.5875 47.4475 10.4575 47.3675 10.2875L45.4875 6.0675C44.6475 4.1875 42.7275 3.06751 40.6575 3.27751L36.0675 3.75751C35.8975 3.77751 35.6975 3.72751 35.5475 3.61751L31.8075 0.9075C30.1375 -0.3025 27.8975 -0.3025 26.2275 0.9075L22.4875 3.61751C22.3375 3.72751 22.1476 3.77751 21.9676 3.75751L17.3775 3.27751C15.3275 3.05751 13.3875 4.1875 12.5475 6.0675L10.6675 10.2875C10.5875 10.4575 10.4575 10.5875 10.2875 10.6675L6.06753 12.5475C4.18753 13.3875 3.06756 15.3275 3.27756 17.3775L3.75754 21.9675C3.77754 22.1475 3.72752 22.3375 3.61752 22.4875L0.9075 26.2275C-0.3025 27.8975 -0.3025 30.1375 0.9075 31.8075L3.61752 35.5475C3.72752 35.6975 3.77754 35.8775 3.75754 36.0675L3.27756 40.6575C3.06756 42.7075 4.18753 44.6475 6.06753 45.4875L10.1575 47.3075L10.2875 47.3675C10.4575 47.4475 10.5875 47.5775 10.6675 47.7475L12.2575 51.3275L12.5475 51.9675C13.3875 53.8475 15.3275 54.9775 17.3775 54.7575L21.9676 54.2775C22.1476 54.2575 22.3375 54.3075 22.4875 54.4175L26.2275 57.1275C26.4475 57.2875 26.6775 57.4275 26.9175 57.5375C27.5775 57.8675 28.2975 58.0275 29.0075 58.0275C29.7175 58.0275 30.4375 57.8575 31.0975 57.5375C31.3375 57.4175 31.5675 57.2875 31.7875 57.1175L35.5276 54.4075C35.6776 54.2975 35.8575 54.2475 36.0475 54.2675L40.6375 54.7475C42.6975 54.9575 44.6276 53.8375 45.4676 51.9575L45.7575 51.3175L47.3475 47.7375C47.4275 47.5675 47.5575 47.4375 47.7275 47.3575L47.8575 47.2975L51.9475 45.4775C53.8275 44.6375 54.9475 42.6975 54.7375 40.6475L54.2575 36.0575C54.2375 35.8775 54.2876 35.6875 54.3976 35.5375L57.1075 31.7975C58.3175 30.1275 58.3175 27.8875 57.1075 26.2175L54.4175 22.4875ZM53.8976 29.4575L51.1875 33.1975C50.4975 34.1475 50.1875 35.3075 50.3075 36.4775L50.7875 41.0675C50.8175 41.3875 50.6475 41.6975 50.3475 41.8275L46.1275 43.7075C45.0575 44.1875 44.2075 45.0375 43.7275 46.1075L41.8475 50.3275C41.7175 50.6275 41.4076 50.7975 41.0876 50.7675L36.4975 50.2875C35.3275 50.1675 34.1676 50.4775 33.2176 51.1675L29.4775 53.8775C29.2175 54.0675 28.8575 54.0675 28.5975 53.8775L24.8575 51.1675C24.0475 50.5775 23.0675 50.2575 22.0675 50.2575C21.8975 50.2575 21.7375 50.2675 21.5675 50.2875L16.9775 50.7675C16.6475 50.8075 16.3476 50.6275 16.2176 50.3275L14.3376 46.1075C13.8576 45.0375 13.0075 44.1775 11.9375 43.7075L7.71756 41.8275C7.41756 41.6975 7.24756 41.3875 7.27756 41.0675L7.75754 36.4775C7.87754 35.3075 7.56753 34.1475 6.87753 33.1975L4.16751 29.4575C3.97751 29.1975 3.97751 28.8475 4.16751 28.5775L6.87753 24.8375C7.56753 23.8875 7.87754 22.7275 7.75754 21.5575L7.27756 16.9675C7.24756 16.6475 7.41756 16.3375 7.71756 16.2075L11.9375 14.3275C13.0075 13.8475 13.8676 12.9975 14.3376 11.9275L16.2176 7.7075C16.3476 7.4075 16.6675 7.2275 16.9775 7.2675L21.5675 7.74751C22.7375 7.86751 23.8975 7.55751 24.8475 6.86751L28.5876 4.1575C28.8476 3.9675 29.1976 3.9675 29.4676 4.1575L33.2076 6.86751C34.1576 7.55751 35.3175 7.86751 36.4875 7.74751L41.0775 7.2675C41.4075 7.2275 41.7076 7.4075 41.8376 7.7075L43.7176 11.9275C44.1976 12.9975 45.0475 13.8575 46.1175 14.3275L50.3376 16.2075C50.6376 16.3375 50.8076 16.6475 50.7776 16.9675L50.2975 21.5575C50.1775 22.7275 50.4875 23.8875 51.1775 24.8375L53.8875 28.5775C54.0875 28.8375 54.0876 29.1875 53.8976 29.4575Z" fill="#101820"/>
<path d="M29.0375 11.7375C19.4975 11.7375 11.7576 19.4775 11.7576 29.0175C11.7576 38.5575 19.4975 46.2975 29.0375 46.2975C38.5775 46.2975 46.3176 38.5575 46.3176 29.0175C46.3176 19.4675 38.5775 11.7375 29.0375 11.7375ZM23.8976 20.9676L25.6075 19.6275H31.2375V35.1776H34.1575V38.3976H24.3076V35.1776H27.6976V22.8475H23.8876V20.9676H23.8976Z" fill="#22C55E"/>
</svg>
