<svg width="59" height="76" viewBox="0 0 59 76" fill="none" xmlns="http://www.w3.org/2000/svg">
<path d="M47.3575 47.7276L45.7576 51.3276L50.8276 63.2676L43.6476 63.5176L42.2975 63.5676L41.3276 64.5076L36.1675 69.4976L31.0876 57.5276C30.4276 57.8476 29.7176 58.0176 29.0076 58.0176C28.2976 58.0176 27.5876 57.8476 26.9276 57.5276L21.8475 69.4976L16.6876 64.5076L15.7176 63.5676L14.3676 63.5176L7.18756 63.2676L12.2576 51.3176L10.6576 47.7176C10.5876 47.5476 10.4476 47.4176 10.2776 47.3376L10.1675 47.2876L1.97754 66.5876L14.2476 67.0076L23.0776 75.5376L29.0076 61.5776L34.9376 75.5376L43.7676 67.0076L56.0375 66.5876L47.8475 47.2876L47.7375 47.3376C47.5675 47.4176 47.4375 47.5576 47.3575 47.7276Z" fill="#22C55E"/>
<path d="M57.1175 31.7975C58.3275 30.1275 58.3275 27.8875 57.1175 26.2175L54.4075 22.4775C54.2975 22.3275 54.2475 22.1475 54.2675 21.9675L54.7475 17.3775C54.9575 15.3275 53.8375 13.3875 51.9575 12.5475L47.7375 10.6675C47.5675 10.5875 47.4375 10.4575 47.3575 10.2875L45.4774 6.06749C44.6374 4.18749 42.7075 3.0675 40.6475 3.2775L36.0575 3.75749C35.8775 3.77749 35.6874 3.72749 35.5374 3.61749L31.7975 0.9075C30.1275 -0.3025 27.8875 -0.3025 26.2175 0.9075L22.4774 3.61749C22.3274 3.72749 22.1375 3.77749 21.9675 3.75749L17.3775 3.2775C15.3175 3.0675 13.3875 4.18749 12.5475 6.06749L10.6674 10.2875C10.5874 10.4575 10.4574 10.5875 10.2874 10.6675L6.06747 12.5475C4.18747 13.3875 3.0675 15.3275 3.2775 17.3775L3.75748 21.9675C3.77748 22.1475 3.72746 22.3375 3.61746 22.4875L0.9075 26.2275C-0.3025 27.8975 -0.3025 30.1375 0.9075 31.8075L3.61746 35.5475C3.72746 35.6975 3.77748 35.8775 3.75748 36.0575L3.2775 40.6475C3.0675 42.6975 4.18747 44.6375 6.06747 45.4775L10.1775 47.3075L10.2874 47.3575C10.4574 47.4375 10.5874 47.5675 10.6674 47.7375L12.2675 51.3375L12.5475 51.9575C13.3875 53.8375 15.3175 54.9575 17.3775 54.7475L21.9675 54.2675C22.1475 54.2475 22.3374 54.2975 22.4774 54.4075L26.2175 57.1175C26.4475 57.2775 26.6875 57.4175 26.9275 57.5375C27.5875 57.8575 28.2975 58.0275 29.0075 58.0275C29.7175 58.0275 30.4275 57.8575 31.0875 57.5375C31.3375 57.4175 31.5675 57.2775 31.7975 57.1175L35.5374 54.4075C35.6874 54.2975 35.8775 54.2475 36.0575 54.2675L40.6475 54.7475C42.6975 54.9575 44.6374 53.8375 45.4774 51.9575L45.7475 51.3375L47.3474 47.7375C47.4274 47.5675 47.5574 47.4375 47.7274 47.3575L47.8375 47.3075L51.9475 45.4775C53.8275 44.6375 54.9475 42.6975 54.7375 40.6475L54.2575 36.0575C54.2375 35.8775 54.2875 35.6975 54.3975 35.5475L57.1175 31.7975ZM50.2874 36.4675L50.7675 41.0575C50.7975 41.3775 50.6275 41.6875 50.3275 41.8175L46.1075 43.6975C45.0375 44.1775 44.1875 45.0275 43.7075 46.0975L41.8275 50.3175C41.6975 50.6175 41.3875 50.7975 41.0675 50.7575L36.4774 50.2775C35.3174 50.1575 34.1475 50.4675 33.1975 51.1575L29.4575 53.8675C29.1975 54.0575 28.8475 54.0575 28.5775 53.8675L24.8375 51.1575C24.0275 50.5675 23.0475 50.2475 22.0475 50.2475C21.8775 50.2475 21.7175 50.2575 21.5475 50.2775L16.9575 50.7575C16.6375 50.7975 16.3275 50.6175 16.1975 50.3175L14.3175 46.0975C13.8375 45.0275 12.9874 44.1775 11.9174 43.6975L7.69748 41.8175C7.39748 41.6875 7.22748 41.3775 7.25748 41.0575L7.73746 36.4675C7.85746 35.2975 7.54745 34.1375 6.85745 33.1875L4.14749 29.4475C3.95749 29.1875 3.95749 28.8375 4.14749 28.5675L6.85745 24.8275C7.54745 23.8775 7.85746 22.7175 7.73746 21.5475L7.25748 16.9575C7.22748 16.6375 7.39748 16.3275 7.69748 16.1975L11.9174 14.3175C12.9874 13.8375 13.8375 12.9875 14.3175 11.9175L16.1975 7.69749C16.3275 7.39749 16.6475 7.21749 16.9575 7.25749L21.5475 7.7375C22.7175 7.8575 23.8775 7.5475 24.8275 6.8575L28.5675 4.14749C28.8275 3.95749 29.1775 3.95749 29.4375 4.14749L33.1775 6.8575C34.1275 7.5475 35.2975 7.8575 36.4575 7.7375L41.0475 7.25749C41.3775 7.21749 41.6775 7.39749 41.8075 7.69749L43.6875 11.9175C44.1675 12.9875 45.0175 13.8375 46.0875 14.3175L50.3075 16.1975C50.6075 16.3275 50.7775 16.6375 50.7475 16.9575L50.2675 21.5475C50.1475 22.7175 50.4575 23.8775 51.1475 24.8275L53.8575 28.5675C54.0475 28.8275 54.0475 29.1775 53.8575 29.4475L51.1475 33.1875C50.4775 34.1275 50.1574 35.2975 50.2874 36.4675Z" fill="white"/>
<path d="M29.0173 11.7275C19.4773 11.7275 11.7373 19.4675 11.7373 29.0075C11.7373 38.5475 19.4773 46.2875 29.0173 46.2875C38.5573 46.2875 46.2973 38.5475 46.2973 29.0075C46.2973 19.4575 38.5673 11.7275 29.0173 11.7275ZM29.0173 42.7875C21.4173 42.7875 15.2373 36.6075 15.2373 29.0075C15.2373 21.4075 21.4173 15.2275 29.0173 15.2275C36.6173 15.2275 42.7973 21.4075 42.7973 29.0075C42.7973 36.6075 36.6173 42.7875 29.0173 42.7875Z" fill="white"/>
<path d="M27.6774 34.6375H24.5275V37.8575H33.9075V34.6375H31.1874V20.1575H25.7974L24.1274 21.4575V23.3675H27.6774V34.6375Z" fill="#22C55E"/>
</svg>
