<svg width="59" height="76" viewBox="0 0 59 76" fill="none" xmlns="http://www.w3.org/2000/svg">
<path d="M47.3776 47.7376L45.7775 51.3376L50.8475 63.2876L43.6675 63.5376L42.3176 63.5876L41.3475 64.5276L36.1876 69.5176L31.1075 57.5476C30.4475 57.8676 29.7375 58.0376 29.0275 58.0376C28.3175 58.0376 27.6076 57.8776 26.9476 57.5476L21.8676 69.5176L16.7075 64.5276L15.7375 63.5876L14.3876 63.5376L7.20752 63.2876L12.2775 51.3376L10.6776 47.7376C10.5976 47.5676 10.4675 47.4376 10.2975 47.3576L10.1876 47.3076L1.99756 66.6076L14.2675 67.0276L23.0975 75.5576L29.0275 61.5976L34.9575 75.5576L43.7875 67.0276L56.0576 66.6076L47.8676 47.3076L47.7576 47.3576C47.5776 47.4276 47.4476 47.5676 47.3776 47.7376Z" fill="#22C55E"/>
<path d="M54.4175 22.4875C54.3075 22.3375 54.2575 22.1575 54.2775 21.9675L54.7575 17.3775C54.9675 15.3275 53.8475 13.3875 51.9675 12.5475L47.7475 10.6675C47.5775 10.5875 47.4475 10.4575 47.3675 10.2875L45.4875 6.0675C44.6475 4.1875 42.7175 3.05751 40.6575 3.27751L36.0675 3.75751C35.8975 3.77751 35.6975 3.72751 35.5475 3.61751L31.8075 0.9075C30.1375 -0.3025 27.8975 -0.3025 26.2275 0.9075L22.4875 3.61751C22.3375 3.72751 22.1475 3.77751 21.9675 3.75751L17.3775 3.27751C15.3275 3.05751 13.3875 4.1875 12.5475 6.0675L10.6675 10.2875C10.5875 10.4575 10.4575 10.5875 10.2875 10.6675L6.06753 12.5475C4.18753 13.3875 3.0675 15.3275 3.2775 17.3775L3.75754 21.9675C3.77754 22.1475 3.72752 22.3375 3.61752 22.4875L0.9075 26.2275C-0.3025 27.8975 -0.3025 30.1375 0.9075 31.8075L3.61752 35.5475C3.72752 35.6975 3.77754 35.8775 3.75754 36.0675L3.2775 40.6575C3.0675 42.7075 4.18753 44.6475 6.06753 45.4875L10.1775 47.3175L10.2875 47.3675C10.4575 47.4475 10.5875 47.5775 10.6675 47.7475L12.2675 51.3475L12.5475 51.9675C13.3875 53.8475 15.3275 54.9775 17.3775 54.7575L21.9675 54.2775C22.1475 54.2575 22.3375 54.3075 22.4875 54.4175L26.2275 57.1275C26.4575 57.2875 26.6975 57.4275 26.9375 57.5475C27.5975 57.8675 28.3075 58.0375 29.0175 58.0375C29.7275 58.0375 30.4375 57.8775 31.0975 57.5475C31.3475 57.4275 31.5775 57.2875 31.8075 57.1275L35.5475 54.4175C35.6975 54.3075 35.8775 54.2575 36.0675 54.2775L40.6575 54.7575C42.6975 54.9675 44.6475 53.8475 45.4875 51.9675L45.7675 51.3475L47.3675 47.7475C47.4475 47.5775 47.5775 47.4475 47.7475 47.3675L47.8575 47.3175L51.9675 45.4875C53.8475 44.6475 54.9675 42.7075 54.7575 40.6575L54.2775 36.0575C54.2575 35.8775 54.3075 35.6975 54.4175 35.5475L57.1275 31.8075C58.3375 30.1375 58.3375 27.8975 57.1275 26.2275L54.4175 22.4875ZM53.8875 29.4575L51.1775 33.1975C50.4875 34.1475 50.1775 35.3175 50.2975 36.4775L50.7775 41.0675C50.8075 41.3875 50.6375 41.6975 50.3375 41.8275L46.1175 43.7075C45.0475 44.1875 44.1875 45.0375 43.7175 46.1075L41.8375 50.3275C41.7075 50.6275 41.3975 50.7975 41.0775 50.7675L36.4875 50.2875C35.3175 50.1675 34.1575 50.4775 33.2075 51.1675L29.4675 53.8775C29.2075 54.0675 28.8475 54.0675 28.5875 53.8775L24.8475 51.1675C24.0375 50.5775 23.0575 50.2575 22.0575 50.2575C21.8875 50.2575 21.7275 50.2675 21.5575 50.2875L16.9675 50.7675C16.6375 50.8075 16.3375 50.6275 16.2075 50.3275L14.3275 46.1075C13.8475 45.0375 12.9975 44.1775 11.9275 43.7075L7.70749 41.8275C7.40749 41.6975 7.23749 41.3875 7.26749 41.0675L7.74753 36.4775C7.86753 35.3075 7.55752 34.1475 6.86752 33.1975L4.1575 29.4575C3.9675 29.1975 3.9675 28.8475 4.1575 28.5775L6.86752 24.8375C7.55752 23.8875 7.86753 22.7275 7.74753 21.5575L7.26749 16.9675C7.23749 16.6475 7.40749 16.3375 7.70749 16.2075L11.9275 14.3275C12.9975 13.8475 13.8575 12.9975 14.3275 11.9275L16.2075 7.7075C16.3375 7.4075 16.6575 7.2275 16.9675 7.2675L21.5575 7.74751C22.7275 7.86751 23.8875 7.55751 24.8375 6.86751L28.5775 4.1575C28.8375 3.9675 29.1875 3.9675 29.4575 4.1575L33.1975 6.86751C34.1475 7.55751 35.3075 7.86751 36.4775 7.74751L41.0675 7.2675C41.3975 7.2275 41.6975 7.4075 41.8275 7.7075L43.7075 11.9275C44.1875 12.9975 45.0375 13.8575 46.1075 14.3275L50.3275 16.2075C50.6275 16.3375 50.7975 16.6475 50.7675 16.9675L50.2875 21.5575C50.1675 22.7275 50.4775 23.8875 51.1675 24.8375L53.8775 28.5775C54.0775 28.8375 54.0775 29.1875 53.8875 29.4575Z" fill="#101820"/>
<path d="M29.0275 11.7375C19.4875 11.7375 11.7476 19.4775 11.7476 29.0175C11.7476 38.5575 19.4875 46.2975 29.0275 46.2975C38.5675 46.2975 46.3076 38.5575 46.3076 29.0175C46.3076 19.4675 38.5775 11.7375 29.0275 11.7375ZM23.8975 20.9676L25.6075 19.6275H31.2375V35.1776H34.1575V38.3976H24.3076V35.1776H27.6976V22.8475H23.8876V20.9676H23.8975Z" fill="#101820"/>
</svg>
