<svg width="804" height="118" viewBox="0 0 804 118" fill="none" xmlns="http://www.w3.org/2000/svg">
<g clip-path="url(#clip0_96_2)">
<path d="M64.81 28.76L87.19 31.81V0.0100098H0V31.81L22.35 28.77V28.4V23.56H30.6V23.57H30.63V94.26H25.16L21.97 117.83H65.22L62.03 94.26H56.56V23.57V23.56H64.81V28.4V28.76Z" fill="#101820"/>
<path d="M97.26 102.51V15.32C97.26 6.9 104.16 0 112.58 0H158.53C166.95 0 173.85 6.9 173.85 15.32V102.51C173.85 110.93 166.95 117.83 158.53 117.83H112.58C104.16 117.83 97.26 110.93 97.26 102.51ZM147.93 94.26V23.57H123.19V94.26H147.93Z" fill="#101820"/>
<path d="M341.61 23.65C348.14 23.65 353.43 18.36 353.43 11.83C353.43 5.33 348.18 0.0599985 341.7 0.0199986L280.88 0V23.57H285.42L277.34 78.95L263.2 0.0100002H239.64L225.5 78.95L217.42 23.57H221.96V0.0100002H182.24L185.44 23.57H191.33L202.44 94.24H197.3L194.1 117.83H247.36V94.24H242.39L251.42 40.07L260.45 94.24H255.61V117.83H308.87L305.67 94.24H300.4L310.47 30.15L293.27 23.66C293.26 23.65 341.54 23.65 341.61 23.65ZM345.7 11.84C345.7 14.1 343.86 15.93 341.61 15.93C339.35 15.93 337.52 14.09 337.52 11.84C337.52 9.58 339.36 7.75 341.61 7.75C343.86 7.75 345.7 9.58 345.7 11.84ZM309.01 6.84H313.13L314.28 16.84H310.16L309.01 6.84ZM305.47 16.84H301.35L300.2 6.84H304.32L305.47 16.84ZM330.12 14.57H318.48L317.85 9.12H330.11C329.9 10 329.78 10.91 329.78 11.85C329.79 12.78 329.91 13.69 330.12 14.57ZM291.4 6.84H295.52L296.67 16.84H292.55L291.4 6.84Z" fill="#101820"/>
<path d="M341.61 47.69C339.23 47.69 337.29 45.76 337.29 43.37V17.21H345.92V43.37C345.92 45.76 343.99 47.69 341.61 47.69Z" fill="#101820"/>
<path d="M361.12 77.4299L349.29 58.3399L348.57 57.1899L347.5 58.0299L342.61 61.8699L341.65 62.6199L342.41 63.5799L356.19 81.0299L356.93 81.9499L357.87 81.2499L360.82 79.0499L361.71 78.3799L361.12 77.4299Z" fill="#22C55E"/>
<mask id="mask0_96_2" style="mask-type:luminance" maskUnits="userSpaceOnUse" x="341" y="57" width="21" height="25">
<path d="M361.12 77.4299L349.29 58.3399L348.57 57.1899L347.5 58.0299L342.61 61.8699L341.65 62.6199L342.41 63.5799L356.19 81.0299L356.93 81.9499L357.87 81.2499L360.82 79.0499L361.71 78.3799L361.12 77.4299Z" fill="#15803D"/>
</mask>
<g mask="url(#mask0_96_2)">
<path d="M342.31 108.56C331.13 108.56 322.01 101.4 319.61 90.75C318.45 85.61 319.08 81.14 321.54 77.07C323.04 74.59 325.13 72.83 326.97 71.43C327.43 71.05 328.07 70.61 328.82 70.11C331.27 68.45 334.58 66.19 334.61 63.73C334.61 62.06 334.02 61.39 331.82 59.79C331.27 59.38 330.8 58.55 331.21 57.48C331.5 56.53 332.06 55.35 342.69 54.71L349.64 53.56C350.42 52.77 351.44 52.27 352.54 52.14C352.73 52.12 352.91 52.11 353.09 52.11C353.7 52.11 354.31 52.23 354.9 52.46L356.95 53.26L355.75 55.1C355.09 56.11 354.8 57.33 354.94 58.53C354.99 58.91 355.08 59.31 355.23 59.71L355.26 59.78L355.34 60.06C355.48 60.51 355.59 61.03 355.65 61.55C355.92 63.87 355.28 66.16 353.83 67.99C352.39 69.82 350.31 70.98 347.99 71.26C347.66 71.3 347.32 71.32 346.99 71.32C346.87 71.32 346.74 71.32 346.62 71.31C345.86 73.06 343.96 75.84 339.36 79.92C337.77 81.71 337.03 83.62 337.08 85.74C337.16 89.45 340.32 92.47 344.1 92.47C344.78 92.47 345.47 92.37 346.15 92.17C348.68 91.44 350.29 89.74 351.07 86.98L351.58 85.1L353.24 85.46C354.36 85.7 355.49 85.92 356.64 86.13L356.82 86.16C358.64 86.5 360.71 86.88 362.61 87.64L363.89 88.15L363.72 89.52C363.72 89.54 363.72 89.6 363.71 89.65C362.85 96.47 357.39 108.14 342.42 108.56H342.4H342.31Z" fill="#15803D"/>
<path d="M353.1 53.8899C353.48 53.8899 353.87 53.9699 354.25 54.1199C353.36 55.4799 352.97 57.1199 353.16 58.7399C353.22 59.2599 353.35 59.7899 353.55 60.3299L353.61 60.5299C353.73 60.9399 353.82 61.3499 353.87 61.7599C354.09 63.5999 353.57 65.42 352.42 66.88C351.27 68.34 349.62 69.26 347.78 69.4799C347.52 69.51 347.25 69.5299 346.98 69.5299C346.49 69.5299 346 69.4799 345.5 69.3699L345.3 69.3299L345.28 69.5299C345.21 70.2399 344.48 73 338.08 78.66C336.15 80.7999 335.21 83.1999 335.27 85.7899C335.38 90.4699 339.33 94.27 344.08 94.27C344.93 94.27 345.79 94.1499 346.63 93.8999C349.76 92.9899 351.82 90.8299 352.77 87.4799C352.79 87.3899 352.82 87.2999 352.84 87.2199C353.97 87.4599 355.12 87.6799 356.29 87.8999C358.15 88.2499 360.13 88.5999 361.91 89.3199C361.91 89.3599 361.9 89.41 361.9 89.45C361.11 95.71 356.1 106.41 342.34 106.79H342.3C331.98 106.79 323.56 100.19 321.35 90.3699C320.3 85.7 320.86 81.6599 323.06 77.9999C324.4 75.7799 326.33 74.1499 328.04 72.8599C328.5 72.4799 329.12 72.0599 329.84 71.5699C332.59 69.6999 336.35 67.1499 336.38 63.7499C336.38 61.1499 335.15 60.0199 332.85 58.3499C332.77 58.2899 332.87 58.1099 332.88 58.0799C333.07 57.4499 338.11 56.7799 342.88 56.4999L350.55 55.2299L350.73 55.02C351.24 54.41 351.96 54.0199 352.74 53.9199C352.87 53.8999 352.98 53.8899 353.1 53.8899ZM353.1 50.3199C352.85 50.3199 352.6 50.3299 352.35 50.3599C351.04 50.5199 349.82 51.05 348.83 51.88L342.49 52.9299C340.03 53.0799 337.54 53.3299 335.65 53.6099C333.2 53.9799 330.42 54.3899 329.54 56.8199C328.81 58.6899 329.6 60.36 330.74 61.2C332.82 62.72 332.82 62.9299 332.82 63.7199C332.8 65.2199 329.58 67.41 327.84 68.59L327.8 68.6199C327.05 69.1299 326.4 69.5699 325.84 70.0299C323.87 71.5199 321.65 73.4199 320.01 76.1399C317.34 80.5599 316.62 85.6099 317.87 91.1399C320.46 102.63 330.28 110.35 342.31 110.35H342.36H342.45C358.63 109.9 364.53 97.27 365.46 89.88C365.47 89.81 365.48 89.7299 365.48 89.6499L365.78 86.9899L363.25 85.9799C361.19 85.16 359.03 84.7499 357.12 84.3999L356.95 84.3699C355.93 84.18 354.74 83.9599 353.6 83.7099L350.28 82.9899L349.39 86.2599L349.35 86.4299L349.34 86.4899C348.73 88.6599 347.58 89.88 345.64 90.45C345.12 90.6 344.6 90.6799 344.09 90.6799C341.27 90.6799 338.92 88.4399 338.86 85.6899C338.82 84.07 339.4 82.5899 340.63 81.1799C344.07 78.1099 346.45 75.3999 347.74 73.0799C347.89 73.0699 348.05 73.0499 348.2 73.0399C350.99 72.7099 353.49 71.3099 355.23 69.0999C356.97 66.8899 357.75 64.1399 357.42 61.3499C357.35 60.7499 357.22 60.1399 357.04 59.5499L357 59.3899L356.96 59.2399L356.91 59.0999C356.81 58.8299 356.75 58.5699 356.72 58.3299C356.63 57.5499 356.81 56.75 357.25 56.09L359.66 52.41L355.57 50.7999C354.76 50.4799 353.93 50.3199 353.1 50.3199Z" fill="#22C55E"/>
</g>
<path d="M363.8 77.36C363.5 76.7299 363.1 76.07 362.6 75.3499C362.21 74.7899 362.01 74.63 361.72 74.63C361.52 74.63 361.25 74.71 360.85 74.84C359.3 75.33 355.54 77 354.18 82.0299C353.86 83.0299 353.61 84.09 353.38 85.0999C353.2 85.8699 353.01 86.68 352.79 87.45C351.84 90.8 349.77 92.96 346.65 93.87C345.81 94.11 344.95 94.2399 344.1 94.2399C339.35 94.2399 335.4 90.44 335.29 85.76C335.23 83.17 336.17 80.78 338.1 78.63C344.49 72.97 345.23 70.22 345.3 69.5L345.32 69.3L345.52 69.34C346.01 69.45 346.51 69.5 347 69.5C347.26 69.5 347.53 69.48 347.8 69.45C349.64 69.23 351.29 68.3099 352.44 66.8499C353.59 65.3899 354.1 63.57 353.89 61.73C353.84 61.32 353.75 60.91 353.63 60.5L353.57 60.3C353.38 59.77 353.25 59.24 353.18 58.7099C352.99 57.0899 353.37 55.45 354.27 54.09C354.26 54.09 354.26 54.09 354.25 54.09C355.65 51.82 356.47 49.16 356.47 46.3C356.47 38.1 349.82 31.45 341.62 31.45C333.42 31.45 326.77 38.1 326.77 46.3C326.77 51.23 329.18 55.5799 332.87 58.2799C332.87 58.2899 332.88 58.2999 332.89 58.3099C335.19 59.9799 336.42 61.1099 336.42 63.7099C336.39 67.11 332.62 69.6699 329.88 71.5299C329.16 72.02 328.54 72.4399 328.08 72.82C326.37 74.11 324.44 75.7399 323.1 77.9599C320.9 81.61 320.34 85.66 321.39 90.33C323.6 100.15 332.02 106.75 342.34 106.75H342.38C356.14 106.37 361.15 95.67 361.94 89.41C362.1 88.13 362.08 86.81 362.05 85.52C362.04 84.88 362.03 84.24 362.04 83.61C362.07 81.4 362.64 79.6 363.77 78.11C363.87 77.97 363.9 77.56 363.8 77.36ZM341.61 39.3099C345.48 39.3099 348.63 42.46 348.63 46.33C348.63 50.2 345.48 53.3499 341.61 53.3499C337.74 53.3499 334.59 50.2 334.59 46.33C334.59 42.45 337.74 39.3099 341.61 39.3099Z" fill="#101820"/>
<path d="M349.71 62.2499C349.89 63.7699 348.81 65.1399 347.29 65.3199C345.77 65.4999 344.4 64.4199 344.22 62.8999C344.04 61.3799 345.12 60.0099 346.64 59.8299C348.15 59.6499 349.53 60.7299 349.71 62.2499Z" fill="#22C55E"/>
<path fill-rule="evenodd" clip-rule="evenodd" d="M438.356 118H368L374.809 94.4V23.6L368 0H406.582L399.774 23.6V94.4H413.391V89.1743H438.356V118ZM466.023 118C457.918 118 451.271 111.089 451.271 102.66V15.34C451.271 6.91143 457.918 0 466.023 0H510.279C518.385 0 525.031 6.91143 525.031 15.34V102.66C525.031 111.089 518.385 118 510.279 118H466.023ZM476.236 94.4H500.066V23.6H476.236V94.4ZM533.162 118H560.397L564.612 94.4H590.387L594.44 118H621.674L601.248 23.6L608.057 0H547.914L554.561 23.6L533.162 118ZM688.854 118L661.619 50.74V94.4L668.428 118H629.846L636.654 94.4V23.6L629.846 0H663.889L691.123 67.26V23.6L684.315 0H722.897L716.088 23.6V118H688.854ZM735.914 102.66C735.914 111.089 742.56 118 750.666 118H789.248C797.353 118 804 111.089 804 102.66V69.1143C804 63.0457 800.434 57.4829 794.922 55.1229L760.879 40.12V23.6H779.035V37.76L804 31.86V15.34C804 6.91143 797.353 0 789.248 0H750.666C742.56 0 735.914 6.91143 735.914 15.34V45.3457C735.914 51.4143 739.48 56.9771 744.992 59.3372L779.035 74.34V94.4H760.879V80.24L735.914 86.14V102.66ZM568.446 64.4469L565.331 79.375L577.167 71.4594L589.002 79.375L585.887 64.4469L596.333 54.4062L582.533 53.0781L577.167 39L571.8 53.0781L558 54.4062L568.446 64.4469Z" fill="#101820"/>
</g>
<defs>
<clipPath id="clip0_96_2">
<rect width="804" height="118" fill="white"/>
</clipPath>
</defs>
</svg>
