<svg width="109" height="83" viewBox="0 0 109 83" fill="none" xmlns="http://www.w3.org/2000/svg">
<path d="M19.279 30.9613C19.279 28.5513 20.279 26.3813 21.889 24.8313L5.21899 27.7713L7.099 38.4413L19.279 36.2913V30.9613Z" fill="#101820"/>
<path d="M83.4391 22.4212L81.9991 14.2312L35.5491 22.4212H83.4391Z" fill="#101820"/>
<path d="M101.179 69.4113C100.849 71.5913 98.979 73.2613 96.709 73.2613H73.679C72.279 74.6913 70.969 76.0513 69.749 77.2613H96.699C101.409 77.2613 105.239 73.4313 105.239 68.7213V66.5913C104.009 67.6913 102.649 68.6413 101.179 69.4113Z" fill="#101820"/>
<path d="M64.519 73.2712H27.819C25.319 73.2712 23.279 71.2312 23.279 68.7312V30.9612C23.279 28.4612 25.319 26.4212 27.819 26.4212H96.699C99.199 26.4212 101.239 28.4612 101.239 30.9612V32.4612C102.689 33.2312 104.019 34.1712 105.239 35.2412V30.9712C105.239 26.2612 101.409 22.4312 96.699 22.4312H87.499L84.789 7.06119C83.969 2.42119 79.539 -0.688815 74.899 0.131185L7.05902 12.0912C4.80902 12.4912 2.84901 13.7312 1.54901 15.6012C0.239013 17.4712 -0.26097 19.7412 0.12903 21.9812L6.68903 59.1812C7.08903 61.4312 8.32904 63.3812 10.199 64.6912C11.649 65.7112 13.339 66.2412 15.079 66.2412C15.579 66.2412 16.079 66.2012 16.579 66.1112L19.269 65.6412V68.7412C19.269 73.4512 23.099 77.2812 27.809 77.2812H61.159C61.909 76.0812 63.079 74.7412 64.519 73.2712ZM12.499 61.4112C11.509 60.7112 10.839 59.6712 10.629 58.4812L7.09903 38.4412L5.21903 27.7712L4.07901 21.2912C3.86901 20.1012 4.13901 18.8912 4.82901 17.9012C5.52901 16.9112 6.56904 16.2412 7.75904 16.0312L75.599 4.07119C75.869 4.02119 76.129 4.00119 76.389 4.00119C78.549 4.00119 80.469 5.55119 80.859 7.75119L81.999 14.2312L83.439 22.4212H35.549H27.819C25.519 22.4212 23.429 23.3412 21.889 24.8312C20.279 26.3812 19.279 28.5612 19.279 30.9612V36.3012V61.5712L15.889 62.1712C14.699 62.3712 13.489 62.1012 12.499 61.4112Z" fill="#101820"/>
<path d="M30.5791 36.7812V42.8312C30.5791 44.5112 31.9591 45.8912 33.6391 45.8912H43.7691C45.4491 45.8912 46.8291 44.5112 46.8291 42.8312V36.7812C46.8291 35.1012 45.4491 33.7212 43.7691 33.7212H33.6391C31.9591 33.7212 30.5791 35.1012 30.5791 36.7812ZM35.6691 38.8112H32.5791V36.7812C32.5791 36.2012 33.0691 35.7212 33.6391 35.7212H35.6691V38.8112ZM32.5791 42.8312V40.8012H35.6691V43.8912H33.6391C33.0691 43.9012 32.5791 43.4112 32.5791 42.8312ZM43.7691 35.7212C44.3491 35.7212 44.8291 36.2112 44.8291 36.7812V38.8712H42.8291C42.2491 38.8712 41.7691 38.3812 41.7691 37.8112V35.7212H43.7691ZM42.8391 40.8712H44.8391V42.8312C44.8391 43.4112 44.3491 43.8912 43.7791 43.8912H37.6791V35.7112H39.7791V37.8012C39.7691 39.4912 41.1491 40.8712 42.8391 40.8712Z" fill="#101820"/>
<path d="M70.6391 51.9211H30.5791V57.9211H71.8191C71.1391 56.0211 70.7391 54.0111 70.6391 51.9211Z" fill="#101820"/>
<path d="M73.679 73.2712C74.049 72.8912 74.419 72.5212 74.809 72.1312C76.479 70.4612 77.979 68.8112 79.289 67.2612C80.479 67.7812 81.919 67.5612 82.889 66.5912L83.619 65.8612C85.969 67.1012 88.649 67.8112 91.499 67.8112C100.829 67.8112 108.399 60.2412 108.399 50.9112C108.399 41.5812 100.829 34.0112 91.499 34.0112C82.169 34.0112 74.599 41.5812 74.599 50.9112C74.599 53.7612 75.309 56.4312 76.549 58.7912L75.819 59.5212C74.839 60.5012 74.629 61.9312 75.149 63.1212C73.589 64.4212 71.939 65.9312 70.279 67.6012C68.199 69.6812 66.199 71.5712 64.539 73.2712C63.099 74.7512 61.919 76.0812 61.189 77.2712C60.199 78.8812 60.019 80.2312 61.109 81.3112C63.109 83.3112 65.999 81.0212 69.769 77.2712C70.969 76.0512 72.269 74.6912 73.679 73.2712ZM78.589 50.9212C78.589 43.8112 84.379 38.0212 91.489 38.0212C98.599 38.0212 104.389 43.8112 104.389 50.9212C104.389 58.0312 98.599 63.8212 91.489 63.8212C84.369 63.8112 78.589 58.0312 78.589 50.9212Z" fill="#101820"/>
<path d="M86.8191 47.8211V48.5611C86.8191 50.4111 87.6191 51.4911 89.2291 51.7911L92.7491 52.4911C93.0891 52.5411 93.2491 52.7611 93.2491 53.1511V54.3211C93.2491 54.7211 93.0491 54.9211 92.6491 54.9211H86.8191V56.4911L88.1691 57.5311H90.2791V59.9411H92.6891V57.5311H92.9891C95.0891 57.5311 96.1391 56.3511 96.1391 53.9911V53.1711C96.1391 51.3511 95.3391 50.2711 93.7291 49.9411L90.2091 49.2411C89.8691 49.1711 89.7091 48.9511 89.7091 48.5811V47.4911C89.7091 47.0911 89.9091 46.8911 90.3091 46.8911H95.7291V45.3211L94.3791 44.2711H92.6691V41.8611H90.2591V44.2711H89.9591C87.8791 44.2911 86.8191 45.4611 86.8191 47.8211Z" fill="#22C55E"/>
</svg>
