<svg width="74" height="74" viewBox="0 0 74 74" fill="none" xmlns="http://www.w3.org/2000/svg">
<path d="M46.183 17.8297L36.5947 27.418L40.6323 31.4555L50.2205 21.8672L46.183 17.8297Z" fill="#101820"/>
<path d="M13.2256 45.8799L27.2856 59.9399C28.2456 60.8999 29.5156 61.39 30.7856 61.39C32.0556 61.39 33.3156 60.9099 34.2856 59.9399L44.9855 49.2399L42.8655 47.1199L32.1655 57.8199C31.4055 58.5799 30.1755 58.5799 29.4155 57.8199L21.8456 50.2499L17.8055 46.2099L15.3555 43.7599C14.5955 42.9999 14.5955 41.7699 15.3555 41.0099L26.0555 30.3099L23.9356 28.1899L13.2355 38.89C11.2955 40.81 11.2956 43.9499 13.2256 45.8799Z" fill="#22C55E"/>
<path d="M32.7755 23.58L40.9955 15.36C41.3755 14.98 41.8755 14.79 42.3655 14.79C42.8655 14.79 43.3655 14.98 43.7355 15.36L46.1855 17.81L50.2255 21.85L57.7955 29.42C58.5555 30.18 58.5555 31.41 57.7955 32.17L49.5755 40.39L51.6955 42.51L59.9155 34.29C61.8455 32.36 61.8455 29.23 59.9155 27.3L45.8555 13.24C43.9255 11.31 40.7955 11.31 38.8655 13.24L30.6455 21.46L32.7755 23.58Z" fill="#22C55E"/>
<path d="M37.2156 0.0100098C36.9956 0.0100098 36.7756 0 36.5656 0C16.6556 0 0.345603 15.96 0.00560346 35.94C-0.344397 56.14 15.7456 72.8 35.9456 73.16C36.1656 73.16 36.3856 73.17 36.5956 73.17C56.5056 73.17 72.8156 57.21 73.1556 37.23C73.5056 17.03 57.4156 0.37001 37.2156 0.0100098ZM36.5556 6.01001C36.7356 6.01001 36.9156 6.01001 37.1056 6.01001C53.9656 6.30001 67.4456 20.26 67.1456 37.12C67.0256 44.09 64.5756 50.68 60.2056 55.98L56.9156 52.69L19.7756 15.55L17.1756 12.95C22.6356 8.46 29.4156 6.01001 36.5556 6.01001ZM36.0356 67.17C27.8656 67.03 20.2456 63.71 14.5656 57.84C8.8956 51.96 5.84558 44.23 5.98558 36.06C6.10558 29.09 8.55559 22.51 12.9256 17.2L23.9156 28.19L26.0356 30.31L29.8656 34.14L17.7956 46.21L21.8356 50.25L33.9056 38.18L42.8556 47.13L44.9756 49.25L55.9656 60.24C50.5056 64.73 43.7256 67.18 36.5856 67.18C36.4056 67.17 36.2256 67.17 36.0356 67.17Z" fill="#101820"/>
</svg>
