<svg width="109" height="42" viewBox="0 0 109 42" fill="none" xmlns="http://www.w3.org/2000/svg">
<path d="M5.72 26.49C5.72 25.67 6.38001 25.01 7.20001 25.01H7.85001L8.70001 21.35C8.86001 20.68 9.45001 20.21 10.14 20.21H11.55L18.87 10.72L17.99 10.04L24.78 1.23999L23.17 0L16.38 8.79999L15.5 8.12L0 28.21L2.38 31.51L5.77002 30.34C5.75002 30.17 5.72 30.01 5.72 29.83V26.49Z" fill="white"/>
<path d="M62.6299 33.97H59.2099V36H82.2599V33.97H79.7999V31.95H84.1399C85.1399 28.1 88.6399 25.25 92.7999 25.25C97.3199 25.25 101.05 28.61 101.66 32.96H105.09H106.9C107.99 32.96 108.87 32.08 108.87 30.99V29.14V27.69V25.81H107.21V24.19V19.37C107.21 18.03 106.21 16.9 104.87 16.74L84.3999 14.35C84.1899 14.33 83.9899 14.25 83.8199 14.13L72.6199 6.39996L72.5999 6.38995C72.4199 6.26995 72.2099 6.18999 71.9899 6.17999L59.4899 5.46997C59.4899 5.46997 59.4899 5.46997 59.4799 5.46997L57.8999 5.38L57.4999 5.35999C57.4799 5.35999 57.4599 5.35999 57.4299 5.35999C56.8299 5.35999 56.3299 5.82999 56.2999 6.42999L56.2799 6.79999L55.6599 18.08L55.5999 21.49H53.7899V19.52L48.2999 19.3L52.7899 5.15997H54.9099C55.3199 5.15997 55.6099 4.77995 55.5199 4.38995L55.0899 2.62C55.0199 2.34 54.7699 2.13995 54.4799 2.13995H48.4999C48.2099 2.13995 47.9599 2.34 47.8899 2.62L47.4599 4.38995C47.3599 4.77995 47.6599 5.15997 48.0699 5.15997H49.6499L41.1599 15.71L26.1599 10.29L19.4499 14.29L14.9099 20.21L14.3999 20.88L10.1099 21.69L8.98993 26.49H7.16992V29.84C7.16992 30.91 8.03992 31.78 9.10992 31.78H14.2899L13.3999 33.26L11.5899 36.26L13.3299 37.31L15.7799 33.26L16.3199 32.37L18.0799 29.46V29.48C19.6599 26.95 22.4699 25.26 25.6699 25.26C29.7999 25.26 33.2699 28.07 34.2999 31.87L52.5299 31.95C53.2399 31.95 53.8099 31.38 53.8099 30.67V29.93H55.4799L55.4699 30.46V30.66V30.75C55.4599 31.41 55.9899 31.96 56.6599 31.96H56.7499H62.6199V33.97H62.6299ZM27.2499 18.45L20.6999 19.69L22.3599 17.53L26.6399 14.98L37.3899 18.87L27.2499 18.45ZM41.0999 29.13L38.8799 27.65L36.6599 29.13L37.3899 26.56L35.2899 24.91L37.9599 24.81L38.8799 22.31L39.7999 24.81L42.4699 24.91L40.3699 26.56L41.0999 29.13ZM50.0299 29.13L47.8099 27.65L45.5899 29.13L46.3199 26.56L44.2199 24.91L46.8899 24.81L47.8099 22.31L48.7299 24.81L51.3999 24.91L49.2999 26.56L50.0299 29.13ZM77.0399 33.97H65.3999V31.95H77.0399V33.97ZM62.3999 14.18C61.7699 14.16 61.2699 13.65 61.2699 13.02V9.59998C61.2699 8.94998 61.7899 8.44 62.4299 8.44C62.4499 8.44 62.4699 8.44 62.4999 8.44L70.7199 8.90997C71.1799 8.93997 71.6299 9.08998 72.0099 9.34998L77.8899 13.41C78.3999 13.76 78.1499 14.55 77.5399 14.55C77.5299 14.55 77.5299 14.55 77.5199 14.55L62.3999 14.18Z" fill="white"/>
<path d="M92.8101 26.74C88.6801 26.74 85.3301 30.09 85.3301 34.22C85.3301 38.35 88.6801 41.7 92.8101 41.7C96.9401 41.7 100.29 38.35 100.29 34.22C100.29 30.08 96.9401 26.74 92.8101 26.74ZM92.8101 38.04C90.7001 38.04 88.9901 36.33 88.9901 34.22C88.9901 32.11 90.7001 30.4 92.8101 30.4C94.9201 30.4 96.6301 32.11 96.6301 34.22C96.6401 36.33 94.9201 38.04 92.8101 38.04Z" fill="white"/>
<path d="M92.81 31.87C91.52 31.87 90.46 32.92 90.46 34.22C90.46 35.52 91.51 36.57 92.81 36.57C94.11 36.57 95.16 35.52 95.16 34.22C95.16 32.92 94.11 31.87 92.81 31.87Z" fill="white"/>
<path d="M25.6799 26.74C21.5499 26.74 18.2 30.09 18.2 34.22C18.2 38.35 21.5499 41.7 25.6799 41.7C29.8099 41.7 33.1599 38.35 33.1599 34.22C33.1599 30.08 29.8099 26.74 25.6799 26.74ZM25.6799 38.04C23.5699 38.04 21.86 36.33 21.86 34.22C21.86 32.11 23.5699 30.4 25.6799 30.4C27.7899 30.4 29.4999 32.11 29.4999 34.22C29.5099 36.33 27.7899 38.04 25.6799 38.04Z" fill="white"/>
<path d="M25.6801 31.87C24.3901 31.87 23.3301 32.92 23.3301 34.22C23.3301 35.52 24.3801 36.57 25.6801 36.57C26.9801 36.57 28.0301 35.52 28.0301 34.22C28.0301 32.92 26.9801 31.87 25.6801 31.87Z" fill="white"/>
</svg>
