<svg width="109" height="42" viewBox="0 0 109 42" fill="none" xmlns="http://www.w3.org/2000/svg">
<path d="M5.72 26.49C5.72 25.67 6.38 25.01 7.2 25.01H7.85L8.7 21.35C8.86 20.68 9.45 20.2101 10.14 20.2101H11.55L18.87 10.7201L17.99 10.04L24.78 1.23999L23.17 0L16.38 8.80005L15.5 8.12L0 28.2101L2.38 31.51L5.77 30.3401C5.74 30.1701 5.72 30.0101 5.72 29.8301V26.49Z" fill="#101820"/>
<path d="M108.88 29.15V27.7001V25.8201H107.22V24.2001V19.38C107.22 18.04 106.22 16.91 104.88 16.75L84.41 14.36C84.2 14.34 83.9999 14.26 83.8299 14.14L72.63 6.41003L72.6099 6.40002C72.4299 6.28002 72.2199 6.20006 71.9999 6.19006L59.5 5.47998C59.5 5.47998 59.5 5.47998 59.49 5.47998L57.91 5.39001L57.51 5.37C57.49 5.37 57.47 5.37 57.44 5.37C56.84 5.37 56.34 5.84006 56.31 6.44006L56.29 6.81006L55.67 18.0901L55.61 21.5H53.82V19.53L48.33 19.3101L52.82 5.17004H54.94C55.35 5.17004 55.64 4.79002 55.55 4.40002L55.12 2.63C55.05 2.35 54.8 2.15002 54.51 2.15002H48.53C48.24 2.15002 47.99 2.35 47.92 2.63L47.49 4.40002C47.39 4.79002 47.69 5.17004 48.1 5.17004H49.68L41.19 15.7201L26.19 10.3L19.48 14.3L14.94 20.2201L14.43 20.89L10.14 21.7001L9.01995 26.5H7.19995V29.85C7.19995 30.92 8.06995 31.79 9.13995 31.79H14.32L13.43 33.27L11.62 36.27L13.36 37.3201L15.81 33.27L16.35 32.38L18.11 29.4701V29.49C19.69 26.96 22.5 25.27 25.7 25.27C29.83 25.27 33.3 28.08 34.33 31.88L52.56 31.9601C53.27 31.9601 53.84 31.3901 53.84 30.6801V29.9401H55.51L55.5 30.76C55.49 31.42 56.02 31.9701 56.69 31.9701H56.78H62.65V33.99H59.23V36.02H82.28V33.99H79.82V31.9701H84.16C85.16 28.1201 88.66 25.27 92.82 25.27C97.34 25.27 101.07 28.63 101.68 32.98H105.11H106.92C108.01 32.98 108.89 32.1 108.89 31.01V29.15H108.88ZM27.25 18.4401L20.7 19.6801L22.36 17.52L26.64 14.9701L37.39 18.86L27.25 18.4401ZM61.26 13.01V9.59009C61.26 8.94009 61.78 8.43005 62.42 8.43005C62.44 8.43005 62.46 8.43005 62.49 8.43005L70.71 8.90002C71.17 8.93002 71.6199 9.08009 71.9999 9.34009L77.88 13.4C78.39 13.75 78.14 14.54 77.53 14.54C77.52 14.54 77.52 14.54 77.51 14.54L62.4 14.17C61.77 14.16 61.26 13.64 61.26 13.01ZM77.04 33.9701H65.4V31.9501H77.04V33.9701Z" fill="#101820"/>
<path d="M92.8101 26.73C88.6801 26.73 85.3301 30.0801 85.3301 34.2101C85.3301 38.3401 88.6801 41.6901 92.8101 41.6901C96.9401 41.6901 100.29 38.3401 100.29 34.2101C100.29 30.0801 96.9401 26.73 92.8101 26.73Z" fill="#101820"/>
<path d="M25.68 26.73C21.55 26.73 18.2 30.0801 18.2 34.2101C18.2 38.3401 21.55 41.6901 25.68 41.6901C29.81 41.6901 33.16 38.3401 33.16 34.2101C33.16 30.0801 29.81 26.73 25.68 26.73Z" fill="#101820"/>
<path d="M48.7402 24.8101L47.8202 22.3101L46.9002 24.8101L44.2302 24.91L46.3302 26.5601L45.6002 29.13L47.8202 27.65L50.0302 29.13L49.3102 26.5601L51.4002 24.91L48.7402 24.8101Z" fill="white"/>
<path d="M39.8 24.8101L38.88 22.3101L37.96 24.8101L35.3 24.91L37.39 26.5601L36.67 29.13L38.88 27.65L41.1 29.13L40.37 26.5601L42.47 24.91L39.8 24.8101Z" fill="white"/>
<path d="M61.26 16.92V24.9H81.87C82.02 22.22 81.82 19.44 81.6 17.41L80.32 17.38L61.26 16.92ZM64.41 21.2201L62.93 21.1801L62.99 18.6801L64.47 18.7201L64.41 21.2201Z" fill="#22C55E"/>
<path d="M104.45 19.5L87.8601 17.5601L83.0901 17.4401C83.2801 19.2001 83.4401 21.47 83.3901 23.79H87.8701C89.3701 23.08 91.0401 22.67 92.8101 22.67C94.5801 22.67 96.2501 23.08 97.7501 23.79H104.45V19.5Z" fill="#22C55E"/>
<path d="M61.26 27.67H81.55C81.71 26.79 81.81 25.85 81.86 24.9H61.25V27.67H61.26Z" fill="#15803D"/>
<path d="M83.0601 27.67H83.3201C84.4701 26.01 86.0401 24.67 87.8801 23.8H83.4001C83.3701 25.11 83.2601 26.42 83.0601 27.67Z" fill="#15803D"/>
<path d="M104.45 24.2101V23.8H97.75C98.85 24.32 99.85 25.0101 100.72 25.8301H104.45V24.2101Z" fill="#15803D"/>
<path d="M92.8102 36.5601C94.1081 36.5601 95.1602 35.508 95.1602 34.2101C95.1602 32.9122 94.1081 31.86 92.8102 31.86C91.5123 31.86 90.4602 32.9122 90.4602 34.2101C90.4602 35.508 91.5123 36.5601 92.8102 36.5601Z" fill="#15803D"/>
<path d="M92.81 30.39C90.7 30.39 88.99 32.1001 88.99 34.2101C88.99 36.3201 90.7 38.03 92.81 38.03C94.92 38.03 96.63 36.3201 96.63 34.2101C96.64 32.1001 94.92 30.39 92.81 30.39ZM95.16 34.2101C95.16 35.5001 94.11 36.5601 92.81 36.5601C91.51 36.5601 90.46 35.5101 90.46 34.2101C90.46 32.9101 91.51 31.86 92.81 31.86C94.11 31.86 95.16 32.9201 95.16 34.2101Z" fill="white"/>
<path d="M62.9596 18.6279L62.9004 21.1272L64.3799 21.1623L64.4392 18.663L62.9596 18.6279Z" fill="#101820"/>
<path d="M25.6801 31.86C24.3901 31.86 23.3301 32.9101 23.3301 34.2101C23.3301 35.5101 24.3801 36.5601 25.6801 36.5601C26.9801 36.5601 28.0301 35.5101 28.0301 34.2101C28.0301 32.9101 26.9801 31.86 25.6801 31.86Z" fill="#15803D"/>
<path d="M25.6801 30.39C23.5701 30.39 21.8601 32.1001 21.8601 34.2101C21.8601 36.3201 23.5701 38.03 25.6801 38.03C27.7901 38.03 29.5001 36.3201 29.5001 34.2101C29.5101 32.1001 27.7901 30.39 25.6801 30.39ZM28.0301 34.2101C28.0301 35.5001 26.9801 36.5601 25.6801 36.5601C24.3801 36.5601 23.3301 35.5101 23.3301 34.2101C23.3301 32.9101 24.3801 31.86 25.6801 31.86C26.9801 31.86 28.0301 32.9201 28.0301 34.2101Z" fill="white"/>
</svg>
