<svg width="146" height="45" viewBox="0 0 146 45" fill="none" xmlns="http://www.w3.org/2000/svg">
<path d="M5.64001 37.3064C5.36001 37.0264 5.21002 36.6564 5.21002 36.2664V30.9564L4.23004 18.9664L3.13 19.0564L2.77002 14.6964L0.73999 14.8664L1.10004 19.2264L0 19.3164L1.69 39.9564L5.77002 40.6064L6.97003 37.7464H6.70001C6.30001 37.7364 5.92001 37.5764 5.64001 37.3064Z" fill="white"/>
<path d="M19.3999 29.6764C15.2699 29.6764 11.9199 33.0264 11.9199 37.1564C11.9199 41.2864 15.2699 44.6364 19.3999 44.6364C23.5299 44.6364 26.8799 41.2864 26.8799 37.1564C26.8699 33.0164 23.5299 29.6764 19.3999 29.6764ZM19.3999 40.9764C17.2899 40.9764 15.5799 39.2664 15.5799 37.1564C15.5799 35.0464 17.2899 33.3364 19.3999 33.3364C21.5099 33.3364 23.2199 35.0464 23.2199 37.1564C23.2199 39.2664 21.5099 40.9764 19.3999 40.9764Z" fill="white"/>
<path d="M19.4 34.8064C18.11 34.8064 17.05 35.8564 17.05 37.1564C17.05 38.4564 18.1 39.5064 19.4 39.5064C20.7 39.5064 21.75 38.4564 21.75 37.1564C21.75 35.8564 20.69 34.8064 19.4 34.8064Z" fill="white"/>
<path d="M53.08 29.6764C49.44 29.6764 46.49 32.6264 46.49 36.2664C46.49 39.9064 49.44 42.8564 53.08 42.8564C56.72 42.8564 59.67 39.9064 59.67 36.2664C59.67 32.6264 56.72 29.6764 53.08 29.6764ZM53.08 39.1964C51.45 39.1964 50.14 37.8764 50.14 36.2564C50.14 34.6264 51.46 33.3164 53.08 33.3164C54.7 33.3164 56.02 34.6364 56.02 36.2564C56.03 37.8864 54.71 39.1964 53.08 39.1964Z" fill="white"/>
<path d="M53.0801 34.7964C52.2701 34.7964 51.6201 35.4564 51.6201 36.2564C51.6201 37.0664 52.2801 37.7164 53.0801 37.7164C53.8901 37.7164 54.5402 37.0564 54.5402 36.2564C54.5502 35.4464 53.8901 34.7964 53.0801 34.7964Z" fill="white"/>
<path d="M36.52 29.6764C32.39 29.6764 29.04 33.0264 29.04 37.1564C29.04 41.2864 32.39 44.6364 36.52 44.6364C40.65 44.6364 44 41.2864 44 37.1564C43.99 33.0164 40.65 29.6764 36.52 29.6764ZM36.52 40.9764C34.41 40.9764 32.7 39.2664 32.7 37.1564C32.7 35.0464 34.41 33.3364 36.52 33.3364C38.63 33.3364 40.34 35.0464 40.34 37.1564C40.34 39.2664 38.63 40.9764 36.52 40.9764Z" fill="white"/>
<path d="M36.5199 34.8064C35.2299 34.8064 34.1699 35.8564 34.1699 37.1564C34.1699 38.4564 35.2199 39.5064 36.5199 39.5064C37.8099 39.5064 38.8699 38.4564 38.8699 37.1564C38.8699 35.8564 37.8099 34.8064 36.5199 34.8064Z" fill="white"/>
<path d="M143.43 31.2364V25.2764V21.4864C143.43 20.7864 143.16 20.1364 142.72 19.6564C142.27 19.1764 141.65 18.8464 140.95 18.7864L124.57 17.4064C124.55 16.7164 123.99 16.1564 123.3 16.1564H120.8L118.48 8.56643C118.17 7.55643 117.25 6.84643 116.19 6.81643L106.26 6.49642C106.15 6.49642 106.06 6.52641 105.96 6.54641C105.89 6.55641 105.82 6.55639 105.76 6.58639C105.67 6.62639 105.6 6.68641 105.52 6.73641C105.47 6.77641 105.41 6.79639 105.37 6.83639C105.3 6.90639 105.25 6.99639 105.2 7.08639C105.17 7.13639 105.13 7.16639 105.11 7.21639C105.05 7.36639 105.01 7.52643 105.01 7.69643V9.56643C105.01 8.95643 104.52 8.46639 103.91 8.46639H103.48V3.57638L103.11 1.64638C102.9 0.546384 101.83 -0.173601 100.73 0.0363991L101.45 3.76638V8.46639H101.02C100.41 8.46639 99.9199 8.95643 99.9199 9.56643V15.9564H90.8999L95.0699 5.82638H95.9499C96.3599 5.82638 96.6499 5.44642 96.5599 5.05642L96.1299 3.2864C96.0599 3.0064 95.8099 2.80642 95.5199 2.80642H89.5399C89.2499 2.80642 88.9999 3.0064 88.9299 3.2864L88.4999 5.05642C88.3999 5.44642 88.6999 5.82638 89.1099 5.82638H89.7699L77.6099 20.3564H74.9599L83.7299 9.87643C84.0999 9.42643 83.8099 8.74638 83.2299 8.70638L71.7699 7.87643L9.34991 3.35641L7.62987 3.2264C7.27987 3.1964 6.93991 3.34643 6.72991 3.62643L4.75988 6.19643C4.52988 6.48643 4.47986 6.8764 4.61986 7.2264L5.97991 10.5164C6.01991 10.6064 6.06987 10.6764 6.12987 10.7464L7.31988 24.3564L11.6999 22.3964C11.8899 22.3064 12.0999 22.2664 12.2999 22.2664H13.4799L15.3299 17.8864L15.4199 16.4964L14.1599 11.9964L26.3199 13.1964L38.0799 18.1164L38.3999 17.3464L41.5799 18.6764L41.2599 19.4464L51.5399 23.7564H16.7699H15.2899H12.2999L6.67986 26.2764V36.2864H10.0999L12.9299 28.0964H16.7699H25.0099L26.6599 31.6864H29.2299L30.8799 28.0964H42.1199L43.7699 31.6864H46.3399L47.9899 28.0964H58.5199L61.9999 36.2864H65.7999V37.8664H77.4399V36.2864H80.0899C80.7799 36.2864 81.3399 35.7264 81.3399 35.0364C81.3399 35.7264 81.8999 36.2864 82.5899 36.2864H95.3599H101.41H103.13C103.42 37.8164 104.76 38.9864 106.37 38.9864H118.26C118.37 39.6764 118.54 40.3464 118.77 40.9964H121.56C121.01 39.8364 120.69 38.5464 120.69 37.1864C120.69 32.2464 124.71 28.2264 129.65 28.2264C134.59 28.2264 138.61 32.2464 138.61 37.1864C138.61 37.3464 138.59 37.5064 138.59 37.6664H143.27C144.31 37.6664 145.15 36.8264 145.15 35.7864V32.9164H143.44V31.2364H143.43ZM8.66991 22.7464L7.64989 11.0464L9.4099 10.7464L11.1299 16.9164L8.66991 22.7464ZM56.4399 22.3764L42.4799 16.5264L42.1599 17.2964L38.9799 15.9664L39.2999 15.1964L36.9499 14.2164L61.0899 16.5864L56.4399 22.3764ZM16.8799 7.04641V5.38644L70.6299 9.27639L68.3499 12.1064L16.8799 7.04641ZM74.4399 32.5664L71.6699 30.7164L68.8999 32.5664L69.8099 29.3564L67.1899 27.2964L70.5199 27.1664L71.6699 24.0364L72.8199 27.1664L76.1499 27.2964L73.5299 29.3564L74.4399 32.5664ZM93.9099 27.4864L95.0899 31.6664L91.4799 29.2564L87.8699 31.6664L89.0499 27.4864L85.6399 24.8064L89.9799 24.6364L91.4799 20.5664L92.9799 24.6364L97.3199 24.8064L93.9099 27.4864ZM117.41 16.9164C117.4 16.9164 117.4 16.9164 117.39 16.9164L108.9 16.6364C108.27 16.6164 107.77 16.0964 107.77 15.4664V10.5264C107.77 9.87639 108.3 9.35641 108.94 9.35641C108.95 9.35641 108.97 9.35641 108.98 9.35641L115.05 9.54641C115.55 9.56641 115.99 9.89643 116.13 10.3764L117.92 16.2264C118.03 16.5664 117.77 16.9164 117.41 16.9164Z" fill="white"/>
<path d="M129.65 29.6764C125.52 29.6764 122.17 33.0264 122.17 37.1564C122.17 41.2864 125.52 44.6364 129.65 44.6364C133.78 44.6364 137.13 41.2864 137.13 37.1564C137.13 33.0164 133.78 29.6764 129.65 29.6764ZM129.65 40.9764C127.54 40.9764 125.83 39.2664 125.83 37.1564C125.83 35.0464 127.54 33.3364 129.65 33.3364C131.76 33.3364 133.47 35.0464 133.47 37.1564C133.48 39.2664 131.77 40.9764 129.65 40.9764Z" fill="white"/>
<path d="M129.65 34.8064C128.36 34.8064 127.3 35.8564 127.3 37.1564C127.3 38.4564 128.35 39.5064 129.65 39.5064C130.95 39.5064 132 38.4564 132 37.1564C132 35.8564 130.95 34.8064 129.65 34.8064Z" fill="white"/>
</svg>
