<svg width="146" height="45" viewBox="0 0 146 45" fill="none" xmlns="http://www.w3.org/2000/svg">
<path d="M5.64 37.3164C5.36 37.0364 5.21001 36.6664 5.21001 36.2764V30.9664L4.23001 18.9664L3.13 19.0564L2.77 14.6964L0.740005 14.8664L1.10001 19.2264L0 19.3164L1.69 39.9564L5.77 40.6064L6.97 37.7464H6.70001C6.29001 37.7464 5.92 37.5864 5.64 37.3164Z" fill="#101820"/>
<path d="M19.3899 29.6864C15.2599 29.6864 11.9099 33.0364 11.9099 37.1664C11.9099 41.2964 15.2599 44.6464 19.3899 44.6464C23.5199 44.6464 26.8699 41.2964 26.8699 37.1664C26.8699 33.0264 23.5199 29.6864 19.3899 29.6864Z" fill="#101820"/>
<path d="M53.08 29.6864C49.44 29.6864 46.49 32.6364 46.49 36.2764C46.49 39.9164 49.44 42.8664 53.08 42.8664C56.72 42.8664 59.67 39.9164 59.67 36.2764C59.67 32.6364 56.72 29.6864 53.08 29.6864Z" fill="#101820"/>
<path d="M36.51 29.6864C32.38 29.6864 29.03 33.0364 29.03 37.1664C29.03 41.2964 32.38 44.6464 36.51 44.6464C40.64 44.6464 43.9901 41.2964 43.9901 37.1664C43.9901 33.0264 40.64 29.6864 36.51 29.6864Z" fill="#101820"/>
<path d="M143.43 32.8964V31.2464V25.2864V21.4964C143.43 21.3164 143.41 21.1464 143.38 20.9764C143.32 20.6464 143.19 20.3264 143.01 20.0464C142.57 19.3464 141.82 18.8664 140.94 18.7864L124.56 17.4064C124.54 16.7164 123.98 16.1564 123.29 16.1564H120.79L118.47 8.56643C118.16 7.54643 117.24 6.84643 116.18 6.81643L106.25 6.49642C106.14 6.49642 106.05 6.52641 105.95 6.54641C105.88 6.55641 105.81 6.55638 105.75 6.58638C105.66 6.62638 105.59 6.68641 105.51 6.73641C105.46 6.77641 105.4 6.79638 105.36 6.83638C105.29 6.90638 105.24 6.99638 105.18 7.08638C105.15 7.13638 105.11 7.16639 105.09 7.21639C105.03 7.36639 104.99 7.52643 104.99 7.69643V9.56643C104.99 8.95643 104.5 8.46639 103.89 8.46639H103.46V3.57644L103.09 1.64644C102.88 0.546443 101.81 -0.173603 100.71 0.0363968L101.43 3.76644V8.46639H101C100.39 8.46639 99.9001 8.95643 99.9001 9.56643V15.9564H90.8801L95.0501 5.82644H95.9301C96.3401 5.82644 96.6301 5.44642 96.5401 5.05642L96.1101 3.2864C96.0401 3.0064 95.7901 2.80642 95.5001 2.80642H89.5201C89.2301 2.80642 88.9801 3.0064 88.9101 3.2864L88.4801 5.05642C88.3801 5.44642 88.6801 5.82644 89.0901 5.82644H89.7601L77.6101 20.3664H74.9601L83.7301 9.88643C84.1001 9.43643 83.8101 8.75639 83.2301 8.71639L71.7701 7.88643L9.35011 3.36641L7.63011 3.23641C7.28011 3.20641 6.94011 3.35643 6.73011 3.63643L4.76011 6.20644C4.53011 6.49644 4.48011 6.88641 4.62011 7.23641L5.98011 10.5264C6.02011 10.6164 6.07011 10.6864 6.13011 10.7564L7.32011 24.3664L11.7001 22.4064C11.8901 22.3164 12.1001 22.2764 12.3001 22.2764H13.4801L15.3301 17.8964L15.4201 16.5064L14.1601 12.0064L26.3201 13.2064L38.0801 18.1264L38.4001 17.3564L41.5801 18.6864L41.2601 19.4564L51.5401 23.7664H16.7701H15.2901H12.3001L6.68011 26.2864V36.2964H10.1001L12.9301 28.1064H16.7701H25.0101L26.6601 31.6964H29.2301L30.8801 28.1064H42.1201L43.7701 31.6964H46.3401L47.9901 28.1064H58.5201L62.0001 36.2964H65.8001V37.8764H77.4401V36.2964H80.0901C80.7801 36.2964 81.3401 35.7364 81.3401 35.0464C81.3401 35.7364 81.9001 36.2964 82.5901 36.2964H95.3601H101.41H103.13C103.42 37.8264 104.76 38.9964 106.37 38.9964H118.26C118.37 39.6864 118.54 40.3564 118.77 41.0064H121.56C121.01 39.8464 120.69 38.5564 120.69 37.1964C120.69 32.2564 124.71 28.2364 129.65 28.2364C134.59 28.2364 138.61 32.2564 138.61 37.1964C138.61 37.3564 138.59 37.5164 138.59 37.6764H143.27C144.31 37.6764 145.15 36.8364 145.15 35.7964V32.9264H143.43V32.8964ZM108.94 9.36641C108.95 9.36641 108.97 9.36641 108.98 9.36641L115.05 9.55642C115.55 9.57642 115.98 9.90643 116.13 10.3864L117.92 16.2364C118.03 16.5764 117.77 16.9264 117.41 16.9264C117.4 16.9264 117.4 16.9264 117.39 16.9264L108.9 16.6464C108.27 16.6264 107.77 16.1064 107.77 15.4764V10.5364C107.78 9.8864 108.3 9.36641 108.94 9.36641ZM68.3601 12.1164L16.8801 7.05642V5.39644L70.6301 9.2864L68.3601 12.1164ZM8.66011 22.7564L7.6401 11.0564L9.40011 10.7564L11.1201 16.9264L8.66011 22.7564ZM38.9701 15.9764L39.2901 15.2064L36.9401 14.2264L61.0801 16.5964L56.4301 22.3864L42.4701 16.5364L42.1501 17.3064L38.9701 15.9764Z" fill="#101820"/>
<path d="M137.13 37.1564C137.13 33.0264 133.78 29.6764 129.65 29.6764C125.52 29.6764 122.17 33.0264 122.17 37.1564C122.17 41.2864 125.52 44.6364 129.65 44.6364C133.78 44.6364 137.13 41.2864 137.13 37.1564ZM125.83 37.1564C125.83 35.0464 127.54 33.3364 129.65 33.3364C131.76 33.3364 133.47 35.0464 133.47 37.1564C133.47 39.2664 131.76 40.9764 129.65 40.9764C127.54 40.9864 125.83 39.2764 125.83 37.1564Z" fill="#101820"/>
<path d="M119.75 31.2564H106.37C106.08 31.2564 105.84 31.4964 105.84 31.7864V35.6564C105.84 35.9464 106.08 36.1864 106.37 36.1864H118.15C118.31 34.4064 118.87 32.7264 119.75 31.2564Z" fill="#15803D"/>
<path d="M19.39 34.8164C18.1 34.8164 17.04 35.8664 17.04 37.1664C17.04 38.4664 18.09 39.5164 19.39 39.5164C20.69 39.5164 21.74 38.4664 21.74 37.1664C21.74 35.8664 20.69 34.8164 19.39 34.8164Z" fill="#15803D"/>
<path d="M19.3901 33.3364C17.2801 33.3364 15.5701 35.0464 15.5701 37.1564C15.5701 39.2664 17.2801 40.9764 19.3901 40.9764C21.5001 40.9764 23.2101 39.2664 23.2101 37.1564C23.2201 35.0464 21.5101 33.3364 19.3901 33.3364ZM21.7401 37.1564C21.7401 38.4464 20.6901 39.5064 19.3901 39.5064C18.0901 39.5064 17.0401 38.4564 17.0401 37.1564C17.0401 35.8564 18.0901 34.8064 19.3901 34.8064C20.6901 34.8064 21.7401 35.8664 21.7401 37.1564Z" fill="white"/>
<path d="M53.0801 34.8064C52.2701 34.8064 51.6201 35.4664 51.6201 36.2664C51.6201 37.0764 52.2801 37.7264 53.0801 37.7264C53.8901 37.7264 54.5401 37.0664 54.5401 36.2664C54.5501 35.4564 53.8901 34.8064 53.0801 34.8064Z" fill="#15803D"/>
<path d="M53.0801 33.3264C51.4501 33.3264 50.1401 34.6464 50.1401 36.2664C50.1401 37.8864 51.4601 39.2064 53.0801 39.2064C54.7101 39.2064 56.0201 37.8864 56.0201 36.2664C56.0201 34.6464 54.7101 33.3264 53.0801 33.3264ZM53.0801 37.7364C52.2701 37.7364 51.6201 37.0764 51.6201 36.2764C51.6201 35.4664 52.2801 34.8164 53.0801 34.8164C53.8901 34.8164 54.5401 35.4764 54.5401 36.2764C54.5501 37.0764 53.8901 37.7364 53.0801 37.7364Z" fill="white"/>
<path d="M36.5102 34.8164C35.2202 34.8164 34.1602 35.8664 34.1602 37.1664C34.1602 38.4664 35.2102 39.5164 36.5102 39.5164C37.8102 39.5164 38.8602 38.4664 38.8602 37.1664C38.8602 35.8664 37.8102 34.8164 36.5102 34.8164Z" fill="#15803D"/>
<path d="M36.5099 33.3364C34.3999 33.3364 32.6899 35.0464 32.6899 37.1564C32.6899 39.2664 34.3999 40.9764 36.5099 40.9764C38.6199 40.9764 40.3299 39.2664 40.3299 37.1564C40.3399 35.0464 38.6299 33.3364 36.5099 33.3364ZM38.8599 37.1564C38.8599 38.4464 37.8099 39.5064 36.5099 39.5064C35.2099 39.5064 34.1599 38.4564 34.1599 37.1564C34.1599 35.8564 35.2099 34.8064 36.5099 34.8064C37.8099 34.8064 38.8599 35.8664 38.8599 37.1564Z" fill="white"/>
<path d="M99.9001 33.4964V22.9864H87.0601V25.4764H85.5801V22.9864H84.1101V33.4964H99.9001Z" fill="#15803D"/>
<path d="M87.0601 22.9864H85.5801V25.4864H87.0601V22.9864Z" fill="#101820"/>
<path d="M87.0601 22.9864H99.9001V18.7364H84.1101V22.9864H85.5801H87.0601Z" fill="#22C55E"/>
<path d="M107.78 19.3764V25.7064H109.25V24.5064H110.73V25.7064H119.37V19.7664L107.78 19.3764Z" fill="#22C55E"/>
<path d="M140.66 25.8064V21.5564L124.58 20.1964V24.4564L140.66 25.8064Z" fill="#22C55E"/>
<path d="M110.73 27.0064H109.25V25.7064H107.78V28.4764H119.37V26.5064V25.7064H110.73V27.0064Z" fill="#15803D"/>
<path d="M136.86 28.1564L140.66 28.4764V25.8064L124.58 24.4564V26.5064V26.8064C126.11 26.0464 127.83 25.6164 129.65 25.6164C132.38 25.6164 134.88 26.5764 136.86 28.1564Z" fill="#15803D"/>
<path d="M110.73 27.0064V25.7064V24.5064H109.25V25.7064V27.0064H110.73Z" fill="#101820"/>
<path d="M127.31 37.1564C127.31 38.4464 128.36 39.5064 129.66 39.5064C130.96 39.5064 132.01 38.4564 132.01 37.1564C132.01 35.8564 130.96 34.8064 129.66 34.8064C128.36 34.8064 127.31 35.8664 127.31 37.1564Z" fill="#15803D"/>
<path d="M133.48 37.1564C133.48 35.0464 131.77 33.3364 129.66 33.3364C127.55 33.3364 125.84 35.0464 125.84 37.1564C125.84 39.2664 127.55 40.9764 129.66 40.9764C131.76 40.9864 133.48 39.2764 133.48 37.1564ZM132 37.1564C132 38.4464 130.95 39.5064 129.65 39.5064C128.35 39.5064 127.3 38.4564 127.3 37.1564C127.3 35.8564 128.35 34.8064 129.65 34.8064C130.95 34.8064 132 35.8664 132 37.1564Z" fill="white"/>
<path d="M72.7701 27.1064L71.6201 23.9764L70.4601 27.1064L67.1301 27.2364L69.7501 29.2964L68.8501 32.5064L71.6201 30.6464L74.3901 32.5064L73.4801 29.2964L76.1001 27.2364L72.7701 27.1064Z" fill="white"/>
</svg>
