<svg width="85" height="74" viewBox="0 0 85 74" fill="none" xmlns="http://www.w3.org/2000/svg">
<path d="M42.4599 67.19C40.7899 67.19 39.1199 67.03 37.4599 66.76L39.7599 58.16L40.8299 54.18L41.6299 51.2L49.7099 21.06L50.4999 18.09L51.5599 14.14L53.2199 7.96001C56.4999 9.19001 59.5099 10.95 62.1499 13.18C64.9199 13.04 67.7099 13.02 70.5099 13.14C65.8499 7.55001 59.4799 3.28 51.9099 1.26C48.7399 0.410002 45.5499 0 42.4199 0C29.6699 0 17.7799 6.72 11.1799 17.59C13.5199 17.84 15.8699 17.94 18.2399 17.93C23.8999 10.59 32.7499 6 42.4199 6C44.0899 6 45.7599 6.16 47.4199 6.43L45.1199 15.03L44.0499 19.01L43.2499 22L35.1699 52.14L34.3799 55.1L33.3199 59.05L31.6599 65.23C28.3399 63.98 25.3499 62.2 22.7499 60.01C21.1499 60.09 19.5399 60.15 17.9199 60.15C16.7399 60.15 15.5499 60.12 14.3599 60.07C19.0199 65.66 25.3899 69.93 32.9599 71.95C36.1299 72.8 39.3199 73.21 42.4499 73.21C55.1999 73.21 67.0899 66.49 73.6899 55.62C71.3499 55.37 68.9999 55.27 66.6299 55.28C60.9699 62.6 52.1299 67.19 42.4599 67.19Z" fill="white"/>
<path d="M79.37 14.06C76.4 13.56 73.44 13.27 70.5 13.15C67.7 13.03 64.91 13.06 62.14 13.19C58.58 13.37 55.06 13.72 51.56 14.15L50.5 18.1C59.79 16.88 69.26 16.18 78.74 17.79L81.1 18.19V52.91L77.79 52.35C66.29 50.4 54.91 52.1 42.85 53.89C42.18 53.99 41.5 54.09 40.83 54.19L39.76 58.17C40.98 57.99 42.2 57.81 43.41 57.63C51.41 56.44 59.1 55.29 66.64 55.26C69.01 55.25 71.36 55.36 73.7 55.6C74.86 55.72 76.01 55.87 77.16 56.07L84.88 57.38V14.99L79.37 14.06Z" fill="#22C55E"/>
<path d="M22.75 60C26.3 59.82 29.82 59.48 33.31 59.05L34.37 55.1C28.93 55.81 23.44 56.35 17.91 56.35C13.99 56.35 10.06 56.08 6.13 55.41L3.76999 55.01V20.29L7.07999 20.85C18.58 22.8 29.96 21.1 42.02 19.31C42.69 19.21 43.37 19.11 44.05 19.01L45.12 15.03C43.9 15.21 42.68 15.39 41.47 15.57C33.47 16.76 25.78 17.91 18.24 17.94C15.87 17.95 13.52 17.84 11.18 17.6C10.02 17.48 8.87 17.33 7.72 17.13L0 15.82V58.21L5.50998 59.14C8.47998 59.64 11.44 59.93 14.38 60.05C15.57 60.1 16.75 60.13 17.94 60.13C19.54 60.13 21.15 60.08 22.75 60Z" fill="#22C55E"/>
<path d="M78.2601 49.5501C78.2601 39.8901 78.2601 30.2401 78.2601 20.5801C68.7401 18.9601 59.2201 19.7701 49.7001 21.0701L41.6201 51.2101C53.8401 49.3801 66.0501 47.4701 78.2601 49.5501ZM48.8301 46.4001C52.4801 43.7201 54.9401 39.4501 54.9401 34.9001C54.9401 30.3201 52.4901 26.6201 48.8301 24.9401C55.3901 24.0301 62.0501 23.3101 68.6101 23.4401C69.0001 26.4001 71.2901 28.8401 74.3301 29.5301V39.5601C72.9701 39.6201 71.7001 40.1401 70.6601 41.0601C69.5401 42.0501 68.8201 43.4301 68.6101 44.9301C62.0201 44.7801 55.3701 45.4901 48.8301 46.4001Z" fill="#22C55E"/>
<path d="M6.6001 23.65C6.6001 33.31 6.6001 42.96 6.6001 52.62C16.1201 54.24 25.6401 53.43 35.1601 52.13L43.2401 21.99C31.0301 23.81 18.8201 25.72 6.6001 23.65ZM36.0401 26.8C32.3901 29.48 29.9301 33.75 29.9301 38.3C29.9301 42.88 32.3801 46.58 36.0401 48.26C29.4801 49.17 22.8201 49.89 16.2601 49.76C15.8701 46.8 13.5801 44.36 10.5401 43.67V33.64C11.9001 33.58 13.1701 33.06 14.2101 32.14C15.3301 31.15 16.0501 29.77 16.2601 28.27C22.8501 28.42 29.4901 27.71 36.0401 26.8Z" fill="#22C55E"/>
</svg>
