<svg width="74" height="74" viewBox="0 0 74 74" fill="none" xmlns="http://www.w3.org/2000/svg">
<path d="M34.4398 54.2399V49.8999C34.4398 45.0399 32.0099 42.6099 27.1499 42.6099H19.0999V38.7199C19.0999 36.6599 20.1298 35.6299 22.1898 35.6299H32.6599V32.7199L30.0199 30.6599L22.3699 30.6599C16.5299 30.6599 13.5999 33.5699 13.5999 39.3799L13.5999 54.2299C13.5999 59.0899 16.0299 61.5199 20.8899 61.5199H27.1499C32.0099 61.5299 34.4398 59.0999 34.4398 54.2399ZM28.9398 54.6399C28.9398 55.9199 28.2999 56.5599 27.0199 56.5599H21.0298C19.7498 56.5599 19.1099 55.9199 19.1099 54.6399L19.1099 47.5699H27.0298C28.3098 47.5699 28.9499 48.2099 28.9499 49.4899L28.9499 54.6399H28.9398Z" fill="#22C55E"/>
<path d="M52.5901 30.6599H46.33C41.47 30.6599 39.04 33.09 39.04 37.95V54.2299C39.04 59.0899 41.47 61.5199 46.33 61.5199H52.5901C57.4501 61.5199 59.88 59.0899 59.88 54.2299V37.95C59.88 33.09 57.4501 30.6599 52.5901 30.6599ZM54.38 54.6399C54.38 55.9199 53.7401 56.5599 52.4601 56.5599H46.47C45.19 56.5599 44.55 55.9199 44.55 54.6399V37.5499C44.55 36.2699 45.19 35.6299 46.47 35.6299H52.4601C53.7401 35.6299 54.38 36.2699 54.38 37.5499V54.6399Z" fill="#22C55E"/>
<path d="M73.5 63.33V13.44C73.5 7.82 68.92 3.24002 63.3 3.24002H54.7V2C54.7 0.9 53.8 0 52.7 0C51.6 0 50.7 0.9 50.7 2V3.24002H22.8V2C22.8 0.9 21.9 0 20.8 0C19.7 0 18.8 0.9 18.8 2V3.24002H10.2C4.58001 3.24002 0 7.82 0 13.44V63.33C0 68.95 4.58001 73.53 10.2 73.53H63.3C68.92 73.53 73.5 68.95 73.5 63.33ZM5.99002 63.33V24.66H67.49V63.33C67.49 65.54 65.77 67.34 63.6 67.5C63.5 67.51 63.4 67.53 63.29 67.53H10.19C10.08 67.53 9.99 67.51 9.88 67.5C7.72 67.34 5.99002 65.54 5.99002 63.33ZM58.45 13.99C58.45 17.17 55.87 19.75 52.69 19.75C49.51 19.75 46.93 17.17 46.93 13.99C46.93 11.51 48.5 9.41003 50.69 8.59003V13.36C50.69 14.46 51.59 15.36 52.69 15.36C53.79 15.36 54.69 14.46 54.69 13.36V8.59003C56.89 9.40003 58.45 11.51 58.45 13.99ZM26.56 13.99C26.56 17.17 23.98 19.75 20.8 19.75C17.62 19.75 15.04 17.17 15.04 13.99C15.04 11.51 16.61 9.41003 18.8 8.59003V13.36C18.8 14.46 19.7 15.36 20.8 15.36C21.9 15.36 22.8 14.46 22.8 13.36V8.59003C24.99 9.40003 26.56 11.51 26.56 13.99Z" fill="white"/>
</svg>
