<svg width="89" height="74" viewBox="0 0 89 74" fill="none" xmlns="http://www.w3.org/2000/svg">
<path d="M89 63.33V13.44C89 7.82 83.4542 3.24002 76.649 3.24002H66.2354V2C66.2354 0.9 65.1456 0 63.8136 0C62.4816 0 61.3919 0.9 61.3919 2V3.24002H27.6082V2C27.6082 0.9 26.5184 0 25.1864 0C23.8544 0 22.7646 0.9 22.7646 2V3.24002H12.351C5.54587 3.24002 0 7.82 0 13.44V63.33C0 68.95 5.54587 73.53 12.351 73.53H76.649C83.4542 73.53 89 68.95 89 63.33ZM7.25322 63.33V24.66H81.7226V63.33C81.7226 65.54 79.6399 67.34 77.0123 67.5C76.8912 67.51 76.7701 67.53 76.6369 67.53H12.3389C12.2057 67.53 12.0967 67.51 11.9635 67.5C9.34803 67.34 7.25322 65.54 7.25322 63.33ZM70.7762 13.99C70.7762 17.17 67.6521 19.75 63.8015 19.75C59.9509 19.75 56.8268 17.17 56.8268 13.99C56.8268 11.51 58.7279 9.41003 61.3797 8.59003V13.36C61.3797 14.46 62.4695 15.36 63.8015 15.36C65.1335 15.36 66.2233 14.46 66.2233 13.36V8.59003C68.8872 9.40003 70.7762 11.51 70.7762 13.99ZM32.1611 13.99C32.1611 17.17 29.037 19.75 25.1864 19.75C21.3358 19.75 18.2117 17.17 18.2117 13.99C18.2117 11.51 20.1128 9.41003 22.7646 8.59003V13.36C22.7646 14.46 23.8544 15.36 25.1864 15.36C26.5184 15.36 27.6082 14.46 27.6082 13.36V8.59003C30.26 9.40003 32.1611 11.51 32.1611 13.99Z" fill="white"/>
<path d="M12.696 60.9999V56.1159H19.736V35.5239H13.972V32.6639L16.568 30.6399H25.104V56.1159H31.44V60.9999H12.696Z" fill="#22C55E"/>
<path d="M33.8215 53.8279V49.5599C33.8215 48.3866 34.1882 47.4479 34.9215 46.7439L36.4615 45.1599L34.9215 43.6639C34.1882 42.9012 33.8215 41.9332 33.8215 40.7599V37.8119C33.8215 33.0306 36.2122 30.6399 40.9935 30.6399H47.1535C51.9349 30.6399 54.3255 33.0306 54.3255 37.8119V40.7599C54.3255 41.9332 53.9589 42.9012 53.2255 43.6639L51.6855 45.1599L53.2255 46.7439C53.9589 47.4479 54.3255 48.3866 54.3255 49.5599V53.8279C54.3255 58.6092 51.9349 60.9999 47.1535 60.9999H40.9935C36.2122 60.9999 33.8215 58.6092 33.8215 53.8279ZM39.2335 54.2239C39.2335 55.4852 39.8642 56.1159 41.1255 56.1159H47.0215C48.2829 56.1159 48.9135 55.4852 48.9135 54.2239V49.6039C48.9135 48.3426 48.2829 47.7119 47.0215 47.7119H41.1255C39.8642 47.7119 39.2335 48.3426 39.2335 49.6039V54.2239ZM39.2335 40.8919C39.2335 42.1826 39.8642 42.8279 41.1255 42.8279H47.0215C48.2829 42.8279 48.9135 42.1826 48.9135 40.8919V37.4159C48.9135 36.1546 48.2829 35.5239 47.0215 35.5239H41.1255C39.8642 35.5239 39.2335 36.1546 39.2335 37.4159V40.8919Z" fill="#22C55E"/>
<path d="M56.179 53.8279V37.8119C56.179 33.0306 58.5697 30.6399 63.351 30.6399H69.511C74.2924 30.6399 76.683 33.0306 76.683 37.8119V53.8279C76.683 58.6092 74.2924 60.9999 69.511 60.9999H63.351C58.5697 60.9999 56.179 58.6092 56.179 53.8279ZM61.591 54.2239C61.591 55.4852 62.2217 56.1159 63.483 56.1159H69.379C70.6404 56.1159 71.271 55.4852 71.271 54.2239V37.4159C71.271 36.1546 70.6404 35.5239 69.379 35.5239H63.483C62.2217 35.5239 61.591 36.1546 61.591 37.4159V54.2239Z" fill="#22C55E"/>
</svg>
